<?xml version="1.0" encoding="UTF-8"?> <svg xmlns="http://www.w3.org/2000/svg" width="333" height="304" fill="none" viewBox="0 0 333 304"> <path fill="#EBECEC" d="M167.84 146.846l-.276.417.276-.417zm160.409-23.255a.5.5 0 00-.41-.577l-4.436-.752a.5.5 0 00-.167.986l3.943.669-.668 3.943a.5.5 0 10.986.167l.752-4.436zM1 176.001l.292.406v-.001l.003-.001.01-.007.039-.029.158-.112a161.597 161.597 0 013.069-2.098l-.555-.832a159.678 159.678 0 00-3.253 2.228 2.108 2.108 0 00-.04.03l-.011.007-.003.002v.001l.291.406zm10.435-6.251a293.426 293.426 0 016.966-4.187l-.503-.864a293.096 293.096 0 00-6.99 4.201l.527.85zm14.016-8.168a303.09 303.09 0 017.18-3.806l-.456-.89a299.677 299.677 0 00-7.204 3.819l.48.877zm14.447-7.408a280.785 280.785 0 017.39-3.405l-.405-.914a281.318 281.318 0 00-7.416 3.417l.431.902zm14.857-6.577a245.96 245.96 0 017.562-2.929l-.346-.938a244.244 244.244 0 00-7.592 2.941l.376.926zm15.226-5.596a206.416 206.416 0 017.76-2.375l-.274-.962c-2.63.748-5.232 1.547-7.797 2.387l.31.95zm15.608-4.426c2.625-.625 5.27-1.191 7.93-1.69l-.185-.983a169.39 169.39 0 00-7.976 1.7l.231.973zm15.931-2.976c2.68-.356 5.368-.637 8.058-.833l-.073-.997c-2.71.197-5.418.48-8.117.839l.132.991zm16.148-1.159c2.704-.018 5.402.059 8.089.239l.067-.998a111.54 111.54 0 00-8.162-.241l.006 1zm16.13 1.103a91.22 91.22 0 017.935 1.542l.235-.972a92.191 92.191 0 00-8.023-1.559l-.147.989zm15.688 3.806a80.494 80.494 0 017.49 3.008l.419-.909a82.024 82.024 0 00-7.582-3.044l-.327.945zm14.636 6.756a79.038 79.038 0 013.442 2.158l.552-.834a80.027 80.027 0 00-3.485-2.184l-.509.86zm3.442 2.158c1.1.729 2.208 1.428 3.323 2.096l.514-.857a86.408 86.408 0 01-3.285-2.073l-.552.834zm10.19 5.8a86.411 86.411 0 007.176 3.064l.35-.936a85.557 85.557 0 01-7.092-3.029l-.434.901zm14.595 5.476a92.815 92.815 0 007.599 1.766l.186-.982a92.282 92.282 0 01-7.517-1.748l-.268.964zm15.318 2.912c2.589.282 5.184.466 7.78.56l.036-1a106.965 106.965 0 01-7.708-.554l-.108.994zm15.577.578c2.6-.078 5.196-.24 7.78-.476l-.091-.996c-2.565.234-5.14.395-7.72.473l.031.999zm15.517-1.401c2.577-.379 5.137-.826 7.675-1.331l-.196-.981c-2.521.502-5.065.946-7.624 1.323l.145.989zm15.272-3.028a184.656 184.656 0 007.523-2.032l-.281-.959a184.71 184.71 0 01-7.482 2.02l.24.971zm14.956-4.365c2.493-.835 4.94-1.707 7.335-2.606l-.351-.937a214.344 214.344 0 01-7.302 2.595l.318.948zm14.563-5.461a246.025 246.025 0 007.151-3.096l-.412-.911a243.602 243.602 0 01-7.121 3.083l.382.924zm14.201-6.411a267.753 267.753 0 006.926-3.51l-.465-.885a267.346 267.346 0 01-6.9 3.497l.439.898zm13.769-7.232a256.613 256.613 0 006.727-3.922l-.516-.856a255.409 255.409 0 01-6.702 3.906l.491.872zm13.345-8.074a147.197 147.197 0 002.97-1.996l.155-.109.04-.027a.058.058 0 01.01-.008.002.002 0 00.002-.002h.001l-.289-.408-.29-.408v.001l-.002.001-.01.007-.037.027-.152.106c-.135.093-.336.233-.601.414-.531.363-1.319.894-2.344 1.565l.547.837zM167.84 146.846l-.553.833.553-.833zm160.902-23.172a1 1 0 00-.819-1.153l-8.874-1.503a1 1 0 10-.334 1.972l7.888 1.336-1.337 7.888a1 1 0 001.972.334l1.504-8.874zM1 176.001l.584.812v-.001l.002-.001.01-.007.038-.027.157-.112c.14-.098.348-.245.623-.436.552-.383 1.37-.944 2.435-1.654l-1.11-1.664a167.01 167.01 0 00-2.465 1.675l-.638.446-.163.116a2.869 2.869 0 00-.042.03l-.01.008-.004.002v.001l.583.812zm10.698-5.827a293.784 293.784 0 016.955-4.179l-1.007-1.728a292.727 292.727 0 00-7.002 4.208l1.054 1.699zm13.993-8.154c2.266-1.24 4.66-2.513 7.169-3.799l-.913-1.78a307.044 307.044 0 00-7.216 3.825l.96 1.754zm14.423-7.395a277.336 277.336 0 017.376-3.398l-.81-1.829c-2.55 1.13-5.03 2.275-7.429 3.423l.863 1.804zm14.83-6.564a242.903 242.903 0 017.546-2.923l-.691-1.877a244.558 244.558 0 00-7.609 2.947l.753 1.853zm15.192-5.584c2.549-.835 5.131-1.628 7.741-2.37l-.547-1.924c-2.637.75-5.244 1.551-7.816 2.393l.623 1.901zm15.569-4.416a168.418 168.418 0 017.906-1.685l-.37-1.965a170.161 170.161 0 00-8 1.704l.464 1.946zm15.881-2.966c2.671-.355 5.349-.635 8.028-.83l-.145-1.995c-2.721.198-5.439.482-8.147.842l.264 1.983zm16.086-1.155c2.692-.018 5.378.059 8.051.238l.134-1.995c-2.725-.183-5.46-.261-8.198-.243l.013 2zm16.052 1.097c2.652.396 5.284.904 7.892 1.534l.469-1.944a92.507 92.507 0 00-8.066-1.568l-.295 1.978zm15.599 3.785a80.054 80.054 0 017.444 2.989l.838-1.817a82.202 82.202 0 00-7.629-3.063l-.653 1.891zm14.545 6.714c1.15.68 2.29 1.394 3.419 2.143l1.106-1.667a81.661 81.661 0 00-3.507-2.198l-1.018 1.722zm3.419 2.143a86.175 86.175 0 003.343 2.109l1.028-1.715a84.603 84.603 0 01-3.265-2.061l-1.106 1.667zm10.25 5.834a86.728 86.728 0 007.217 3.082l.702-1.872a85.241 85.241 0 01-7.051-3.011l-.868 1.801zm14.679 5.508a94.218 94.218 0 007.639 1.776l.372-1.965a92.034 92.034 0 01-7.477-1.738l-.534 1.927zm15.396 2.927c2.602.283 5.209.468 7.816.562l.073-1.998a106.54 106.54 0 01-7.672-.552l-.217 1.988zm15.647.581c2.611-.079 5.217-.241 7.811-.478l-.182-1.992c-2.556.234-5.121.393-7.69.471l.061 1.999zm15.575-1.406c2.586-.381 5.154-.829 7.699-1.336l-.39-1.961c-2.514.5-5.049.942-7.6 1.318l.291 1.979zm15.319-3.038a183.154 183.154 0 007.543-2.037l-.561-1.919a185.828 185.828 0 01-7.462 2.015l.48 1.941zm14.995-4.376a217.145 217.145 0 007.352-2.612l-.703-1.873c-2.379.894-4.81 1.76-7.285 2.589l.636 1.896zm14.596-5.473a248.19 248.19 0 007.165-3.102l-.824-1.823a243.744 243.744 0 01-7.106 3.077l.765 1.848zm14.229-6.424a268.687 268.687 0 006.938-3.516l-.93-1.771a267.817 267.817 0 01-6.886 3.491l.878 1.796zm13.794-7.246a257.877 257.877 0 006.741-3.929l-1.034-1.712a256.98 256.98 0 01-6.688 3.899l.981 1.742zm13.374-8.091c1.034-.677 1.83-1.213 2.369-1.581.269-.184.474-.326.613-.423l.157-.11.04-.028.011-.008.003-.002.001-.001-.579-.815-.579-.815h-.001l-.002.001-.008.007a.586.586 0 00-.037.026l-.15.104a138.863 138.863 0 01-2.933 1.972l1.095 1.673z"></path> </svg> 