<?xml version="1.0" encoding="UTF-8"?> <svg xmlns="http://www.w3.org/2000/svg" width="380" height="380" fill="none" viewBox="0 0 380 380"> <g filter="url(#filter0_ddd)"> <rect width="260" height="260" x="58" y="60" fill="#fff" rx="130"></rect> </g> <g clip-path="url(#clip0)"> <path fill="#fff" d="M164 127h48v48h-48z"></path> <path fill="url(#paint0_linear)" d="M188.884 163.078a2.36 2.36 0 01-1.683-.678L182 157a2.367 2.367 0 010-3.357 2.381 2.381 0 013.366 0l3.518 3.721 19.052-19.001a2.383 2.383 0 013.366 0 2.367 2.367 0 010 3.357l-20.734 20.68a2.523 2.523 0 01-1.684.678z"></path> <path fill="url(#paint1_linear)" d="M178.113 163.078c-.632 0-1.265-.214-1.748-.678l-11.64-11.179a2.305 2.305 0 010-3.357 2.541 2.541 0 013.496 0l9.892 9.5 19.784-19.001a2.542 2.542 0 013.495 0 2.305 2.305 0 010 3.357l-21.531 20.68a2.674 2.674 0 01-1.748.678z"></path> </g> <path fill="#122B29" d="M144.508 212v-2.424h-9.624v-5.328h7.584v-2.424h-7.584v-4.2h9.312V195.2h-11.952V212h12.264zm5.463 0v-7.776c.576-1.08 1.824-1.896 3.048-1.896 1.608 0 2.424.96 2.424 2.904V212h2.592v-7.704c.504-1.128 1.776-1.968 3.024-1.968 1.608 0 2.4.96 2.4 2.904V212h2.592v-7.368c0-3.072-1.584-4.728-4.176-4.728-1.896 0-3.456.888-4.296 2.112-.504-1.248-1.872-2.112-3.72-2.112-1.704 0-3 .624-3.888 1.848v-1.536h-2.592V212h2.592zm26.325-12.096c-1.824 0-3.216.648-4.2 1.92v-1.608h-2.592V216.8h2.592v-6.408c.984 1.272 2.376 1.92 4.2 1.92 1.656 0 3.024-.6 4.104-1.8 1.08-1.2 1.608-2.664 1.608-4.392 0-1.752-.528-3.216-1.608-4.416-1.08-1.2-2.448-1.8-4.104-1.8zm-.696 2.28c1.08 0 1.992.384 2.712 1.152.72.744 1.08 1.68 1.08 2.784 0 1.08-.36 2.016-1.08 2.784-.72.744-1.632 1.128-2.712 1.128-1.536 0-2.856-.912-3.504-2.088v-3.648a3.984 3.984 0 013.504-2.112zm12.208 10.128c.768 0 1.416-.12 1.92-.384v-2.232c-.288.168-.624.24-.984.24-.864 0-1.296-.48-1.296-1.44V195.2h-2.592v14.016c0 2.232 1.248 3.096 2.952 3.096zm10.024-2.28c-1.128 0-2.04-.384-2.784-1.128-.744-.744-1.104-1.68-1.104-2.808 0-1.104.36-2.04 1.104-2.784.744-.744 1.68-1.128 2.784-1.128 1.104 0 2.016.384 2.76 1.128.744.744 1.104 1.68 1.104 2.784 0 1.128-.36 2.064-1.104 2.808-.744.744-1.656 1.128-2.76 1.128zm0 2.28c1.872 0 3.408-.6 4.632-1.8 1.224-1.224 1.824-2.688 1.824-4.416 0-1.728-.6-3.192-1.824-4.392-1.224-1.2-2.76-1.8-4.632-1.8-1.896 0-3.432.6-4.656 1.8-1.224 1.2-1.824 2.664-1.824 4.392 0 1.752.6 3.216 1.824 4.416 1.224 1.2 2.76 1.8 4.656 1.8zm10.255 4.608c1.944 0 3.432-1.224 4.488-3.648l5.64-13.056h-2.808l-3.432 8.304-3.552-8.304h-2.88l5.16 11.352c-.888 2.112-1.704 3.072-3.048 3.072-.6 0-1.176-.12-1.704-.384v2.28c.456.264 1.152.384 2.136.384zm11.296-10.824c0 1.848.624 3.336 1.872 4.488 1.272 1.152 2.808 1.728 4.632 1.728 1.824 0 3.264-.384 4.344-1.152v-2.184c-1.176.696-2.424 1.056-3.792 1.056-2.4 0-4.128-1.176-4.44-3.168h9.024v-.672c0-2.136-.744-4.08-2.496-5.328-.864-.648-1.896-.96-3.096-.96-1.8 0-3.24.6-4.368 1.776-1.128 1.176-1.68 2.664-1.68 4.416zm2.64-1.2c.168-1.536 1.392-2.808 3.288-2.808.96 0 1.704.288 2.256.864.552.576.816 1.224.84 1.944h-6.384zm11.094 1.2c0 1.848.624 3.336 1.872 4.488 1.272 1.152 2.808 1.728 4.632 1.728 1.824 0 3.264-.384 4.344-1.152v-2.184c-1.176.696-2.424 1.056-3.792 1.056-2.4 0-4.128-1.176-4.44-3.168h9.024v-.672c0-2.136-.744-4.08-2.496-5.328-.864-.648-1.896-.96-3.096-.96-1.8 0-3.24.6-4.368 1.776-1.128 1.176-1.68 2.664-1.68 4.416zm2.64-1.2c.168-1.536 1.392-2.808 3.288-2.808.96 0 1.704.288 2.256.864.552.576.816 1.224.84 1.944h-6.384zm-88.42 38.416c3.072 0 5.136-1.44 5.136-3.576 0-1.872-1.344-3.12-4.032-3.72l-1.368-.288c-.312-.096-.864-.24-1.128-.36-.432-.216-.744-.48-.744-.936 0-.768.816-1.296 2.424-1.296 1.416 0 2.832.408 4.248 1.2v-2.376c-1.08-.696-2.544-1.056-4.344-1.056-3.144 0-4.992 1.32-4.992 3.456 0 2.04 1.272 3 3.96 3.672l1.464.36c.36.096.864.24 1.128.36.432.216.72.48.72.936 0 .864-.96 1.392-2.592 1.392-1.824 0-3.432-.48-4.8-1.416v2.448c1.032.696 2.928 1.2 4.92 1.2zm16.553-4.344c-.672 1.08-2.016 1.92-3.336 1.92-1.536 0-2.76-.744-2.76-3.048v-6.624h-2.592v7.2c0 3.048 1.584 4.896 4.368 4.896 1.728 0 3.168-.624 4.32-1.872V243h2.592v-11.784h-2.592v7.752zm13.086-8.064c-1.824 0-3.216.648-4.2 1.92v-1.608h-2.592V247.8h2.592v-6.408c.984 1.272 2.376 1.92 4.2 1.92 1.656 0 3.024-.6 4.104-1.8 1.08-1.2 1.608-2.664 1.608-4.392 0-1.752-.528-3.216-1.608-4.416-1.08-1.2-2.448-1.8-4.104-1.8zm-.696 2.28c1.08 0 1.992.384 2.712 1.152.72.744 1.08 1.68 1.08 2.784 0 1.08-.36 2.016-1.08 2.784-.72.744-1.632 1.128-2.712 1.128-1.536 0-2.856-.912-3.504-2.088v-3.648a3.984 3.984 0 013.504-2.112zm16.048-2.28c-1.824 0-3.216.648-4.2 1.92v-1.608h-2.592V247.8h2.592v-6.408c.984 1.272 2.376 1.92 4.2 1.92 1.656 0 3.024-.6 4.104-1.8 1.08-1.2 1.608-2.664 1.608-4.392 0-1.752-.528-3.216-1.608-4.416-1.08-1.2-2.448-1.8-4.104-1.8zm-.696 2.28c1.08 0 1.992.384 2.712 1.152.72.744 1.08 1.68 1.08 2.784 0 1.08-.36 2.016-1.08 2.784-.72.744-1.632 1.128-2.712 1.128-1.536 0-2.856-.912-3.504-2.088v-3.648a3.984 3.984 0 013.504-2.112zm14.895 7.848c-1.128 0-2.04-.384-2.784-1.128-.744-.744-1.104-1.68-1.104-2.808 0-1.104.36-2.04 1.104-2.784.744-.744 1.68-1.128 2.784-1.128 1.104 0 2.016.384 2.76 1.128.744.744 1.104 1.68 1.104 2.784 0 1.128-.36 2.064-1.104 2.808-.744.744-1.656 1.128-2.76 1.128zm0 2.28c1.872 0 3.408-.6 4.632-1.8 1.224-1.224 1.824-2.688 1.824-4.416 0-1.728-.6-3.192-1.824-4.392-1.224-1.2-2.76-1.8-4.632-1.8-1.896 0-3.432.6-4.656 1.8-1.224 1.2-1.824 2.664-1.824 4.392 0 1.752.6 3.216 1.824 4.416 1.224 1.2 2.76 1.8 4.656 1.8zm11.905-.312v-7.224c.552-1.224 2.016-2.304 3.864-2.304.264 0 .504.024.72.048v-2.592c-.072-.024-.144-.024-.24-.024-1.824 0-3.552.984-4.344 2.352v-2.04h-2.592V243h2.592zm8.898-3.216c0 2.304 1.392 3.528 3.6 3.528 1.176 0 2.064-.192 2.616-.576v-2.232a3.737 3.737 0 01-1.776.432c-1.248 0-1.848-.552-1.848-1.896v-5.544h3.72v-2.28h-3.72v-3.432h-2.592v3.432h-2.52v2.28h2.52v6.288z"></path> <defs> <linearGradient id="paint0_linear" x1="166.122" x2="188.496" y1="144.639" y2="172.53" gradientUnits="userSpaceOnUse"> <stop stop-color="#FFD888"></stop> <stop offset="1" stop-color="#E94B4F"></stop> </linearGradient> <linearGradient id="paint1_linear" x1="166.122" x2="188.496" y1="144.639" y2="172.53" gradientUnits="userSpaceOnUse"> <stop stop-color="#FFD888"></stop> <stop offset="1" stop-color="#E94B4F"></stop> </linearGradient> <clipPath id="clip0"> <path fill="#fff" d="M0 0h48v48H0z" transform="translate(164 127)"></path> </clipPath> <filter id="filter0_ddd" width="380" height="380" x="0" y="0" color-interpolation-filters="sRGB" filterUnits="userSpaceOnUse"> <feFlood flood-opacity="0" result="BackgroundImageFix"></feFlood> <feColorMatrix in="SourceAlpha" values="0 0 0 0 0 0 0 0 0 0 0 0 0 0 0 0 0 0 127 0"></feColorMatrix> <feOffset dx="2"></feOffset> <feGaussianBlur stdDeviation="30"></feGaussianBlur> <feColorMatrix values="0 0 0 0 0.2325 0 0 0 0 0.410454 0 0 0 0 0.45 0 0 0 0.05 0"></feColorMatrix> <feBlend in2="BackgroundImageFix" result="effect1_dropShadow"></feBlend> <feColorMatrix in="SourceAlpha" values="0 0 0 0 0 0 0 0 0 0 0 0 0 0 0 0 0 0 127 0"></feColorMatrix> <feOffset></feOffset> <feGaussianBlur stdDeviation="20"></feGaussianBlur> <feColorMatrix values="0 0 0 0 0.12549 0 0 0 0 0.258824 0 0 0 0 0.286275 0 0 0 0.03 0"></feColorMatrix> <feBlend in2="effect1_dropShadow" result="effect2_dropShadow"></feBlend> <feColorMatrix in="SourceAlpha" values="0 0 0 0 0 0 0 0 0 0 0 0 0 0 0 0 0 0 127 0"></feColorMatrix> <feOffset></feOffset> <feGaussianBlur stdDeviation="10"></feGaussianBlur> <feColorMatrix values="0 0 0 0 0.12549 0 0 0 0 0.258824 0 0 0 0 0.286275 0 0 0 0.02 0"></feColorMatrix> <feBlend in2="effect2_dropShadow" result="effect3_dropShadow"></feBlend> <feBlend in="SourceGraphic" in2="effect3_dropShadow" result="shape"></feBlend> </filter> </defs> </svg> 