<?xml version="1.0" encoding="UTF-8"?> <svg xmlns="http://www.w3.org/2000/svg" width="380" height="380" fill="none" viewBox="0 0 380 380"> <g filter="url(#filter0_ddd)"> <rect width="260" height="260" x="58" y="60" fill="#fff" rx="130"></rect> </g> <g clip-path="url(#clip0)"> <path fill="#fff" d="M164 127h48v48h-48z"></path> <path fill="url(#paint0_linear)" d="M188.884 163.078a2.36 2.36 0 01-1.683-.678L182 157a2.367 2.367 0 010-3.357 2.381 2.381 0 013.366 0l3.518 3.721 19.052-19.001a2.383 2.383 0 013.366 0 2.367 2.367 0 010 3.357l-20.734 20.68a2.523 2.523 0 01-1.684.678z"></path> <path fill="url(#paint1_linear)" d="M178.113 163.078c-.632 0-1.265-.214-1.748-.678l-11.64-11.179a2.305 2.305 0 010-3.357 2.541 2.541 0 013.496 0l9.892 9.5 19.784-19.001a2.542 2.542 0 013.495 0 2.305 2.305 0 010 3.357l-21.531 20.68a2.674 2.674 0 01-1.748.678z"></path> </g> <path fill="#122B29" d="M111.638 212.312c1.848 0 3.384-.456 4.608-1.344 1.224-.888 1.848-2.112 1.848-3.672-.096-1.896-.888-3.096-2.376-3.888-1.056-.576-1.8-.864-3.072-1.248l-1.92-.552c-.408-.168-1.176-.408-1.488-.6-.576-.408-.984-.792-.984-1.512 0-1.248 1.128-2.136 3.432-2.136 1.848 0 3.624.528 5.328 1.56v-2.64c-1.56-.936-3.36-1.392-5.376-1.392-3.768 0-6.096 1.8-6.096 4.584 0 1.536.504 2.616 1.728 3.384.624.36 1.176.648 1.68.84a27.44 27.44 0 002.184.696l.336.096c1.08.312 1.536.432 2.304.792.384.168.672.336.864.504.408.36.744.888.744 1.56 0 1.56-1.68 2.496-3.888 2.496a9.783 9.783 0 01-3.456-.648c-1.128-.432-2.04-.936-2.712-1.536v2.856c1.656 1.2 3.744 1.8 6.312 1.8zm12.165-8.064c.672-1.08 2.016-1.92 3.336-1.92.744 0 1.392.216 1.944.672.552.456.816 1.248.816 2.376V212h2.592v-7.2c0-3.048-1.584-4.896-4.368-4.896-1.728 0-3.168.624-4.32 1.872V195.2h-2.592V212h2.592v-7.752zM138.761 212v-11.784h-2.592V212h2.592zm-1.296-13.896c.888 0 1.608-.696 1.608-1.632 0-.936-.72-1.656-1.608-1.656-.936 0-1.632.72-1.632 1.656 0 .936.696 1.632 1.632 1.632zm8.719 4.392h3.864v-2.28h-3.864v-1.08c0-1.272.6-1.92 1.824-1.92.6 0 1.296.144 2.04.432v-2.184c-.816-.336-1.728-.504-2.76-.504-2.4 0-3.696 1.488-3.696 3.72v1.536h-2.208v2.28h2.208V212h2.592v-9.504zm7.54 6.288c0 2.304 1.392 3.528 3.6 3.528 1.176 0 2.064-.192 2.616-.576v-2.232a3.737 3.737 0 01-1.776.432c-1.248 0-1.848-.552-1.848-1.896v-5.544h3.72v-2.28h-3.72v-3.432h-2.592v3.432h-2.52v2.28h2.52v6.288zm19.664 3.528c3.072 0 5.136-1.44 5.136-3.576 0-1.872-1.344-3.12-4.032-3.72l-1.368-.288c-.312-.096-.864-.24-1.128-.36-.432-.216-.744-.48-.744-.936 0-.768.816-1.296 2.424-1.296 1.416 0 2.832.408 4.248 1.2v-2.376c-1.08-.696-2.544-1.056-4.344-1.056-3.144 0-4.992 1.32-4.992 3.456 0 2.04 1.272 3 3.96 3.672l1.464.36c.36.096.864.24 1.128.36.432.216.72.48.72.936 0 .864-.96 1.392-2.592 1.392-1.824 0-3.432-.48-4.8-1.416v2.448c1.032.696 2.928 1.2 4.92 1.2zm13.601 0c1.392 0 2.64-.312 3.768-.96v-2.208c-.984.6-2.112.888-3.36.888-1.176 0-2.16-.36-2.976-1.104-.792-.744-1.2-1.704-1.2-2.832s.408-2.064 1.2-2.808c.816-.744 1.8-1.104 2.976-1.104 1.056 0 2.112.264 3.168.768v-2.232c-1.032-.552-2.232-.816-3.552-.816-1.776 0-3.288.576-4.536 1.728-1.224 1.152-1.848 2.64-1.848 4.44 0 1.824.624 3.312 1.848 4.488 1.248 1.176 2.76 1.752 4.512 1.752zm9.541-8.064c.672-1.08 2.016-1.92 3.336-1.92.744 0 1.392.216 1.944.672.552.456.816 1.248.816 2.376V212h2.592v-7.2c0-3.048-1.584-4.896-4.368-4.896-1.728 0-3.168.624-4.32 1.872V195.2h-2.592V212h2.592v-7.752zm11.31 1.848c0 1.848.624 3.336 1.872 4.488 1.272 1.152 2.808 1.728 4.632 1.728 1.824 0 3.264-.384 4.344-1.152v-2.184c-1.176.696-2.424 1.056-3.792 1.056-2.4 0-4.128-1.176-4.44-3.168h9.024v-.672c0-2.136-.744-4.08-2.496-5.328-.864-.648-1.896-.96-3.096-.96-1.8 0-3.24.6-4.368 1.776-1.128 1.176-1.68 2.664-1.68 4.416zm2.64-1.2c.168-1.536 1.392-2.808 3.288-2.808.96 0 1.704.288 2.256.864.552.576.816 1.224.84 1.944h-6.384zm16.806 7.416c1.824 0 3.216-.648 4.2-1.92V212h2.592v-16.8h-2.592v6.624c-.984-1.272-2.376-1.92-4.2-1.92-1.656 0-3.024.6-4.104 1.8-1.08 1.2-1.608 2.664-1.608 4.392 0 1.752.528 3.216 1.608 4.416 1.08 1.2 2.448 1.8 4.104 1.8zm.696-2.28c-1.08 0-1.992-.384-2.712-1.128-.72-.768-1.08-1.704-1.08-2.808 0-1.08.36-2.016 1.08-2.76.72-.768 1.632-1.152 2.712-1.152 1.536 0 2.856.912 3.504 2.088v3.648a3.984 3.984 0 01-3.504 2.112zm18.256-2.064c-.672 1.08-2.016 1.92-3.336 1.92-1.536 0-2.76-.744-2.76-3.048v-6.624h-2.592v7.2c0 3.048 1.584 4.896 4.368 4.896 1.728 0 3.168-.624 4.32-1.872V212h2.592v-11.784h-2.592v7.752zm9.246 4.344c.768 0 1.416-.12 1.92-.384v-2.232c-.288.168-.624.24-.984.24-.864 0-1.296-.48-1.296-1.44V195.2h-2.592v14.016c0 2.232 1.248 3.096 2.952 3.096zm3.544-6.216c0 1.848.624 3.336 1.872 4.488 1.272 1.152 2.808 1.728 4.632 1.728 1.824 0 3.264-.384 4.344-1.152v-2.184c-1.176.696-2.424 1.056-3.792 1.056-2.4 0-4.128-1.176-4.44-3.168h9.024v-.672c0-2.136-.744-4.08-2.496-5.328-.864-.648-1.896-.96-3.096-.96-1.8 0-3.24.6-4.368 1.776-1.128 1.176-1.68 2.664-1.68 4.416zm2.64-1.2c.168-1.536 1.392-2.808 3.288-2.808.96 0 1.704.288 2.256.864.552.576.816 1.224.84 1.944h-6.384zM123.386 243v-11.784h-2.592V243h2.592zm-1.296-13.896c.888 0 1.608-.696 1.608-1.632 0-.936-.72-1.656-1.608-1.656-.936 0-1.632.72-1.632 1.656 0 .936.696 1.632 1.632 1.632zm7.807 6.144c.672-1.08 2.016-1.92 3.336-1.92 1.536 0 2.76.744 2.76 3.048V243h2.592v-7.2c0-3.048-1.584-4.896-4.368-4.896-1.728 0-3.168.624-4.32 1.872v-1.56h-2.592V243h2.592v-7.752zm15.654-1.752h3.864v-2.28h-3.864v-1.08c0-1.272.6-1.92 1.824-1.92.6 0 1.296.144 2.04.432v-2.184c-.816-.336-1.728-.504-2.76-.504-2.4 0-3.696 1.488-3.696 3.72v1.536h-2.208v2.28h2.208V243h2.592v-9.504zm11.628 7.536c-1.128 0-2.04-.384-2.784-1.128-.744-.744-1.104-1.68-1.104-2.808 0-1.104.36-2.04 1.104-2.784.744-.744 1.68-1.128 2.784-1.128 1.104 0 2.016.384 2.76 1.128.744.744 1.104 1.68 1.104 2.784 0 1.128-.36 2.064-1.104 2.808-.744.744-1.656 1.128-2.76 1.128zm0 2.28c1.872 0 3.408-.6 4.632-1.8 1.224-1.224 1.824-2.688 1.824-4.416 0-1.728-.6-3.192-1.824-4.392-1.224-1.2-2.76-1.8-4.632-1.8-1.896 0-3.432.6-4.656 1.8-1.224 1.2-1.824 2.664-1.824 4.392 0 1.752.6 3.216 1.824 4.416 1.224 1.2 2.76 1.8 4.656 1.8zm11.906-.312v-7.224c.552-1.224 2.016-2.304 3.864-2.304.264 0 .504.024.72.048v-2.592c-.072-.024-.144-.024-.24-.024-1.824 0-3.552.984-4.344 2.352v-2.04h-2.592V243h2.592zm9.539 0v-7.776c.576-1.08 1.824-1.896 3.048-1.896 1.608 0 2.424.96 2.424 2.904V243h2.592v-7.704c.504-1.128 1.776-1.968 3.024-1.968 1.608 0 2.4.96 2.4 2.904V243h2.592v-7.368c0-3.072-1.584-4.728-4.176-4.728-1.896 0-3.456.888-4.296 2.112-.504-1.248-1.872-2.112-3.72-2.112-1.704 0-3 .624-3.888 1.848v-1.536h-2.592V243h2.592zm30.597-2.016c-.576 0-.984-.432-.984-1.176v-4.392c0-2.88-2.184-4.512-5.448-4.512-1.704 0-3.12.336-4.296 1.008v2.28a6.978 6.978 0 013.72-1.056c2.304 0 3.456.864 3.456 2.568v.648c-1.08-.6-2.352-.912-3.768-.912-1.32 0-2.448.336-3.36 1.032-.912.672-1.368 1.632-1.368 2.88 0 1.224.408 2.208 1.248 2.904.84.696 1.896 1.056 3.168 1.056 1.824 0 3.264-.6 4.344-1.824.312 1.128 1.152 1.68 2.472 1.68.648 0 1.152-.12 1.512-.384v-1.968a1.36 1.36 0 01-.696.168zm-3.552-1.32c-.744.792-2.016 1.416-3.36 1.416-1.512 0-2.544-.624-2.544-1.872 0-1.152 1.032-1.824 2.76-1.824 1.104 0 2.16.288 3.144.84v1.44zm7.798.12c0 2.304 1.392 3.528 3.6 3.528 1.176 0 2.064-.192 2.616-.576v-2.232a3.737 3.737 0 01-1.776.432c-1.248 0-1.848-.552-1.848-1.896v-5.544h3.72v-2.28h-3.72v-3.432h-2.592v3.432h-2.52v2.28h2.52v6.288zM225.504 243v-11.784h-2.592V243h2.592zm-1.296-13.896c.888 0 1.608-.696 1.608-1.632 0-.936-.72-1.656-1.608-1.656-.936 0-1.632.72-1.632 1.656 0 .936.696 1.632 1.632 1.632zm10.854 11.928c-1.128 0-2.04-.384-2.784-1.128-.744-.744-1.104-1.68-1.104-2.808 0-1.104.36-2.04 1.104-2.784.744-.744 1.68-1.128 2.784-1.128 1.104 0 2.016.384 2.76 1.128.744.744 1.104 1.68 1.104 2.784 0 1.128-.36 2.064-1.104 2.808-.744.744-1.656 1.128-2.76 1.128zm0 2.28c1.872 0 3.408-.6 4.632-1.8 1.224-1.224 1.824-2.688 1.824-4.416 0-1.728-.6-3.192-1.824-4.392-1.224-1.2-2.76-1.8-4.632-1.8-1.896 0-3.432.6-4.656 1.8-1.224 1.2-1.824 2.664-1.824 4.392 0 1.752.6 3.216 1.824 4.416 1.224 1.2 2.76 1.8 4.656 1.8zm11.905-8.064c.672-1.08 2.016-1.92 3.336-1.92 1.536 0 2.76.744 2.76 3.048V243h2.592v-7.2c0-3.048-1.584-4.896-4.368-4.896-1.728 0-3.168.624-4.32 1.872v-1.56h-2.592V243h2.592v-7.752z"></path> <defs> <linearGradient id="paint0_linear" x1="168.475" x2="189.188" y1="142.297" y2="171.766" gradientUnits="userSpaceOnUse"> <stop stop-color="#85D5AF"></stop> <stop offset="1" stop-color="#35908D"></stop> </linearGradient> <linearGradient id="paint1_linear" x1="168.475" x2="189.188" y1="142.297" y2="171.766" gradientUnits="userSpaceOnUse"> <stop stop-color="#85D5AF"></stop> <stop offset="1" stop-color="#35908D"></stop> </linearGradient> <clipPath id="clip0"> <path fill="#fff" d="M0 0h48v48H0z" transform="translate(164 127)"></path> </clipPath> <filter id="filter0_ddd" width="380" height="380" x="0" y="0" color-interpolation-filters="sRGB" filterUnits="userSpaceOnUse"> <feFlood flood-opacity="0" result="BackgroundImageFix"></feFlood> <feColorMatrix in="SourceAlpha" values="0 0 0 0 0 0 0 0 0 0 0 0 0 0 0 0 0 0 127 0"></feColorMatrix> <feOffset dx="2"></feOffset> <feGaussianBlur stdDeviation="30"></feGaussianBlur> <feColorMatrix values="0 0 0 0 0.2325 0 0 0 0 0.410454 0 0 0 0 0.45 0 0 0 0.05 0"></feColorMatrix> <feBlend in2="BackgroundImageFix" result="effect1_dropShadow"></feBlend> <feColorMatrix in="SourceAlpha" values="0 0 0 0 0 0 0 0 0 0 0 0 0 0 0 0 0 0 127 0"></feColorMatrix> <feOffset></feOffset> <feGaussianBlur stdDeviation="20"></feGaussianBlur> <feColorMatrix values="0 0 0 0 0.12549 0 0 0 0 0.258824 0 0 0 0 0.286275 0 0 0 0.03 0"></feColorMatrix> <feBlend in2="effect1_dropShadow" result="effect2_dropShadow"></feBlend> <feColorMatrix in="SourceAlpha" values="0 0 0 0 0 0 0 0 0 0 0 0 0 0 0 0 0 0 127 0"></feColorMatrix> <feOffset></feOffset> <feGaussianBlur stdDeviation="10"></feGaussianBlur> <feColorMatrix values="0 0 0 0 0.12549 0 0 0 0 0.258824 0 0 0 0 0.286275 0 0 0 0.02 0"></feColorMatrix> <feBlend in2="effect2_dropShadow" result="effect3_dropShadow"></feBlend> <feBlend in="SourceGraphic" in2="effect3_dropShadow" result="shape"></feBlend> </filter> </defs> </svg> 