<?xml version="1.0" encoding="UTF-8"?> <svg xmlns="http://www.w3.org/2000/svg" width="363" height="76" viewBox="0 0 363 76" fill="none"> <path d="M38.1462 50.312L76.2925 76V25.688L38.1462 0V50.312Z" fill="#00589C"></path> <path d="M0 38C0 58.976 17.0895 76 38.1463 76V0C17.0895 0 0 17.024 0 38ZM76.2926 0V76C97.3493 76 114.439 58.976 114.439 38C114.439 17.024 97.3493 0 76.2926 0Z" fill="#0080C8"></path> <path d="M228.65 38.2646L220.521 25.305H213.337V50.607H221.079V37.8922L229.122 50.607H236.306V25.3035H228.649V38.2646H228.65ZM177.029 24.8916H173.027C167.74 24.8916 163.414 28.6445 163.414 34.4691V41.531C163.414 47.383 167.74 51.1086 173.027 51.1086H177.029C182.316 51.1086 186.645 47.345 186.645 41.531V34.4691C186.645 28.3374 182.316 24.8916 177.029 24.8916V24.8916ZM178.438 42.0965C178.436 42.9041 178.113 43.6781 177.539 44.2492C176.966 44.8203 176.189 45.1421 175.378 45.1441H174.679C173.869 45.1413 173.093 44.8192 172.52 44.2482C171.948 43.6772 171.625 42.9036 171.623 42.0965V33.8961C171.623 32.218 173 30.8454 174.679 30.8454H175.378C177.061 30.8454 178.438 32.2165 178.438 33.8961V42.0965ZM239.878 50.607H248.05V25.3035H239.878V50.607ZM331.279 43.7761V25.3035H323.11V50.6054H340.956V43.7761H331.279V43.7761ZM264.096 24.8916H260.432C255.147 24.8916 250.821 28.6445 250.821 34.4691V41.531C250.821 47.383 255.147 51.1086 260.432 51.1086H264.096C269.386 51.1086 273.71 47.345 273.71 41.531V41.2088H265.504V42.0965C265.502 42.9045 265.178 43.6788 264.604 44.2499C264.031 44.821 263.253 45.1425 262.442 45.1441H262.086C261.276 45.1417 260.5 44.8197 259.927 44.2486C259.354 43.6775 259.032 42.9037 259.03 42.0965V33.8961C259.03 32.218 260.403 30.8454 262.086 30.8454H262.442C264.126 30.8454 265.504 32.2165 265.504 33.8961V35.1273H273.71V34.4691C273.71 28.3374 269.386 24.8916 264.096 24.8916V24.8916ZM211.005 34.5953V33.3732C211.005 28.2098 206.677 25.305 201.393 25.305L189.418 25.3035V50.6054H197.474V43.1118H199.879L203.269 50.6054H211.739L207.002 41.3395C209.422 40.0156 211.005 37.7174 211.005 34.5953V34.5953ZM203.056 34.3034C203.056 35.2246 202.586 37.2811 200.224 37.2811H197.476V30.9762H200.558C201.383 30.9762 203.057 31.9246 203.057 33.9006V34.3034H203.056ZM152.899 38.0214L144.51 25.305H137.327V50.607H145.07V37.7827L153.459 50.607H160.643V25.3035H152.899V38.0214V38.0214ZM309.644 41.0082H318.854V34.9905H309.644V31.9049H319.687V25.3035H301.473V50.6054H320.436V44.001H309.644V41.0082V41.0082ZM299.515 25.3035H290.675L286.364 34.8719H284.347V25.3035H276.175V50.6054H284.347V41.6177H286.353L290.76 50.607H300.138L293.212 37.8435L299.515 25.3035V25.3035Z" fill="#626261"></path> </svg> 