<?xml version="1.0" encoding="UTF-8"?> <svg xmlns="http://www.w3.org/2000/svg" width="380" height="380" fill="none" viewBox="0 0 380 380"> <g filter="url(#filter0_ddd)"> <rect width="260" height="260" x="58" y="60" fill="#fff" rx="130"></rect> </g> <g clip-path="url(#clip0)"> <path fill="#fff" d="M164 127h48v48h-48z"></path> <path fill="url(#paint0_linear)" d="M188.884 163.078a2.36 2.36 0 01-1.683-.678L182 157a2.367 2.367 0 010-3.357 2.381 2.381 0 013.366 0l3.518 3.721 19.052-19.001a2.383 2.383 0 013.366 0 2.367 2.367 0 010 3.357l-20.734 20.68a2.523 2.523 0 01-1.684.678z"></path> <path fill="url(#paint1_linear)" d="M178.113 163.078c-.632 0-1.265-.214-1.748-.678l-11.64-11.179a2.305 2.305 0 010-3.357 2.541 2.541 0 013.496 0l9.892 9.5 19.784-19.001a2.542 2.542 0 013.495 0 2.305 2.305 0 010 3.357l-21.531 20.68a2.674 2.674 0 01-1.748.678z"></path> </g> <path fill="#122B29" d="M116.087 212v-6.936h4.584c1.752 0 3.12-.456 4.104-1.392 1.008-.936 1.512-2.136 1.512-3.6 0-1.44-.504-2.616-1.512-3.504-.984-.912-2.352-1.368-4.104-1.368h-7.224V212h2.64zm0-14.376h4.368c1.992 0 3.168.888 3.168 2.496s-1.176 2.52-3.168 2.52h-4.368v-5.016zm11.444 8.472c0 1.848.624 3.336 1.872 4.488 1.272 1.152 2.808 1.728 4.632 1.728 1.824 0 3.264-.384 4.344-1.152v-2.184c-1.176.696-2.424 1.056-3.792 1.056-2.4 0-4.128-1.176-4.44-3.168h9.024v-.672c0-2.136-.744-4.08-2.496-5.328-.864-.648-1.896-.96-3.096-.96-1.8 0-3.24.6-4.368 1.776-1.128 1.176-1.68 2.664-1.68 4.416zm2.64-1.2c.168-1.536 1.392-2.808 3.288-2.808.96 0 1.704.288 2.256.864.552.576.816 1.224.84 1.944h-6.384zm11.095 1.2c0 1.848.624 3.336 1.872 4.488 1.272 1.152 2.808 1.728 4.632 1.728 1.824 0 3.264-.384 4.344-1.152v-2.184c-1.176.696-2.424 1.056-3.792 1.056-2.4 0-4.128-1.176-4.44-3.168h9.024v-.672c0-2.136-.744-4.08-2.496-5.328-.864-.648-1.896-.96-3.096-.96-1.8 0-3.24.6-4.368 1.776-1.128 1.176-1.68 2.664-1.68 4.416zm2.64-1.2c.168-1.536 1.392-2.808 3.288-2.808.96 0 1.704.288 2.256.864.552.576.816 1.224.84 1.944h-6.384zM158.432 212v-7.224c.552-1.224 2.016-2.304 3.864-2.304.264 0 .504.024.72.048v-2.592c-.072-.024-.144-.024-.24-.024-1.824 0-3.552.984-4.344 2.352v-2.04h-2.592V212h2.592zm14.531-5.448v-2.328h-7.08v2.328h7.08zm5.429 2.232c0 2.304 1.392 3.528 3.6 3.528 1.176 0 2.064-.192 2.616-.576v-2.232a3.737 3.737 0 01-1.776.432c-1.248 0-1.848-.552-1.848-1.896v-5.544h3.72v-2.28h-3.72v-3.432h-2.592v3.432h-2.52v2.28h2.52v6.288zm14.635 1.248c-1.128 0-2.04-.384-2.784-1.128-.744-.744-1.104-1.68-1.104-2.808 0-1.104.36-2.04 1.104-2.784.744-.744 1.68-1.128 2.784-1.128 1.104 0 2.016.384 2.76 1.128.744.744 1.104 1.68 1.104 2.784 0 1.128-.36 2.064-1.104 2.808-.744.744-1.656 1.128-2.76 1.128zm0 2.28c1.872 0 3.408-.6 4.632-1.8 1.224-1.224 1.824-2.688 1.824-4.416 0-1.728-.6-3.192-1.824-4.392-1.224-1.2-2.76-1.8-4.632-1.8-1.896 0-3.432.6-4.656 1.8-1.224 1.2-1.824 2.664-1.824 4.392 0 1.752.6 3.216 1.824 4.416 1.224 1.2 2.76 1.8 4.656 1.8zm16.897-5.76v-2.328h-7.08v2.328h7.08zm10.997-6.648c-1.824 0-3.216.648-4.2 1.92v-1.608h-2.592V216.8h2.592v-6.408c.984 1.272 2.376 1.92 4.2 1.92 1.656 0 3.024-.6 4.104-1.8 1.08-1.2 1.608-2.664 1.608-4.392 0-1.752-.528-3.216-1.608-4.416-1.08-1.2-2.448-1.8-4.104-1.8zm-.696 2.28c1.08 0 1.992.384 2.712 1.152.72.744 1.08 1.68 1.08 2.784 0 1.08-.36 2.016-1.08 2.784-.72.744-1.632 1.128-2.712 1.128-1.536 0-2.856-.912-3.504-2.088v-3.648a3.984 3.984 0 013.504-2.112zm8.416 3.912c0 1.848.624 3.336 1.872 4.488 1.272 1.152 2.808 1.728 4.632 1.728 1.824 0 3.264-.384 4.344-1.152v-2.184c-1.176.696-2.424 1.056-3.792 1.056-2.4 0-4.128-1.176-4.44-3.168h9.024v-.672c0-2.136-.744-4.08-2.496-5.328-.864-.648-1.896-.96-3.096-.96-1.8 0-3.24.6-4.368 1.776-1.128 1.176-1.68 2.664-1.68 4.416zm2.64-1.2c.168-1.536 1.392-2.808 3.288-2.808.96 0 1.704.288 2.256.864.552.576.816 1.224.84 1.944h-6.384zm11.094 1.2c0 1.848.624 3.336 1.872 4.488 1.272 1.152 2.808 1.728 4.632 1.728 1.824 0 3.264-.384 4.344-1.152v-2.184c-1.176.696-2.424 1.056-3.792 1.056-2.4 0-4.128-1.176-4.44-3.168h9.024v-.672c0-2.136-.744-4.08-2.496-5.328-.864-.648-1.896-.96-3.096-.96-1.8 0-3.24.6-4.368 1.776-1.128 1.176-1.68 2.664-1.68 4.416zm2.64-1.2c.168-1.536 1.392-2.808 3.288-2.808.96 0 1.704.288 2.256.864.552.576.816 1.224.84 1.944h-6.384zM259.542 212v-7.224c.552-1.224 2.016-2.304 3.864-2.304.264 0 .504.024.72.048v-2.592c-.072-.024-.144-.024-.24-.024-1.824 0-3.552.984-4.344 2.352v-2.04h-2.592V212h2.592zM139.27 233.496h3.864v-2.28h-3.864v-1.08c0-1.272.6-1.92 1.824-1.92.6 0 1.296.144 2.04.432v-2.184c-.816-.336-1.728-.504-2.76-.504-2.4 0-3.696 1.488-3.696 3.72v1.536h-2.208v2.28h2.208V243h2.592v-9.504zm5.148 3.6c0 1.848.624 3.336 1.872 4.488 1.272 1.152 2.808 1.728 4.632 1.728 1.824 0 3.264-.384 4.344-1.152v-2.184c-1.176.696-2.424 1.056-3.792 1.056-2.4 0-4.128-1.176-4.44-3.168h9.024v-.672c0-2.136-.744-4.08-2.496-5.328-.864-.648-1.896-.96-3.096-.96-1.8 0-3.24.6-4.368 1.776-1.128 1.176-1.68 2.664-1.68 4.416zm2.64-1.2c.168-1.536 1.392-2.808 3.288-2.808.96 0 1.704.288 2.256.864.552.576.816 1.224.84 1.944h-6.384zm11.095 1.2c0 1.848.624 3.336 1.872 4.488 1.272 1.152 2.808 1.728 4.632 1.728 1.824 0 3.264-.384 4.344-1.152v-2.184c-1.176.696-2.424 1.056-3.792 1.056-2.4 0-4.128-1.176-4.44-3.168h9.024v-.672c0-2.136-.744-4.08-2.496-5.328-.864-.648-1.896-.96-3.096-.96-1.8 0-3.24.6-4.368 1.776-1.128 1.176-1.68 2.664-1.68 4.416zm2.64-1.2c.168-1.536 1.392-2.808 3.288-2.808.96 0 1.704.288 2.256.864.552.576.816 1.224.84 1.944h-6.384zm16.806 7.416c1.824 0 3.216-.648 4.2-1.92V243h2.592v-16.8h-2.592v6.624c-.984-1.272-2.376-1.92-4.2-1.92-1.656 0-3.024.6-4.104 1.8-1.08 1.2-1.608 2.664-1.608 4.392 0 1.752.528 3.216 1.608 4.416 1.08 1.2 2.448 1.8 4.104 1.8zm.696-2.28c-1.08 0-1.992-.384-2.712-1.128-.72-.768-1.08-1.704-1.08-2.808 0-1.08.36-2.016 1.08-2.76.72-.768 1.632-1.152 2.712-1.152 1.536 0 2.856.912 3.504 2.088v3.648a3.984 3.984 0 01-3.504 2.112zm16.575 2.28c1.656 0 3.024-.6 4.104-1.8 1.08-1.2 1.608-2.664 1.608-4.416 0-1.728-.528-3.192-1.608-4.392-1.08-1.2-2.448-1.8-4.104-1.8-1.824 0-3.216.648-4.2 1.92V226.2h-2.592V243h2.592v-1.608c.984 1.272 2.376 1.92 4.2 1.92zm-.696-2.28a3.984 3.984 0 01-3.504-2.112v-3.648c.648-1.176 1.968-2.088 3.504-2.088 1.08 0 1.992.384 2.712 1.152.72.744 1.08 1.68 1.08 2.76 0 1.104-.36 2.04-1.08 2.808-.72.744-1.632 1.128-2.712 1.128zm20.32-.048c-.576 0-.984-.432-.984-1.176v-4.392c0-2.88-2.184-4.512-5.448-4.512-1.704 0-3.12.336-4.296 1.008v2.28a6.978 6.978 0 013.72-1.056c2.304 0 3.456.864 3.456 2.568v.648c-1.08-.6-2.352-.912-3.768-.912-1.32 0-2.448.336-3.36 1.032-.912.672-1.368 1.632-1.368 2.88 0 1.224.408 2.208 1.248 2.904.84.696 1.896 1.056 3.168 1.056 1.824 0 3.264-.6 4.344-1.824.312 1.128 1.152 1.68 2.472 1.68.648 0 1.152-.12 1.512-.384v-1.968a1.36 1.36 0 01-.696.168zm-3.552-1.32c-.744.792-2.016 1.416-3.36 1.416-1.512 0-2.544-.624-2.544-1.872 0-1.152 1.032-1.824 2.76-1.824 1.104 0 2.16.288 3.144.84v1.44zm12.328 3.648c1.392 0 2.64-.312 3.768-.96v-2.208c-.984.6-2.112.888-3.36.888-1.176 0-2.16-.36-2.976-1.104-.792-.744-1.2-1.704-1.2-2.832s.408-2.064 1.2-2.808c.816-.744 1.8-1.104 2.976-1.104 1.056 0 2.112.264 3.168.768v-2.232c-1.032-.552-2.232-.816-3.552-.816-1.776 0-3.288.576-4.536 1.728-1.224 1.152-1.848 2.64-1.848 4.44 0 1.824.624 3.312 1.848 4.488 1.248 1.176 2.76 1.752 4.512 1.752zm9.541-.312v-5.328l5.256 5.328h3.552l-6.432-6.504 5.592-5.28h-3.312l-4.656 4.464v-9.48h-2.592V243h2.592z"></path> <defs> <linearGradient id="paint0_linear" x1="168.475" x2="189.188" y1="142.297" y2="171.766" gradientUnits="userSpaceOnUse"> <stop stop-color="#85D5AF"></stop> <stop offset="1" stop-color="#35908D"></stop> </linearGradient> <linearGradient id="paint1_linear" x1="168.475" x2="189.188" y1="142.297" y2="171.766" gradientUnits="userSpaceOnUse"> <stop stop-color="#85D5AF"></stop> <stop offset="1" stop-color="#35908D"></stop> </linearGradient> <clipPath id="clip0"> <path fill="#fff" d="M0 0h48v48H0z" transform="translate(164 127)"></path> </clipPath> <filter id="filter0_ddd" width="380" height="380" x="0" y="0" color-interpolation-filters="sRGB" filterUnits="userSpaceOnUse"> <feFlood flood-opacity="0" result="BackgroundImageFix"></feFlood> <feColorMatrix in="SourceAlpha" values="0 0 0 0 0 0 0 0 0 0 0 0 0 0 0 0 0 0 127 0"></feColorMatrix> <feOffset dx="2"></feOffset> <feGaussianBlur stdDeviation="30"></feGaussianBlur> <feColorMatrix values="0 0 0 0 0.2325 0 0 0 0 0.410454 0 0 0 0 0.45 0 0 0 0.05 0"></feColorMatrix> <feBlend in2="BackgroundImageFix" result="effect1_dropShadow"></feBlend> <feColorMatrix in="SourceAlpha" values="0 0 0 0 0 0 0 0 0 0 0 0 0 0 0 0 0 0 127 0"></feColorMatrix> <feOffset></feOffset> <feGaussianBlur stdDeviation="20"></feGaussianBlur> <feColorMatrix values="0 0 0 0 0.12549 0 0 0 0 0.258824 0 0 0 0 0.286275 0 0 0 0.03 0"></feColorMatrix> <feBlend in2="effect1_dropShadow" result="effect2_dropShadow"></feBlend> <feColorMatrix in="SourceAlpha" values="0 0 0 0 0 0 0 0 0 0 0 0 0 0 0 0 0 0 127 0"></feColorMatrix> <feOffset></feOffset> <feGaussianBlur stdDeviation="10"></feGaussianBlur> <feColorMatrix values="0 0 0 0 0.12549 0 0 0 0 0.258824 0 0 0 0 0.286275 0 0 0 0.02 0"></feColorMatrix> <feBlend in2="effect2_dropShadow" result="effect3_dropShadow"></feBlend> <feBlend in="SourceGraphic" in2="effect3_dropShadow" result="shape"></feBlend> </filter> </defs> </svg> 