<?xml version="1.0" encoding="UTF-8"?> <svg xmlns="http://www.w3.org/2000/svg" width="424" height="215" fill="none" viewBox="0 0 424 215"> <g filter="url(#filter0_d)"> <path fill="#fff" d="M339.525 60.457L83.425 60C70.459 60 60 70.561 60 83.594v15.93c0 11.22 10.458 23.594 23.426 23.594h13.996v27.189c0 3.55 3.756 5.797 6.842 4.134l31.784-31.323 203.477.456c12.968 0 23.477-10.561 23.477-23.594V84.05c0-13.032-10.509-23.593-23.477-23.593z"></path> </g> <g clip-path="url(#clip0)"> <path fill="#fff" d="M84.001 77h28v28h-28z"></path> <path fill="url(#paint0_linear)" d="M98.517 98.046c-.355 0-.71-.125-.982-.396l-3.034-3.15a1.38 1.38 0 010-1.958 1.39 1.39 0 011.964 0l2.052 2.17 11.113-11.084a1.39 1.39 0 011.964 0 1.38 1.38 0 010 1.959L99.499 97.65c-.272.25-.627.396-.982.396z"></path> <path fill="url(#paint1_linear)" d="M92.234 98.046c-.369 0-.738-.125-1.02-.396l-6.79-6.521a1.345 1.345 0 010-1.959 1.482 1.482 0 012.04 0l5.77 5.542 11.54-11.084a1.484 1.484 0 012.04 0 1.345 1.345 0 010 1.959L93.254 97.65c-.283.25-.651.396-1.02.396z"></path> </g> <path fill="#122B29" d="M126.817 95.208c1.872 0 3.552-.784 4.464-1.872v-4.8h-1.76v4.08c-.656.624-1.568.944-2.704.944-1.136 0-2.08-.384-2.864-1.136-.768-.768-1.152-1.776-1.152-3.008s.4-2.224 1.184-3.008c.784-.784 1.792-1.168 3.008-1.168 1.2 0 2.32.352 3.344 1.056v-1.744c-.944-.64-2.096-.96-3.456-.96-1.68 0-3.088.544-4.208 1.648-1.12 1.088-1.68 2.48-1.68 4.16 0 1.68.56 3.072 1.664 4.176 1.12 1.088 2.512 1.632 4.16 1.632zm14.339-1.552c-.384 0-.656-.288-.656-.784v-2.928c0-1.92-1.456-3.008-3.632-3.008-1.136 0-2.08.224-2.864.672v1.52a4.652 4.652 0 012.48-.704c1.536 0 2.304.576 2.304 1.712v.432c-.72-.4-1.568-.608-2.512-.608-.88 0-1.632.224-2.24.688-.608.448-.912 1.088-.912 1.92 0 .816.272 1.472.832 1.936.56.464 1.264.704 2.112.704 1.216 0 2.176-.4 2.896-1.216.208.752.768 1.12 1.648 1.12.432 0 .768-.08 1.008-.256v-1.312a.906.906 0 01-.464.112zm-2.368-.88c-.496.528-1.344.944-2.24.944-1.008 0-1.696-.416-1.696-1.248 0-.768.688-1.216 1.84-1.216.736 0 1.44.192 2.096.56v.96zm5.199.08c0 1.536.928 2.352 2.4 2.352.784 0 1.376-.128 1.744-.384v-1.488a2.492 2.492 0 01-1.184.288c-.832 0-1.232-.368-1.232-1.264v-3.696h2.48v-1.52h-2.48v-2.288h-1.728v2.288h-1.68v1.52h1.68v4.192zm7.881-3.024c.448-.72 1.344-1.28 2.224-1.28.496 0 .928.144 1.296.448.368.304.544.832.544 1.584V95h1.728v-4.8c0-2.032-1.056-3.264-2.912-3.264-1.152 0-2.112.416-2.88 1.248V83.8h-1.728V95h1.728v-5.168zm7.54 1.232c0 1.232.416 2.224 1.248 2.992.848.768 1.872 1.152 3.088 1.152s2.176-.256 2.896-.768v-1.456a4.86 4.86 0 01-2.528.704c-1.6 0-2.752-.784-2.96-2.112h6.016v-.448c0-1.424-.496-2.72-1.664-3.552-.576-.432-1.264-.64-2.064-.64-1.2 0-2.16.4-2.912 1.184-.752.784-1.12 1.776-1.12 2.944zm1.76-.8c.112-1.024.928-1.872 2.192-1.872.64 0 1.136.192 1.504.576.368.384.544.816.56 1.296h-4.256zM170.852 95v-4.816c.368-.816 1.344-1.536 2.576-1.536.176 0 .336.016.48.032v-1.728c-.048-.016-.096-.016-.16-.016-1.216 0-2.368.656-2.896 1.568v-1.36h-1.728V95h1.728zm8.228-3.936c0 1.232.416 2.224 1.248 2.992.848.768 1.872 1.152 3.088 1.152s2.176-.256 2.896-.768v-1.456a4.86 4.86 0 01-2.528.704c-1.6 0-2.752-.784-2.96-2.112h6.016v-.448c0-1.424-.496-2.72-1.664-3.552-.576-.432-1.264-.64-2.064-.64-1.2 0-2.16.4-2.912 1.184-.752.784-1.12 1.776-1.12 2.944zm1.76-.8c.112-1.024.928-1.872 2.192-1.872.64 0 1.136.192 1.504.576.368.384.544.816.56 1.296h-4.256zM190.524 95v-5.184c.384-.72 1.216-1.264 2.032-1.264 1.072 0 1.616.64 1.616 1.936V95h1.728v-5.136c.336-.752 1.184-1.312 2.016-1.312 1.072 0 1.6.64 1.6 1.936V95h1.728v-4.912c0-2.048-1.056-3.152-2.784-3.152-1.264 0-2.304.592-2.864 1.408-.336-.832-1.248-1.408-2.48-1.408-1.136 0-2 .416-2.592 1.232v-1.024h-1.728V95h1.728zm17.55-8.064c-1.216 0-2.144.432-2.8 1.28v-1.072h-1.728V98.2h1.728v-4.272c.656.848 1.584 1.28 2.8 1.28 1.104 0 2.016-.4 2.736-1.2.72-.8 1.072-1.776 1.072-2.928 0-1.168-.352-2.144-1.072-2.944-.72-.8-1.632-1.2-2.736-1.2zm-.464 1.52c.72 0 1.328.256 1.808.768.48.496.72 1.12.72 1.856 0 .72-.24 1.344-.72 1.856-.48.496-1.088.752-1.808.752-1.024 0-1.904-.608-2.336-1.392v-2.432a2.656 2.656 0 012.336-1.408zm8.138 6.752c.512 0 .944-.08 1.28-.256v-1.488c-.192.112-.416.16-.656.16-.576 0-.864-.32-.864-.96V83.8h-1.728v9.344c0 1.488.832 2.064 1.968 2.064zm6.683-1.52c-.752 0-1.36-.256-1.856-.752s-.736-1.12-.736-1.872c0-.736.24-1.36.736-1.856s1.12-.752 1.856-.752 1.344.256 1.84.752.736 1.12.736 1.856c0 .752-.24 1.376-.736 1.872-.496.496-1.104.752-1.84.752zm0 1.52c1.248 0 2.272-.4 3.088-1.2.816-.816 1.216-1.792 1.216-2.944s-.4-2.128-1.216-2.928c-.816-.8-1.84-1.2-3.088-1.2-1.264 0-2.288.4-3.104 1.2-.816.8-1.216 1.776-1.216 2.928 0 1.168.4 2.144 1.216 2.944.816.8 1.84 1.2 3.104 1.2zm6.837 3.072c1.296 0 2.288-.816 2.992-2.432l3.76-8.704h-1.872l-2.288 5.536-2.368-5.536h-1.92l3.44 7.568c-.592 1.408-1.136 2.048-2.032 2.048-.4 0-.784-.08-1.136-.256v1.52c.304.176.768.256 1.424.256zm7.53-7.216c0 1.232.416 2.224 1.248 2.992.848.768 1.872 1.152 3.088 1.152s2.176-.256 2.896-.768v-1.456a4.86 4.86 0 01-2.528.704c-1.6 0-2.752-.784-2.96-2.112h6.016v-.448c0-1.424-.496-2.72-1.664-3.552-.576-.432-1.264-.64-2.064-.64-1.2 0-2.16.4-2.912 1.184-.752.784-1.12 1.776-1.12 2.944zm1.76-.8c.112-1.024.928-1.872 2.192-1.872.64 0 1.136.192 1.504.576.368.384.544.816.56 1.296h-4.256zm7.397.8c0 1.232.416 2.224 1.248 2.992.848.768 1.872 1.152 3.088 1.152s2.176-.256 2.896-.768v-1.456a4.86 4.86 0 01-2.528.704c-1.6 0-2.752-.784-2.96-2.112h6.016v-.448c0-1.424-.496-2.72-1.664-3.552-.576-.432-1.264-.64-2.064-.64-1.2 0-2.16.4-2.912 1.184-.752.784-1.12 1.776-1.12 2.944zm1.76-.8c.112-1.024.928-1.872 2.192-1.872.64 0 1.136.192 1.504.576.368.384.544.816.56 1.296h-4.256zm10.756 4.944c2.048 0 3.424-.96 3.424-2.384 0-1.248-.896-2.08-2.688-2.48l-.912-.192c-.208-.064-.576-.16-.752-.24-.288-.144-.496-.32-.496-.624 0-.512.544-.864 1.616-.864.944 0 1.888.272 2.832.8V87.64c-.72-.464-1.696-.704-2.896-.704-2.096 0-3.328.88-3.328 2.304 0 1.36.848 2 2.64 2.448l.976.24c.24.064.576.16.752.24.288.144.48.32.48.624 0 .576-.64.928-1.728.928-1.216 0-2.288-.32-3.2-.944v1.632c.688.464 1.952.8 3.28.8zm11.88-6.544h2.576v-1.52h-2.576v-.72c0-.848.4-1.28 1.216-1.28.4 0 .864.096 1.36.288v-1.456c-.544-.224-1.152-.336-1.84-.336-1.6 0-2.464.992-2.464 2.48v1.024h-1.472v1.52h1.472V95h1.728v-6.336zm3.432 2.4c0 1.232.416 2.224 1.248 2.992.848.768 1.872 1.152 3.088 1.152s2.176-.256 2.896-.768v-1.456a4.86 4.86 0 01-2.528.704c-1.6 0-2.752-.784-2.96-2.112h6.016v-.448c0-1.424-.496-2.72-1.664-3.552-.576-.432-1.264-.64-2.064-.64-1.2 0-2.16.4-2.912 1.184-.752.784-1.12 1.776-1.12 2.944zm1.76-.8c.112-1.024.928-1.872 2.192-1.872.64 0 1.136.192 1.504.576.368.384.544.816.56 1.296h-4.256zm7.396.8c0 1.232.416 2.224 1.248 2.992.848.768 1.872 1.152 3.088 1.152s2.176-.256 2.896-.768v-1.456a4.86 4.86 0 01-2.528.704c-1.6 0-2.752-.784-2.96-2.112h6.016v-.448c0-1.424-.496-2.72-1.664-3.552-.576-.432-1.264-.64-2.064-.64-1.2 0-2.16.4-2.912 1.184-.752.784-1.12 1.776-1.12 2.944zm1.76-.8c.112-1.024.928-1.872 2.192-1.872.64 0 1.136.192 1.504.576.368.384.544.816.56 1.296h-4.256zm11.204 4.944c1.216 0 2.144-.432 2.8-1.28V95h1.728V83.8h-1.728v4.416c-.656-.848-1.584-1.28-2.8-1.28-1.104 0-2.016.4-2.736 1.2-.72.8-1.072 1.776-1.072 2.928 0 1.168.352 2.144 1.072 2.944.72.8 1.632 1.2 2.736 1.2zm.464-1.52c-.72 0-1.328-.256-1.808-.752-.48-.512-.72-1.136-.72-1.872 0-.72.24-1.344.72-1.84.48-.512 1.088-.768 1.808-.768 1.024 0 1.904.608 2.336 1.392v2.432a2.656 2.656 0 01-2.336 1.408zm11.051 1.52c1.104 0 2.016-.4 2.736-1.2.72-.8 1.072-1.776 1.072-2.944 0-1.152-.352-2.128-1.072-2.928-.72-.8-1.632-1.2-2.736-1.2-1.216 0-2.144.432-2.8 1.28V83.8h-1.728V95h1.728v-1.072c.656.848 1.584 1.28 2.8 1.28zm-.464-1.52a2.656 2.656 0 01-2.336-1.408v-2.432c.432-.784 1.312-1.392 2.336-1.392.72 0 1.328.256 1.808.768.48.496.72 1.12.72 1.84 0 .736-.24 1.36-.72 1.872-.48.496-1.088.752-1.808.752zm13.546-.032c-.384 0-.656-.288-.656-.784v-2.928c0-1.92-1.456-3.008-3.632-3.008-1.136 0-2.08.224-2.864.672v1.52a4.652 4.652 0 012.48-.704c1.536 0 2.304.576 2.304 1.712v.432c-.72-.4-1.568-.608-2.512-.608-.88 0-1.632.224-2.24.688-.608.448-.912 1.088-.912 1.92 0 .816.272 1.472.832 1.936.56.464 1.264.704 2.112.704 1.216 0 2.176-.4 2.896-1.216.208.752.768 1.12 1.648 1.12.432 0 .768-.08 1.008-.256v-1.312a.906.906 0 01-.464.112zm-2.368-.88c-.496.528-1.344.944-2.24.944-1.008 0-1.696-.416-1.696-1.248 0-.768.688-1.216 1.84-1.216.736 0 1.44.192 2.096.56v.96zm8.219 2.432c.928 0 1.76-.208 2.512-.64v-1.472c-.656.4-1.408.592-2.24.592-.784 0-1.44-.24-1.984-.736-.528-.496-.8-1.136-.8-1.888s.272-1.376.8-1.872c.544-.496 1.2-.736 1.984-.736.704 0 1.408.176 2.112.512V87.48c-.688-.368-1.488-.544-2.368-.544-1.184 0-2.192.384-3.024 1.152-.816.768-1.232 1.76-1.232 2.96 0 1.216.416 2.208 1.232 2.992.832.784 1.84 1.168 3.008 1.168zm6.36-.208v-3.552L336.215 95h2.368l-4.288-4.336 3.728-3.52h-2.208l-3.104 2.976V83.8h-1.728V95h1.728z"></path> <defs> <linearGradient id="paint0_linear" x1="85.239" x2="98.291" y1="87.29" y2="103.559" gradientUnits="userSpaceOnUse"> <stop stop-color="#FFD888"></stop> <stop offset="1" stop-color="#E94B4F"></stop> </linearGradient> <linearGradient id="paint1_linear" x1="85.239" x2="98.291" y1="87.29" y2="103.559" gradientUnits="userSpaceOnUse"> <stop stop-color="#FFD888"></stop> <stop offset="1" stop-color="#E94B4F"></stop> </linearGradient> <clipPath id="clip0"> <path fill="#fff" d="M0 0h28v28H0z" transform="translate(84.001 77)"></path> </clipPath> <filter id="filter0_d" width="423.002" height="215" x="0" y="0" color-interpolation-filters="sRGB" filterUnits="userSpaceOnUse"> <feFlood flood-opacity="0" result="BackgroundImageFix"></feFlood> <feColorMatrix in="SourceAlpha" values="0 0 0 0 0 0 0 0 0 0 0 0 0 0 0 0 0 0 127 0"></feColorMatrix> <feOffset></feOffset> <feGaussianBlur stdDeviation="30"></feGaussianBlur> <feColorMatrix values="0 0 0 0 0.0807107 0 0 0 0 0.219289 0 0 0 0 0.214721 0 0 0 0.1 0"></feColorMatrix> <feBlend in2="BackgroundImageFix" result="effect1_dropShadow"></feBlend> <feBlend in="SourceGraphic" in2="effect1_dropShadow" result="shape"></feBlend> </filter> </defs> </svg> 