<?xml version="1.0" encoding="UTF-8"?> <svg xmlns="http://www.w3.org/2000/svg" width="444" height="215" fill="none" viewBox="0 0 444 215"> <g filter="url(#filter0_d)"> <path fill="#fff" d="M360.486 60l-276.972.5C70.525 60.5 60 71.046 60 84.062V99.97c0 11.206 10.525 23.563 23.514 23.563l14.095-.375v27.154c0 3.546 3.762 5.79 6.852 4.129l31.834-31.283 224.191-.124c12.989 0 23.514-10.547 23.514-23.563V83.563C384 70.547 373.475 60 360.486 60z"></path> </g> <g clip-path="url(#clip0)"> <path fill="#fff" d="M86 77h28v28H86z"></path> <path fill="url(#paint0_linear)" d="M100.516 98.046c-.355 0-.71-.125-.982-.396L96.5 94.5a1.38 1.38 0 010-1.958 1.39 1.39 0 011.963 0l2.053 2.17 11.113-11.083a1.39 1.39 0 011.964 0 1.38 1.38 0 010 1.958L101.498 97.65a1.47 1.47 0 01-.982.396z"></path> <path fill="url(#paint1_linear)" d="M94.233 98.046c-.37 0-.738-.125-1.02-.396l-6.79-6.521a1.345 1.345 0 010-1.958 1.483 1.483 0 012.04 0l5.77 5.541 11.54-11.083a1.482 1.482 0 012.039 0 1.345 1.345 0 010 1.958L95.252 97.65c-.282.25-.65.396-1.02.396z"></path> </g> <path fill="#122B29" d="M127.344 95c1.808 0 3.264-.512 4.4-1.552 1.136-1.04 1.712-2.4 1.712-4.048 0-1.648-.576-2.992-1.712-4.032-1.136-1.04-2.592-1.568-4.4-1.568h-3.952V95h3.952zm-2.192-9.584h2.032c1.392 0 2.496.352 3.28 1.072.784.72 1.184 1.68 1.184 2.912s-.4 2.192-1.184 2.912c-.784.72-1.888 1.072-3.28 1.072h-2.032v-7.968zM137.413 95v-4.816c.368-.816 1.344-1.536 2.576-1.536.176 0 .336.016.48.032v-1.728c-.048-.016-.096-.016-.16-.016-1.216 0-2.368.656-2.896 1.568v-1.36h-1.728V95h1.728zm6.504 0v-7.856h-1.728V95h1.728zm-.864-9.264c.592 0 1.072-.464 1.072-1.088 0-.624-.48-1.104-1.072-1.104-.624 0-1.088.48-1.088 1.104a1.06 1.06 0 001.088 1.088zm7.652 9.328l3.52-7.92h-1.84l-2.416 5.68-2.448-5.68h-1.904l3.52 7.92h1.568zm4.373-4c0 1.232.416 2.224 1.248 2.992.848.768 1.872 1.152 3.088 1.152s2.176-.256 2.896-.768v-1.456a4.86 4.86 0 01-2.528.704c-1.6 0-2.752-.784-2.96-2.112h6.016v-.448c0-1.424-.496-2.72-1.664-3.552-.576-.432-1.264-.64-2.064-.64-1.2 0-2.16.4-2.912 1.184-.752.784-1.12 1.776-1.12 2.944zm1.76-.8c.112-1.024.928-1.872 2.192-1.872.64 0 1.136.192 1.504.576.368.384.544.816.56 1.296h-4.256zm14.081 4.944c.512 0 .944-.08 1.28-.256v-1.488c-.192.112-.416.16-.656.16-.576 0-.864-.32-.864-.96V83.8h-1.728v9.344c0 1.488.832 2.064 1.968 2.064zm6.682-1.52c-.752 0-1.36-.256-1.856-.752s-.736-1.12-.736-1.872c0-.736.24-1.36.736-1.856s1.12-.752 1.856-.752 1.344.256 1.84.752.736 1.12.736 1.856c0 .752-.24 1.376-.736 1.872-.496.496-1.104.752-1.84.752zm0 1.52c1.248 0 2.272-.4 3.088-1.2.816-.816 1.216-1.792 1.216-2.944s-.4-2.128-1.216-2.928c-.816-.8-1.84-1.2-3.088-1.2-1.264 0-2.288.4-3.104 1.2-.816.8-1.216 1.776-1.216 2.928 0 1.168.4 2.144 1.216 2.944.816.8 1.84 1.2 3.104 1.2zm6.837 3.072c1.296 0 2.288-.816 2.992-2.432l3.76-8.704h-1.872l-2.288 5.536-2.368-5.536h-1.92l3.44 7.568c-.592 1.408-1.136 2.048-2.032 2.048-.4 0-.784-.08-1.136-.256v1.52c.304.176.768.256 1.424.256zm15.561-4.624c-.384 0-.656-.288-.656-.784v-2.928c0-1.92-1.456-3.008-3.632-3.008-1.136 0-2.08.224-2.864.672v1.52a4.652 4.652 0 012.48-.704c1.536 0 2.304.576 2.304 1.712v.432c-.72-.4-1.568-.608-2.512-.608-.88 0-1.632.224-2.24.688-.608.448-.912 1.088-.912 1.92 0 .816.272 1.472.832 1.936.56.464 1.264.704 2.112.704 1.216 0 2.176-.4 2.896-1.216.208.752.768 1.12 1.648 1.12.432 0 .768-.08 1.008-.256v-1.312a.906.906 0 01-.464.112zm-2.368-.88c-.496.528-1.344.944-2.24.944-1.008 0-1.696-.416-1.696-1.248 0-.768.688-1.216 1.84-1.216.736 0 1.44.192 2.096.56v.96zm6.507 2.432c.512 0 .944-.08 1.28-.256v-1.488c-.192.112-.416.16-.656.16-.576 0-.864-.32-.864-.96V83.8h-1.728v9.344c0 1.488.832 2.064 1.968 2.064zm3.566-2.352c0 1.536.928 2.352 2.4 2.352.784 0 1.376-.128 1.744-.384v-1.488a2.492 2.492 0 01-1.184.288c-.832 0-1.232-.368-1.232-1.264v-3.696h2.48v-1.52h-2.48v-2.288h-1.728v2.288h-1.68v1.52h1.68v4.192zm6.953 5.424c1.296 0 2.288-.816 2.992-2.432l3.76-8.704h-1.872l-2.288 5.536-2.368-5.536h-1.92l3.44 7.568c-.592 1.408-1.136 2.048-2.032 2.048-.4 0-.784-.08-1.136-.256v1.52c.304.176.768.256 1.424.256zm19.873-4.624c-.384 0-.656-.288-.656-.784v-2.928c0-1.92-1.456-3.008-3.632-3.008-1.136 0-2.08.224-2.864.672v1.52a4.652 4.652 0 012.48-.704c1.536 0 2.304.576 2.304 1.712v.432c-.72-.4-1.568-.608-2.512-.608-.88 0-1.632.224-2.24.688-.608.448-.912 1.088-.912 1.92 0 .816.272 1.472.832 1.936.56.464 1.264.704 2.112.704 1.216 0 2.176-.4 2.896-1.216.208.752.768 1.12 1.648 1.12.432 0 .768-.08 1.008-.256v-1.312a.906.906 0 01-.464.112zm-2.368-.88c-.496.528-1.344.944-2.24.944-1.008 0-1.696-.416-1.696-1.248 0-.768.688-1.216 1.84-1.216.736 0 1.44.192 2.096.56v.96zm6.267-2.944c.448-.72 1.344-1.28 2.224-1.28 1.024 0 1.84.496 1.84 2.032V95h1.728v-4.8c0-2.032-1.056-3.264-2.912-3.264-1.152 0-2.112.416-2.88 1.248v-1.04h-1.728V95h1.728v-5.168zm11.348 5.376c1.216 0 2.144-.432 2.8-1.28V95h1.728V83.8h-1.728v4.416c-.656-.848-1.584-1.28-2.8-1.28-1.104 0-2.016.4-2.736 1.2-.72.8-1.072 1.776-1.072 2.928 0 1.168.352 2.144 1.072 2.944.72.8 1.632 1.2 2.736 1.2zm.464-1.52c-.72 0-1.328-.256-1.808-.752-.48-.512-.72-1.136-.72-1.872 0-.72.24-1.344.72-1.84.48-.512 1.088-.768 1.808-.768 1.024 0 1.904.608 2.336 1.392v2.432a2.656 2.656 0 01-2.336 1.408zm10.119-2.624c0 1.232.416 2.224 1.248 2.992.848.768 1.872 1.152 3.088 1.152s2.176-.256 2.896-.768v-1.456a4.86 4.86 0 01-2.528.704c-1.6 0-2.752-.784-2.96-2.112h6.016v-.448c0-1.424-.496-2.72-1.664-3.552-.576-.432-1.264-.64-2.065-.64-1.199 0-2.159.4-2.911 1.184-.752.784-1.12 1.776-1.12 2.944zm1.76-.8c.112-1.024.928-1.872 2.192-1.872.64 0 1.136.192 1.504.576.368.384.544.816.56 1.296h-4.256zm9.684-.432c.448-.72 1.344-1.28 2.224-1.28 1.024 0 1.84.496 1.84 2.032V95h1.728v-4.8c0-2.032-1.056-3.264-2.912-3.264-1.152 0-2.112.416-2.88 1.248v-1.04h-1.728V95h1.728v-5.168zm14.148-1.664c-.64-.816-1.568-1.232-2.8-1.232-1.104 0-2.016.384-2.736 1.168-.72.768-1.072 1.712-1.072 2.832 0 1.136.352 2.08 1.072 2.864.72.784 1.632 1.168 2.736 1.168 1.2 0 2.144-.416 2.8-1.232v.592c0 1.68-1.216 2.432-2.88 2.432-1.072 0-2.032-.256-2.88-.768v1.584c.816.464 1.84.704 3.072.704s2.272-.336 3.12-1.024c.864-.688 1.296-1.664 1.296-2.96v-7.152h-1.728v1.024zm-2.336 5.28c-.72 0-1.328-.24-1.808-.72s-.72-1.072-.72-1.776.24-1.296.72-1.776 1.088-.72 1.808-.72c1.024 0 1.936.544 2.336 1.36v2.288c-.4.784-1.312 1.344-2.336 1.344zm13.851.208c-.384 0-.656-.288-.656-.784v-2.928c0-1.92-1.456-3.008-3.632-3.008-1.136 0-2.08.224-2.864.672v1.52a4.652 4.652 0 012.48-.704c1.536 0 2.304.576 2.304 1.712v.432c-.72-.4-1.568-.608-2.512-.608-.88 0-1.632.224-2.24.688-.608.448-.912 1.088-.912 1.92 0 .816.272 1.472.832 1.936.56.464 1.264.704 2.112.704 1.216 0 2.176-.4 2.896-1.216.208.752.768 1.12 1.648 1.12.432 0 .768-.08 1.008-.256v-1.312a.906.906 0 01-.464.112zm-2.368-.88c-.496.528-1.344.944-2.24.944-1.008 0-1.696-.416-1.696-1.248 0-.768.688-1.216 1.84-1.216.736 0 1.44.192 2.096.56v.96zm10.587-4.608c-.64-.816-1.568-1.232-2.8-1.232-1.104 0-2.016.384-2.736 1.168-.72.768-1.072 1.712-1.072 2.832 0 1.136.352 2.08 1.072 2.864.72.784 1.632 1.168 2.736 1.168 1.2 0 2.144-.416 2.8-1.232v.592c0 1.68-1.216 2.432-2.88 2.432-1.072 0-2.032-.256-2.88-.768v1.584c.816.464 1.84.704 3.072.704s2.272-.336 3.12-1.024c.864-.688 1.296-1.664 1.296-2.96v-7.152h-1.728v1.024zm-2.336 5.28c-.72 0-1.328-.24-1.808-.72s-.72-1.072-.72-1.776.24-1.296.72-1.776 1.088-.72 1.808-.72c1.024 0 1.936.544 2.336 1.36v2.288c-.4.784-1.312 1.344-2.336 1.344zm5.916-2.384c0 1.232.416 2.224 1.248 2.992.848.768 1.872 1.152 3.088 1.152s2.176-.256 2.896-.768v-1.456a4.86 4.86 0 01-2.528.704c-1.6 0-2.752-.784-2.96-2.112h6.016v-.448c0-1.424-.496-2.72-1.664-3.552-.576-.432-1.264-.64-2.064-.64-1.2 0-2.16.4-2.912 1.184-.752.784-1.12 1.776-1.12 2.944zm1.76-.8c.112-1.024.928-1.872 2.192-1.872.64 0 1.136.192 1.504.576.368.384.544.816.56 1.296h-4.256zM320.71 95v-5.184c.384-.72 1.216-1.264 2.032-1.264 1.072 0 1.616.64 1.616 1.936V95h1.728v-5.136c.336-.752 1.184-1.312 2.016-1.312 1.072 0 1.6.64 1.6 1.936V95h1.728v-4.912c0-2.048-1.056-3.152-2.784-3.152-1.264 0-2.304.592-2.864 1.408-.336-.832-1.248-1.408-2.48-1.408-1.136 0-2 .416-2.592 1.232v-1.024h-1.728V95h1.728zm12.462-3.936c0 1.232.416 2.224 1.248 2.992.848.768 1.872 1.152 3.088 1.152s2.176-.256 2.896-.768v-1.456a4.86 4.86 0 01-2.528.704c-1.6 0-2.752-.784-2.96-2.112h6.016v-.448c0-1.424-.496-2.72-1.664-3.552-.576-.432-1.264-.64-2.064-.64-1.2 0-2.16.4-2.912 1.184-.752.784-1.12 1.776-1.12 2.944zm1.76-.8c.112-1.024.928-1.872 2.192-1.872.64 0 1.136.192 1.504.576.368.384.544.816.56 1.296h-4.256zm9.684-.432c.448-.72 1.344-1.28 2.224-1.28 1.024 0 1.84.496 1.84 2.032V95h1.728v-4.8c0-2.032-1.056-3.264-2.912-3.264-1.152 0-2.112.416-2.88 1.248v-1.04h-1.728V95h1.728v-5.168zm8.916 3.024c0 1.536.928 2.352 2.4 2.352.784 0 1.376-.128 1.744-.384v-1.488a2.492 2.492 0 01-1.184.288c-.832 0-1.232-.368-1.232-1.264v-3.696h2.48v-1.52h-2.48v-2.288h-1.728v2.288h-1.68v1.52h1.68v4.192z"></path> <defs> <linearGradient id="paint0_linear" x1="87.238" x2="100.289" y1="87.29" y2="103.559" gradientUnits="userSpaceOnUse"> <stop stop-color="#FFD888"></stop> <stop offset="1" stop-color="#E94B4F"></stop> </linearGradient> <linearGradient id="paint1_linear" x1="87.238" x2="100.289" y1="87.29" y2="103.559" gradientUnits="userSpaceOnUse"> <stop stop-color="#FFD888"></stop> <stop offset="1" stop-color="#E94B4F"></stop> </linearGradient> <clipPath id="clip0"> <path fill="#fff" d="M0 0h28v28H0z" transform="translate(86 77)"></path> </clipPath> <filter id="filter0_d" width="444" height="215" x="0" y="0" color-interpolation-filters="sRGB" filterUnits="userSpaceOnUse"> <feFlood flood-opacity="0" result="BackgroundImageFix"></feFlood> <feColorMatrix in="SourceAlpha" values="0 0 0 0 0 0 0 0 0 0 0 0 0 0 0 0 0 0 127 0"></feColorMatrix> <feOffset></feOffset> <feGaussianBlur stdDeviation="30"></feGaussianBlur> <feColorMatrix values="0 0 0 0 0.0807107 0 0 0 0 0.219289 0 0 0 0 0.214721 0 0 0 0.1 0"></feColorMatrix> <feBlend in2="BackgroundImageFix" result="effect1_dropShadow"></feBlend> <feBlend in="SourceGraphic" in2="effect1_dropShadow" result="shape"></feBlend> </filter> </defs> </svg> 