<?xml version="1.0" encoding="UTF-8"?> <svg xmlns="http://www.w3.org/2000/svg" width="162" height="76" viewBox="0 0 162 76" fill="none"> <g clip-path="url(#clip0)"> <path d="M82.6709 46.0235L88.6069 26.3531H82.7623V23.063H94.0442V26.3426L88.1127 45.9549H94.3463V49.3377H82.6709V46.0235Z" fill="#0070BA"></path> <path d="M67.2629 49.3377H72.2327L72.7048 42.3543H75.0995L75.5697 49.3377H80.5381L77.8879 23.0623H69.9106L67.2629 49.3377ZM72.8831 39.4649L73.7553 26.3216H74.0451L74.9147 39.4649H72.8831Z" fill="#0070BA"></path> <path d="M97.2041 49.338H102.282V40.407H105.182C108.736 40.407 109.3 37.5522 109.3 35.7104V27.7578C109.3 25.9154 108.736 23.0632 105.182 23.0632H97.2041V49.338ZM102.282 37.513V26.3239H103.614C104.161 26.3239 104.558 26.8101 104.558 27.6297V36.2013C104.558 37.0287 104.161 37.513 103.614 37.513H102.282Z" fill="#0070BA"></path> <path d="M117.251 26.3242H118.585C119.135 26.3242 119.53 26.8085 119.53 27.63V36.2016C119.53 37.029 119.135 37.5133 118.585 37.5133H117.251V26.3242ZM125.176 49.3377L122.724 39.6505C124.006 38.676 124.271 36.9617 124.271 35.7082V27.7595C124.271 25.9151 123.706 23.0623 120.15 23.0623H112.172V49.3377H117.251V40.4067H118.087L119.746 49.3377H125.176V49.3377Z" fill="#0070BA"></path> <path d="M155.758 23.063H162.36V49.3377H157.278V32.8593H157.099L154.484 49.3377H150.429L147.815 32.8593H147.635V49.3377H142.555V23.063H149.153L152.452 41.5309L155.758 23.063Z" fill="#0070BA"></path> <path d="M133.455 46.0895C132.833 46.0895 132.332 45.6242 132.332 45.0471C132.332 45.034 132.333 45.0216 132.333 45.0085V27.3948V27.3158L132.338 27.2452C132.398 26.7217 132.875 26.3112 133.455 26.3112C134.036 26.3112 134.515 26.721 134.575 27.2452L134.579 27.3158V27.3948V45.0092C134.579 45.0222 134.579 45.0347 134.579 45.0477C134.579 45.6242 134.077 46.0895 133.455 46.0895ZM135.559 23.063H131.352C127.793 23.063 127.584 25.9152 127.584 27.7576V44.6406C127.584 46.4849 127.793 49.3384 131.352 49.3384H135.559C139.11 49.3384 139.327 46.4849 139.327 44.6406V27.7576C139.327 25.9152 139.11 23.063 135.559 23.063Z" fill="#0070BA"></path> <path d="M59.728 31.4104H64.4773V27.7576C64.4773 25.9152 64.2607 23.063 60.7059 23.063H56.5C52.9439 23.063 52.7312 25.9152 52.7312 27.7576V44.6406C52.7312 46.4836 52.9432 49.3384 56.5 49.3384H60.7059C64.2607 49.3384 64.4773 46.4836 64.4773 44.6406V36.3814H58.4V39.3447H59.728V45.0092C59.728 45.0222 59.7293 45.0347 59.7293 45.0477C59.7293 45.6222 59.2255 46.0902 58.6056 46.0902C57.9843 46.0902 57.4824 45.6222 57.4824 45.0477C57.4824 45.0347 57.4831 45.0222 57.4831 45.0092V27.3968V27.3158L57.4876 27.2452C57.546 26.7217 58.0239 26.3112 58.6056 26.3112C59.1866 26.3112 59.6625 26.721 59.7222 27.2452L59.728 27.3158V27.3968V31.4104Z" fill="#0070BA"></path> <path d="M157.756 63.0968H155.72V72.3664H153.168V63.0968H150.99V60.9361H157.757V63.0968H157.756ZM126.791 63.0968H123.118V65.3451H126.405V67.5084H123.118V72.3664H120.345V60.9361H126.791V63.0968V63.0968ZM95.8943 63.0968H92.2234V65.3451H95.5104V67.5084H92.2234V70.1985H95.8943V72.3657H89.4512V60.9361H95.8943V63.0968ZM64.6018 72.3657H61.9223L59.5328 65.4072H59.5179C59.6443 66.6169 59.9815 68.4332 59.9815 69.6573V72.3664H57.3371V60.9361H60.0139L62.3717 68.1129H62.3873C62.3075 66.8385 61.9554 65.0438 61.9554 63.7844V60.9361H64.6018V72.3657ZM162.36 58.0977H52.7344V75.6205H162.36V58.0977Z" fill="#0070BA"></path> <path d="M41.9285 25.7276C41.8669 28.3922 41.5472 31.2072 41.1419 32.8849C41.2865 29.9882 40.9389 25.9002 40.2665 22.7121C39.5999 19.5168 37.7077 14.1961 36.1981 11.7262C34.8045 14.0745 33.0835 18.6887 32.1854 22.68C31.2808 26.6851 31.2523 31.53 31.2523 32.977C31.0137 31.749 30.4132 27.3903 30.5844 23.0055C30.7251 19.3847 31.5746 15.6712 32.0402 13.9588C33.8124 8.24597 35.8213 4.5971 36.1987 4.02C36.5768 4.5971 39.1051 9.09104 40.4156 13.8137C41.7203 18.5403 41.9836 23.063 41.9285 25.7276ZM36.2279 46.1255C35.442 44.6491 34.2203 41.8361 34.1016 37.4991C34.0744 33.2966 35.7584 29.6941 36.2519 28.9478C36.6935 29.6941 38.1441 32.8313 38.3179 37.12C38.4346 41.3152 37.0417 44.6171 36.2279 46.1255ZM42.3921 13.8712C40.7943 6.88394 36.7791 1.209 36.2279 0.27832C35.3538 1.5848 32.1517 6.59571 30.528 12.1654C28.7519 18.3671 28.4912 23.8702 29.1046 29.2915C29.7129 34.7109 32.0097 40.2767 32.0097 40.2767C33.2314 43.1975 35.062 46.3262 36.2519 47.8627C37.9975 45.6033 42.0141 38.8578 43.2643 30.0431C43.9601 25.1486 43.9899 20.8599 42.3921 13.8712Z" fill="#0070BA"></path> <path d="M26.409 49.3378V57.6002C26.4174 57.5911 26.4278 57.576 26.4421 57.5656C29.3374 54.6919 34.04 54.6919 36.9386 57.5656C39.8385 60.4439 39.8385 65.1156 36.9386 67.988C36.925 68.0018 36.9153 68.0116 36.8997 68.0246C36.8997 68.0273 36.8997 68.0273 36.8997 68.0273C36.8874 68.0397 36.8712 68.0547 36.8556 68.0678C33.9674 70.9141 30.1888 72.3389 26.4096 72.3389C22.6142 72.3389 18.8214 70.899 15.9209 68.0292C10.8214 62.9641 10.2151 55.1245 14.1045 49.4019C14.6291 48.6293 15.2322 47.8954 15.9209 47.2098C18.8214 44.3367 22.6142 42.906 26.4096 42.906V23.1951C11.8239 23.1951 0 34.9345 0 49.4019C0 63.8836 11.8239 75.6204 26.409 75.6204C34.016 75.6204 40.8637 72.4251 45.6798 67.3247V49.3378H26.409Z" fill="#0070BA"></path> </g> <defs> <clipPath id="clip0"> <rect width="162" height="76" fill="white"></rect> </clipPath> </defs> </svg> 