<?xml version="1.0" encoding="UTF-8"?> <svg xmlns="http://www.w3.org/2000/svg" width="444" height="444" fill="none" viewBox="0 0 444 444"> <path fill="#EBECEC" d="M220.936 246.912l.266.423-.266-.423zm218.694 3.802a.501.501 0 00.323-.629l-1.374-4.285a.5.5 0 00-.952.305l1.221 3.809-3.809 1.222a.5.5 0 10.305.952l4.286-1.374zM1 195.001l-.334.372.003.003.01.008.037.034.147.13a175.227 175.227 0 002.842 2.444l.644-.764a184.867 184.867 0 01-2.823-2.428l-.144-.129-.036-.032a.073.073 0 01-.009-.008l-.002-.002-.335.372zm8.921 8.064a336.92 336.92 0 006.385 4.937l.603-.798a333.111 333.111 0 01-6.366-4.923l-.622.784zm12.86 9.71c2.07 1.49 4.265 3.038 6.577 4.627l.566-.824a369.715 369.715 0 01-6.558-4.614l-.584.811zm13.269 9.119a357.428 357.428 0 006.791 4.344l.53-.849a357.388 357.388 0 01-6.773-4.331l-.548.836zm13.677 8.531a334.126 334.126 0 006.981 4.022l.49-.872a334.188 334.188 0 01-6.961-4.011l-.51.861zm14.06 7.872a306.173 306.173 0 007.176 3.667l.443-.897a301.91 301.91 0 01-7.153-3.654l-.467.884zm14.451 7.137a269.461 269.461 0 007.374 3.26l.391-.92a271.798 271.798 0 01-7.347-3.248l-.418.908zm14.847 6.292a240.16 240.16 0 007.567 2.785l.329-.945a234.24 234.24 0 01-7.535-2.773l-.361.933zm15.223 5.3c2.562.789 5.146 1.533 7.748 2.224l.256-.966a204.864 204.864 0 01-7.709-2.214l-.295.956zm15.582 4.134c2.623.58 5.262 1.103 7.912 1.565l.172-.986a175.811 175.811 0 01-7.868-1.556l-.216.977zm15.89 2.756c2.668.331 5.346.595 8.03.786l.071-.998a152.12 152.12 0 01-7.977-.781l-.124.993zm16.093 1.135c2.687.041 5.378.003 8.069-.118l-.045-.999c-2.671.12-5.342.157-8.009.117l-.015 1zm16.115-.731c2.667-.289 5.331-.665 7.99-1.133l-.173-.985c-2.637.464-5.28.837-7.924 1.124l.107.994zm15.887-2.804a114.16 114.16 0 007.766-2.218l-.308-.951c-2.557.829-5.124 1.56-7.699 2.199l.241.97zm15.368-4.985c2.466-1 4.921-2.095 7.361-3.291l-.44-.898a112.927 112.927 0 01-7.297 3.262l.376.927zm14.465-7.088c1.169-.677 2.333-1.38 3.494-2.108l-.531-.847a116.27 116.27 0 01-3.465 2.09l.502.865zm3.494-2.108a163.012 163.012 0 013.485-2.123l-.51-.86a163.393 163.393 0 00-3.506 2.136l.531.847zm10.551-6.068a159.96 159.96 0 017.26-3.583l-.42-.908a160.91 160.91 0 00-7.305 3.606l.465.885zm14.71-6.806a164.9 164.9 0 017.594-2.846l-.328-.945c-2.554.887-5.101 1.84-7.64 2.864l.374.927zm15.313-5.319a173.235 173.235 0 017.826-2.105l-.238-.971c-2.626.641-5.25 1.346-7.87 2.117l.282.959zm15.739-3.849a188.06 188.06 0 017.988-1.392l-.151-.989c-2.674.407-5.352.873-8.031 1.4l.194.981zm16.035-2.445c2.702-.296 5.397-.536 8.083-.722l-.07-.997c-2.698.187-5.407.427-8.122.725l.109.994zm16.187-1.127c2.719-.085 5.424-.118 8.113-.103l.006-1c-2.701-.015-5.419.018-8.15.103l.031 1zm16.225.085c2.722.11 5.423.266 8.1.464l.073-.998c-2.687-.198-5.4-.355-8.133-.465l-.04.999zm16.18 1.191c2.715.288 5.401.616 8.053.979l.136-.991a269.025 269.025 0 00-8.084-.982l-.105.994zm16.075 2.198c2.704.451 5.367.935 7.985 1.448l.193-.981c-2.627-.515-5.3-1.001-8.014-1.454l-.164.987zm15.932 3.117c2.693.604 5.33 1.234 7.905 1.882l.244-.969a306.3 306.3 0 00-7.93-1.888l-.219.975zm15.764 3.97c2.686.751 5.291 1.517 7.806 2.288l.293-.956a323.769 323.769 0 00-7.83-2.295l-.269.963zm15.544 4.768c2.678.895 5.226 1.785 7.634 2.658l.34-.941a324.985 324.985 0 00-7.657-2.666l-.317.949zm15.276 5.539a288.98 288.98 0 017.507 3.063l.391-.921a289.682 289.682 0 00-7.533-3.073l-.365.931zm14.926 6.359c1.173.548 2.072.982 2.676 1.279.303.148.532.263.684.339l.173.087.042.022.011.006.002.001h.001l.229-.444.229-.445h-.001l-.001-.001-.003-.001-.011-.006-.045-.023-.176-.089c-.156-.078-.387-.194-.693-.344-.61-.3-1.515-.737-2.694-1.287l-.423.906zm-214.723-2.036l.532.847-.532-.847zm218.846 4.278a1 1 0 00.647-1.258l-2.748-8.57a1.001 1.001 0 00-1.905.611l2.443 7.618-7.618 2.443a1 1 0 10.611 1.904l8.57-2.748zM1 195.001l-.669.743v.001h.002l.002.003a.541.541 0 01.01.009l.038.034.149.132a173.86 173.86 0 002.851 2.452l1.288-1.53a177.489 177.489 0 01-2.242-1.918c-.253-.221-.444-.389-.571-.502-.064-.056-.112-.098-.143-.127l-.035-.031-.009-.008-.002-.001v-.001l-.669.744zm8.61 8.455a332.126 332.126 0 006.395 4.945l1.205-1.596a332.976 332.976 0 01-6.357-4.916l-1.242 1.567zm12.88 9.725a369.425 369.425 0 006.585 4.633l1.132-1.648a369.765 369.765 0 01-6.549-4.608l-1.168 1.623zm13.286 9.131a357.478 357.478 0 006.8 4.35l1.06-1.697a357.354 357.354 0 01-6.764-4.325l-1.096 1.672zm13.696 8.543a334.606 334.606 0 006.992 4.028l.977-1.744a338.268 338.268 0 01-6.95-4.005l-1.019 1.721zm14.081 7.884a302.791 302.791 0 007.188 3.673l.886-1.793a301.506 301.506 0 01-7.14-3.649l-.934 1.769zm14.476 7.15a273.15 273.15 0 007.388 3.266l.781-1.842a268.222 268.222 0 01-7.333-3.241l-.836 1.817zm14.875 6.303c2.501.969 5.03 1.901 7.584 2.791l.658-1.889a233.361 233.361 0 01-7.52-2.767l-.722 1.865zm15.257 5.312c2.568.791 5.158 1.536 7.766 2.23l.514-1.933a205.8 205.8 0 01-7.691-2.209l-.589 1.912zm15.621 4.144c2.63.581 5.276 1.106 7.934 1.569l.343-1.97a178.222 178.222 0 01-7.845-1.552l-.432 1.953zm15.937 2.764c2.676.332 5.362.597 8.055.789l.142-1.995c-2.656-.19-5.308-.451-7.951-.779l-.246 1.985zm16.146 1.139c2.697.041 5.398.003 8.099-.118l-.089-1.998c-2.661.119-5.322.156-7.98.117l-.03 1.999zm16.177-.734c2.677-.29 5.352-.668 8.023-1.138l-.347-1.97c-2.626.462-5.257.834-7.891 1.119l.215 1.989zm15.953-2.816c2.608-.646 5.21-1.387 7.8-2.227l-.616-1.903a112.506 112.506 0 01-7.665 2.189l.481 1.941zm15.436-5.007a114.808 114.808 0 007.393-3.305l-.88-1.796a112.448 112.448 0 01-7.264 3.247l.751 1.854zm14.528-7.118a120.586 120.586 0 003.509-2.117l-1.063-1.694a117.408 117.408 0 01-3.45 2.081l1.004 1.73zm3.509-2.117a160.39 160.39 0 013.473-2.117l-1.018-1.721a162.097 162.097 0 00-3.518 2.144l1.063 1.694zm10.518-6.049c2.4-1.261 4.813-2.451 7.237-3.572l-.84-1.816a162.947 162.947 0 00-7.327 3.617l.93 1.771zm14.664-6.785a165.077 165.077 0 017.571-2.838l-.656-1.889a166.738 166.738 0 00-7.663 2.872l.748 1.855zm15.267-5.303a172.221 172.221 0 017.803-2.099l-.474-1.943c-2.634.643-5.266 1.35-7.893 2.123l.564 1.919zm15.694-3.838a187.08 187.08 0 017.967-1.389l-.301-1.977c-2.681.408-5.366.875-8.052 1.404l.386 1.962zm15.993-2.439c2.695-.295 5.384-.534 8.063-.72l-.138-1.995c-2.705.187-5.42.429-8.143.727l.218 1.988zm16.148-1.125c2.713-.084 5.412-.116 8.096-.102l.011-2c-2.707-.015-5.431.018-8.169.103l.062 1.999zm16.19.085c2.716.11 5.411.266 8.083.463l.147-1.994a245.501 245.501 0 00-8.15-.467l-.08 1.998zm16.147 1.189c2.71.288 5.391.615 8.039.977l.271-1.981a266.799 266.799 0 00-8.099-.984l-.211 1.988zm16.046 2.194c2.699.45 5.358.934 7.971 1.446l.385-1.963a294.34 294.34 0 00-8.027-1.456l-.329 1.973zm15.905 3.112c2.689.603 5.321 1.232 7.891 1.879l.489-1.939a306.326 306.326 0 00-7.943-1.891l-.437 1.951zm15.738 3.964a322.15 322.15 0 017.794 2.284l.587-1.912a324.899 324.899 0 00-7.843-2.298l-.538 1.926zm15.52 4.76c2.674.894 5.218 1.783 7.622 2.654l.682-1.881a324.57 324.57 0 00-7.67-2.67l-.634 1.897zm15.253 5.53a289.354 289.354 0 017.494 3.058l.782-1.841a295.597 295.597 0 00-7.546-3.079l-.73 1.862zm14.897 6.347c1.17.546 2.065.979 2.667 1.275.301.147.528.261.68.337l.17.086.042.021.01.006.002.001h.001-.001l.458-.889.457-.89h-.001l-.003-.002a.066.066 0 01-.012-.006l-.046-.023-.178-.091-.697-.346c-.613-.301-1.521-.739-2.704-1.291l-.845 1.812z"></path> </svg> 