<?xml version="1.0" encoding="UTF-8"?> <svg xmlns="http://www.w3.org/2000/svg" width="289" height="76" viewBox="0 0 289 76" fill="none"> <g clip-path="url(#clip0)"> <path d="M127.588 51.7198H105.65V22.1509H127.208L127.934 27.3366H115.324V33.9647H127.208V39.1504H115.324V46.5341H128.418L127.588 51.7198Z" fill="#00457C"></path> <path d="M75.869 64.7357C75.9381 65.6973 75.4889 66.6589 74.7289 67.2427C73.9688 67.8265 72.8978 68.1356 71.5158 68.1356H70.2375V72.3597H68.9592V61.5762H71.7577C74.5216 61.5762 75.869 62.6408 75.869 64.7357ZM70.2375 67.071H71.3776C72.4832 67.071 73.3124 66.8993 73.7961 66.5215C74.2797 66.1437 74.5561 65.5942 74.5561 64.8044C74.5907 64.1862 74.3488 63.6024 73.8652 63.2246C73.416 62.8812 72.6559 62.7095 71.654 62.7095H70.2375V67.071Z" fill="#00457C"></path> <path d="M83.9188 72.3596V67.1395C83.9533 66.6244 83.8152 66.0749 83.4697 65.6628C83.0896 65.3193 82.5714 65.1133 82.0532 65.182C81.1894 65.182 80.5676 65.4224 80.1875 65.8688C79.8075 66.3496 79.6002 67.1052 79.6002 68.1354V72.3596H78.3564V60.8892H79.6002V64.3578C79.6002 64.7012 79.6002 65.0446 79.5311 65.388H79.6002C79.842 64.9759 80.2221 64.6668 80.6367 64.4608C81.1203 64.2204 81.6386 64.1174 82.1568 64.1174C83.1587 64.1174 83.8842 64.3578 84.4025 64.8385C84.8862 65.3193 85.1626 66.0405 85.1626 67.0708V72.3596H83.9188Z" fill="#00457C"></path> <path d="M93.0397 72.3597L92.7979 71.1921H92.7288C92.4178 71.6385 92.0032 71.982 91.5196 72.2224C91.0359 72.4284 90.5177 72.4971 89.9994 72.4971C89.3085 72.5314 88.6175 72.3254 88.0992 71.8789C87.6156 71.4325 87.3737 70.78 87.4083 70.1275C87.4083 68.5134 88.7211 67.6548 91.3468 67.5518L92.7288 67.5174V67.0023C92.7633 66.4871 92.6251 66.0064 92.3142 65.5942C91.9687 65.2508 91.485 65.1134 91.0013 65.1478C90.2067 65.1821 89.4121 65.3882 88.6866 65.766L88.3065 64.8387C88.7211 64.6327 89.1703 64.4609 89.6194 64.3236C90.1031 64.1862 90.5522 64.1519 91.0359 64.1519C92.0032 64.1519 92.7288 64.3579 93.2124 64.8044C93.6961 65.2508 93.9034 65.9377 93.9034 66.8649V72.3941H93.0397V72.3597ZM90.2758 71.5012C90.9322 71.5355 91.5887 71.3294 92.0723 70.883C92.5215 70.4022 92.7633 69.784 92.7288 69.1315V68.4103L91.485 68.4447C90.5177 68.479 89.7921 68.6164 89.3776 68.8911C88.9284 69.1659 88.6866 69.6467 88.7211 70.1618C88.6866 70.5396 88.8593 70.9173 89.1357 71.1577C89.4812 71.4325 89.8612 71.5355 90.2758 71.5012Z" fill="#00457C"></path> <path d="M100.606 64.1174C100.917 64.1174 101.262 64.1518 101.573 64.2205L101.4 65.3538C101.124 65.2851 100.813 65.2507 100.502 65.2507C99.8457 65.2507 99.2238 65.5255 98.8092 66.0406C98.3256 66.5901 98.0837 67.3113 98.1183 68.0325V72.394H96.8745V64.3235H97.8764L98.0146 65.8346H98.0837C98.3601 65.3538 98.7056 64.9417 99.1893 64.6326C99.6039 64.2891 100.088 64.1174 100.606 64.1174Z" fill="#00457C"></path> <path d="M113.838 72.3596V67.1052C113.872 66.5901 113.734 66.075 113.423 65.6628C113.078 65.3194 112.629 65.1477 112.145 65.1821C111.523 65.1134 110.867 65.3538 110.452 65.8346C110.072 66.281 109.899 66.9335 109.899 67.8608V72.3596H108.656V67.1052C108.69 66.5901 108.552 66.075 108.241 65.6628C107.896 65.3194 107.412 65.1477 106.928 65.1821C106.272 65.1134 105.65 65.3881 105.235 65.8689C104.89 66.3154 104.682 67.0709 104.682 68.1355V72.3596H103.439V64.2891H104.441L104.648 65.3881H104.717C104.959 65.0103 105.304 64.6669 105.719 64.4609C106.168 64.2205 106.652 64.1174 107.135 64.1174C108.414 64.1174 109.243 64.5639 109.623 65.4911H109.692C109.934 65.079 110.314 64.7013 110.763 64.4952C111.247 64.2548 111.8 64.1174 112.318 64.1174C113.251 64.1174 113.942 64.3578 114.391 64.8386C114.84 65.3194 115.082 66.075 115.082 67.1052V72.394H113.838V72.3596Z" fill="#00457C"></path> <path d="M122.993 72.3597L122.751 71.1921H122.682C122.371 71.6385 121.957 71.982 121.473 72.2224C120.99 72.4284 120.471 72.4971 119.953 72.4971C119.262 72.5314 118.571 72.3254 118.053 71.8789C117.569 71.4325 117.327 70.78 117.362 70.1275C117.362 68.5134 118.675 67.6548 121.3 67.5518L122.682 67.5174V67.0023C122.717 66.4871 122.579 66.0064 122.268 65.5942C121.922 65.2508 121.439 65.1134 120.955 65.1478C120.16 65.1821 119.366 65.3882 118.64 65.766L118.26 64.8387C118.675 64.6327 119.124 64.4609 119.573 64.3236C120.057 64.1862 120.54 64.1519 121.024 64.1519C121.991 64.1519 122.717 64.3579 123.166 64.8044C123.615 65.2508 123.857 65.9377 123.857 66.8649V72.3941H122.993V72.3597ZM120.229 71.5012C120.886 71.5355 121.542 71.3294 122.026 70.883C122.475 70.4022 122.717 69.784 122.682 69.1315V68.4103L121.439 68.4447C120.471 68.479 119.746 68.6164 119.331 68.8911C118.882 69.1659 118.64 69.6467 118.675 70.1618C118.64 70.5396 118.813 70.9173 119.089 71.1577C119.4 71.3981 119.815 71.5355 120.229 71.5012Z" fill="#00457C"></path> <path d="M130.076 72.5315C128.901 72.5315 127.968 72.1881 127.347 71.4669C126.725 70.7457 126.379 69.7154 126.379 68.4104C126.379 67.071 126.69 66.0064 127.381 65.2852C128.037 64.5641 128.97 64.1863 130.18 64.1863C130.56 64.1863 130.974 64.2206 131.354 64.3237C131.665 64.3923 131.976 64.4954 132.287 64.6327L131.907 65.663C131.631 65.56 131.32 65.457 131.009 65.3883C130.732 65.3196 130.456 65.2852 130.145 65.2852C128.487 65.2852 127.657 66.3499 127.657 68.4447C127.657 69.4407 127.865 70.1962 128.279 70.7457C128.694 71.2952 129.385 71.5699 130.076 71.5356C130.801 71.5356 131.492 71.3639 132.149 71.0891V72.1881C131.492 72.3941 130.801 72.5315 130.076 72.5315Z" fill="#00457C"></path> <path d="M137.884 72.5315C136.813 72.6002 135.777 72.1881 135.051 71.4325C134.36 70.7114 134.015 69.6811 134.015 68.4104C134.015 67.1397 134.326 66.0751 134.982 65.2852C135.638 64.5297 136.571 64.0832 137.573 64.1176C138.506 64.0832 139.37 64.4267 139.992 65.1135C140.613 65.8347 140.924 66.7963 140.89 67.7579V68.5478H135.293C135.327 69.5094 135.569 70.2306 136.018 70.7114C136.537 71.2265 137.228 71.5012 137.953 71.4325C138.851 71.4325 139.715 71.2265 140.544 70.8831V71.982C140.13 72.1537 139.715 72.2911 139.301 72.3941C138.851 72.4972 138.368 72.5315 137.884 72.5315ZM137.539 65.1822C136.951 65.1479 136.364 65.3883 135.984 65.8347C135.569 66.3155 135.327 66.9337 135.293 67.5862H139.542C139.577 66.968 139.404 66.3155 139.024 65.8004C138.679 65.3539 138.126 65.1479 137.539 65.1822Z" fill="#00457C"></path> <path d="M144.517 64.2893V69.5437C144.483 70.0588 144.656 70.6083 144.967 71.0204C145.347 71.3639 145.865 71.5356 146.383 71.5012C147.247 71.5012 147.869 71.2608 148.249 70.8144C148.629 70.3679 148.836 69.578 148.836 68.5478V64.2893H150.08V72.3598H149.078L148.905 71.2952H148.836C148.594 71.7073 148.214 72.0164 147.8 72.2224C147.316 72.4285 146.798 72.5658 146.279 72.5315C145.277 72.5315 144.552 72.2911 144.068 71.8446C143.585 71.3982 143.343 70.6427 143.343 69.6124V64.3237H144.517V64.2893Z" fill="#00457C"></path> <path d="M155.711 71.501C155.918 71.501 156.126 71.501 156.333 71.4667C156.506 71.4323 156.644 71.398 156.817 71.3636V72.2909C156.644 72.3596 156.437 72.4282 156.229 72.4626C155.988 72.4969 155.78 72.5313 155.538 72.5313C153.949 72.5313 153.189 71.7071 153.189 70.0586V65.2507H152.014V64.6668L153.155 64.1517L153.673 62.4346H154.398V64.3234H156.748V65.285H154.398V70.0586C154.364 70.4707 154.502 70.8485 154.744 71.1919C154.986 71.398 155.331 71.5353 155.711 71.501Z" fill="#00457C"></path> <path d="M158.717 62.0913C158.682 61.8509 158.786 61.6449 158.924 61.4731C159.062 61.3358 159.235 61.2671 159.442 61.2671C159.615 61.2671 159.822 61.3358 159.961 61.4731C160.237 61.8166 160.237 62.3317 159.961 62.7095C159.684 62.9842 159.201 62.9842 158.924 62.7095C158.786 62.5378 158.717 62.3317 158.717 62.0913ZM160.064 72.3597H158.821V64.2892H160.064V72.3597Z" fill="#00457C"></path> <path d="M166.318 72.5315C165.143 72.5315 164.21 72.1881 163.588 71.4669C162.966 70.7457 162.621 69.7154 162.621 68.4104C162.621 67.071 162.932 66.0064 163.588 65.2852C164.245 64.5641 165.177 64.1863 166.387 64.1863C166.767 64.1863 167.181 64.2206 167.561 64.3237C167.872 64.3923 168.183 64.4954 168.494 64.6327L168.114 65.663C167.838 65.56 167.527 65.457 167.216 65.3883C166.939 65.3196 166.663 65.2852 166.352 65.2852C164.694 65.2852 163.865 66.3499 163.865 68.4447C163.83 69.269 164.037 70.0588 164.486 70.7457C164.901 71.2952 165.592 71.5699 166.283 71.5356C167.009 71.5356 167.7 71.3639 168.356 71.0891V72.1881C167.7 72.3941 167.009 72.5315 166.318 72.5315Z" fill="#00457C"></path> <path d="M175.68 72.3597L175.438 71.1921H175.369C175.058 71.6385 174.644 71.982 174.16 72.2224C173.676 72.4284 173.158 72.4971 172.64 72.4971C171.949 72.5314 171.258 72.3254 170.74 71.8789C170.256 71.4325 170.014 70.78 170.049 70.1275C170.049 68.5134 171.362 67.6548 173.987 67.5518L175.369 67.5174V67.0023C175.404 66.4871 175.266 66.0064 174.955 65.5942C174.609 65.2508 174.125 65.1134 173.642 65.1478C172.847 65.1821 172.052 65.3882 171.327 65.766L170.947 64.8387C171.361 64.6327 171.811 64.4609 172.26 64.3236C172.743 64.1862 173.193 64.1519 173.711 64.1519C174.678 64.1519 175.404 64.3579 175.887 64.8044C176.371 65.2508 176.578 65.9377 176.578 66.8649V72.3941H175.68V72.3597ZM172.882 71.5012C173.538 71.5355 174.194 71.3294 174.678 70.883C175.127 70.4022 175.369 69.784 175.335 69.1315V68.4103L174.091 68.4447C173.123 68.479 172.398 68.6164 171.983 68.8911C171.534 69.1659 171.292 69.6467 171.327 70.1618C171.292 70.5396 171.465 70.9173 171.742 71.1577C172.087 71.3981 172.502 71.5355 172.882 71.5012Z" fill="#00457C"></path> <path d="M180.759 72.3596H179.515V60.8892H180.759V72.3596Z" fill="#00457C"></path> <path d="M192.886 62.5378C191.815 62.5035 190.778 62.9156 190.053 63.7055C189.362 64.4954 189.016 65.56 189.016 66.9337C189.016 68.3417 189.362 69.4407 190.018 70.1962C190.674 70.9861 191.642 71.3639 192.851 71.3639C193.715 71.3295 194.613 71.2265 195.442 70.9518V72.0507C194.544 72.3598 193.611 72.4972 192.644 72.4628C191.054 72.4628 189.811 71.982 188.947 71.0204C188.083 70.0588 187.634 68.6851 187.634 66.8993C187.6 65.9034 187.841 64.8731 188.256 63.9802C188.636 63.156 189.292 62.5035 190.087 62.057C190.951 61.5762 191.884 61.3358 192.886 61.3702C193.922 61.3358 194.924 61.5762 195.857 61.9884L195.338 63.053C194.578 62.7439 193.749 62.5722 192.886 62.5378Z" fill="#00457C"></path> <path d="M205.046 68.3417C205.046 69.6467 204.701 70.6769 204.045 71.4325C203.319 72.188 202.317 72.6001 201.281 72.5314C200.59 72.5314 199.933 72.3597 199.346 72.0163C198.759 71.6729 198.309 71.1577 198.033 70.5396C197.722 69.8527 197.549 69.0628 197.584 68.3073C197.584 67.0023 197.929 65.972 198.586 65.2165C199.311 64.4609 200.313 64.0488 201.35 64.1175C202.386 64.0832 203.388 64.4953 204.079 65.2508C204.736 66.0064 205.046 67.0366 205.046 68.3417ZM198.862 68.3417C198.862 69.3719 199.07 70.1618 199.484 70.7113C200.382 71.7072 201.972 71.8102 202.974 70.883C203.043 70.8143 203.112 70.78 203.146 70.7113C203.561 70.1618 203.768 69.3719 203.768 68.3417C203.768 67.3114 203.561 66.5215 203.146 66.0064C202.697 65.4569 202.006 65.1478 201.281 65.2165C200.59 65.1821 199.899 65.4569 199.45 66.0064C199.07 66.4872 198.862 67.277 198.862 68.3417Z" fill="#00457C"></path> <path d="M217.968 72.3596V67.1052C218.002 66.5901 217.864 66.075 217.553 65.6628C217.208 65.3194 216.759 65.1477 216.275 65.1821C215.653 65.1134 214.997 65.3881 214.582 65.8346C214.202 66.281 214.029 66.9335 214.029 67.8608V72.3596H212.785V67.1052C212.82 66.5901 212.682 66.075 212.371 65.6628C212.025 65.3194 211.542 65.1477 211.058 65.1821C210.402 65.1134 209.78 65.3881 209.365 65.8689C209.02 66.3154 208.812 67.0709 208.812 68.1355V72.3596H207.569V64.2891H208.571L208.778 65.3881H208.847C209.089 65.0103 209.434 64.6669 209.814 64.4609C210.263 64.2205 210.747 64.1174 211.231 64.1174C212.509 64.1174 213.338 64.5639 213.718 65.4911H213.787C214.029 65.079 214.375 64.7013 214.824 64.4952C215.308 64.2548 215.86 64.1174 216.413 64.1174C217.346 64.1174 218.037 64.3578 218.486 64.8386C218.935 65.3194 219.177 66.075 219.177 67.1052V72.394H217.968V72.3596Z" fill="#00457C"></path> <path d="M225.914 72.5314C225.43 72.5314 224.912 72.4283 224.463 72.2566C224.014 72.0506 223.634 71.7415 223.357 71.3637H223.254C223.323 71.8102 223.323 72.2566 223.357 72.7031V76.0343H222.148V64.3235H223.15L223.323 65.4225H223.392C223.668 65.0104 224.048 64.6669 224.498 64.4609C224.947 64.2548 225.43 64.1518 225.949 64.1518C226.916 64.1175 227.849 64.4952 228.436 65.2508C229.023 65.972 229.3 67.0022 229.3 68.3416C229.3 69.6809 228.989 70.7112 228.402 71.4324C227.78 72.1536 226.881 72.5657 225.914 72.5314ZM225.741 65.1821C224.912 65.1821 224.29 65.4225 223.945 65.8689C223.599 66.3154 223.392 67.0366 223.357 68.0668V68.3416C223.357 69.4749 223.565 70.2991 223.945 70.7799C224.325 71.2607 224.947 71.5011 225.776 71.5011C226.432 71.5354 227.054 71.192 227.434 70.6425C227.883 69.9557 228.091 69.1315 228.021 68.3072C228.021 67.3113 227.814 66.5214 227.434 65.972C227.02 65.4568 226.398 65.1477 225.741 65.1821Z" fill="#00457C"></path> <path d="M236.831 72.3597L236.59 71.1921H236.52C236.21 71.6385 235.795 71.982 235.311 72.2224C234.828 72.4284 234.309 72.4971 233.791 72.4971C233.1 72.5314 232.409 72.3254 231.891 71.8789C231.407 71.4325 231.165 70.78 231.2 70.1275C231.2 68.5134 232.513 67.6548 235.139 67.5518L236.52 67.5174V67.0023C236.555 66.4871 236.417 66.0064 236.106 65.5942C235.76 65.2508 235.277 65.1134 234.793 65.1478C233.998 65.1821 233.204 65.3882 232.478 65.766L232.098 64.8387C232.513 64.6327 232.962 64.4609 233.411 64.3236C233.895 64.1862 234.378 64.1519 234.862 64.1519C235.83 64.1519 236.555 64.3579 237.039 64.8044C237.522 65.2508 237.73 65.9377 237.73 66.8649V72.3941H236.831V72.3597ZM234.033 71.5012C234.689 71.5355 235.346 71.2951 235.83 70.883C236.279 70.4022 236.52 69.784 236.486 69.1315V68.4103L235.242 68.4447C234.275 68.479 233.549 68.6164 233.135 68.8911C232.686 69.1659 232.444 69.6467 232.478 70.1618C232.444 70.5396 232.617 70.9173 232.893 71.1577C233.238 71.3981 233.653 71.5355 234.033 71.5012Z" fill="#00457C"></path> <path d="M246.229 72.3596V67.1396C246.263 66.6244 246.09 66.075 245.779 65.6628C245.399 65.3194 244.881 65.1134 244.363 65.1821C243.499 65.1821 242.877 65.4224 242.497 65.8689C242.117 66.3154 241.91 67.0709 241.91 68.1355V72.3596H240.666V64.2891H241.668L241.875 65.3881H241.945C242.186 64.976 242.566 64.6669 243.016 64.4609C243.499 64.2205 244.017 64.1174 244.536 64.1174C245.503 64.1174 246.263 64.3578 246.747 64.8386C247.231 65.3194 247.507 66.075 247.507 67.1052V72.394H246.229V72.3596Z" fill="#00457C"></path> <path d="M249.096 64.2892H250.409L252.206 68.8911C252.517 69.6467 252.758 70.4022 252.931 71.1577H253C253.069 70.9173 253.207 70.4709 253.415 69.8527C253.622 69.2346 254.278 67.3801 255.419 64.2549H256.731L253.207 73.493C252.966 74.2142 252.551 74.9011 251.998 75.4162C251.515 75.794 250.927 76 250.305 76C249.925 76 249.545 75.9657 249.2 75.8627V74.8667C249.511 74.9354 249.822 74.9698 250.133 74.9698C250.996 74.9698 251.584 74.489 251.929 73.5617L252.378 72.3941L249.096 64.2892Z" fill="#00457C"></path> <path d="M262.259 51.7198L250.34 36.3343L262.985 22.1509H253.622L242.187 34.5485V22.1509H232.513V51.7198H242.187V39.1848L251.549 51.7198H262.259Z" fill="#00457C"></path> <path d="M166.421 51.7198L157.611 39.9746C161.688 38.6009 163.83 35.8192 163.83 31.5951C163.83 25.6195 159.891 22.1509 150.114 22.1509H137.055V51.7198H146.728V41.0736H148.076L155.711 51.7198H166.421ZM146.728 26.6497H149.25C151.98 26.6841 154.156 28.882 154.156 31.5951C154.156 35.2697 151.047 37.0212 147.73 37.0212H146.728V26.6497Z" fill="#00457C"></path> <path d="M195.718 22.1509L196.548 27.3366H187.116V51.8915H177.028V27.3366H167.423L168.218 22.1509H195.718Z" fill="#00457C"></path> <path d="M223.634 51.7198H201.661V22.1509H223.219L223.945 27.3366H211.335V33.9647H223.219V39.1504H211.335V46.5341H224.428L223.634 51.7198Z" fill="#00457C"></path> <path d="M0 44.336C14.3723 44.336 27.2589 41.5199 36.1034 36.9524C43.7041 40.8674 48.2991 46.0532 48.2991 51.6853C48.2991 63.9456 26.6716 73.8706 0 73.8706V44.336Z" fill="#00457C"></path> <path d="M0 0C25.6006 0.27474 46.1571 9.47854 46.1571 20.8116C46.1571 26.4781 41.0439 31.5951 32.7522 35.3385C24.115 31.7325 12.6448 29.5346 0 29.5346V0Z" fill="#76BC21"></path> <path d="M279.43 33.2092C276.977 32.385 274.178 31.183 274.178 28.2638C274.178 26.4094 276.286 25.2074 278.255 25.4134C281.019 25.6882 283.23 27.8174 284.785 29.0194L287.687 25.7568C284.889 23.1125 281.365 21.5327 276.631 21.5327C270.793 21.5327 265.61 25.8255 265.61 31.0456C265.61 36.8151 270.654 39.1161 274.766 40.4898C277.011 41.2453 279.983 42.3443 279.983 44.92C279.983 47.1179 278.082 48.4229 275.629 48.1825C272.866 47.9078 270.793 46.2937 269.134 44.8169L266.025 48.2855C269.031 50.8269 272.796 52.2693 276.735 52.3723C283.748 52.3723 288.931 48.3886 288.931 42.0695C289 37.1929 284.025 34.7546 279.43 33.2092Z" fill="#00457C"></path> <path d="M73.2088 51.7198L78.8748 39.4252L84.1607 51.7198H88.272L101.09 22.1509H94.7672L87.2701 38.8413L80.1876 22.1509H70.8595L75.6963 32.8314L72.9324 38.7383L65.5044 22.1509H56.0381L69.132 51.7198H73.2088Z" fill="#00457C"></path> </g> <defs> <clipPath id="clip0"> <rect width="289" height="76" fill="white"></rect> </clipPath> </defs> </svg> 