<?xml version="1.0" encoding="UTF-8"?> <svg xmlns="http://www.w3.org/2000/svg" width="60" height="60" fill="none" viewBox="0 0 60 60"> <path fill="#fff" d="M0 0h60v60H0z"></path> <path fill="url(#paint0_linear)" d="M14.729 43.014l-1.457 1.457a4.142 4.142 0 00-5.028.631 4.142 4.142 0 000 5.85 4.123 4.123 0 002.925 1.21 4.124 4.124 0 004.018-5.091l1.799-1.8a1.595 1.595 0 10-2.257-2.257zm-2.893 5.68a.945.945 0 01-1.335-1.335.943.943 0 011.335 0 .947.947 0 010 1.335z"></path> <path fill="url(#paint1_linear)" d="M44.143 17.453c.408 0 .816-.156 1.129-.467l1.852-1.853a4.147 4.147 0 004.494-.902 4.142 4.142 0 000-5.849 4.141 4.141 0 00-5.85 0 4.108 4.108 0 00-1.211 2.925c0 .548.107 1.08.308 1.571l-1.85 1.851a1.595 1.595 0 001.128 2.724zm3.882-6.814a.941.941 0 01.668-.275.942.942 0 01.668 1.61.946.946 0 01-1.612-.667c0-.252.098-.49.276-.668z"></path> <path fill="url(#paint2_linear)" d="M11.168 15.302c.534 0 1.068-.102 1.569-.307l1.985 1.984c.311.312.72.468 1.129.468a1.595 1.595 0 001.129-2.725l-1.985-1.984a4.143 4.143 0 00-.902-4.494 4.144 4.144 0 00-5.85 0 4.143 4.143 0 000 5.85 4.126 4.126 0 002.925 1.208zm-.667-4.801a.941.941 0 011.334 0 .944.944 0 11-1.335 0z"></path> <path fill="url(#paint3_linear)" d="M51.618 45.768a4.141 4.141 0 00-4.494-.902l-1.846-1.846a1.595 1.595 0 10-2.257 2.257l1.845 1.846a4.142 4.142 0 00.902 4.494 4.124 4.124 0 002.924 1.209c1.06 0 2.119-.404 2.926-1.21a4.141 4.141 0 000-5.848zm-2.257 3.591a.946.946 0 01-1.335.001.946.946 0 01.667-1.61.946.946 0 01.668 1.61z"></path> <path fill="url(#paint4_linear)" d="M33.881 33.861a10.56 10.56 0 01-3.942.747 10.398 10.398 0 01-4.499-1.046 1.596 1.596 0 10-1.394 2.872 13.572 13.572 0 005.874 1.368h.079a13.56 13.56 0 005.07-.977 1.597 1.597 0 00-1.188-2.964z"></path> <path fill="url(#paint5_linear)" d="M20.397 27.919a1.594 1.594 0 00-.007 2.253 1.601 1.601 0 002.26.007 10.417 10.417 0 012.663-1.928 5.015 5.015 0 00-.064.76 4.747 4.747 0 004.745 4.744 4.747 4.747 0 004.744-4.745c0-.255-.026-.51-.064-.76a10.576 10.576 0 012.765 2.012c.306.32.721.479 1.136.479.403 0 .805-.147 1.118-.453.632-.62.638-1.629.025-2.26a13.554 13.554 0 00-9.635-4.081H30c-3.627 0-7.03 1.411-9.603 3.972zm7.746 1.229a.988.988 0 110-1.976.988.988 0 010 1.976z"></path> <path fill="url(#paint6_linear)" d="M31.596 12.837a5.973 5.973 0 002.663-1.54c2.35-2.355 2.35-6.18 0-8.53a6.031 6.031 0 00-8.53 0c-2.35 2.35-2.35 6.175 0 8.53a5.993 5.993 0 002.675 1.546v2.254A14.95 14.95 0 0019.4 19.4a14.95 14.95 0 00-4.304 9.003h-2.254a5.993 5.993 0 00-1.545-2.676 6.035 6.035 0 00-4.266-1.762c-1.545 0-3.09.587-4.265 1.762a6.031 6.031 0 000 8.53 6.013 6.013 0 004.265 1.763 6.024 6.024 0 004.266-1.762 6.007 6.007 0 001.539-2.663h2.26A14.915 14.915 0 0019.4 40.6a14.915 14.915 0 009.003 4.304v2.254a5.987 5.987 0 00-2.663 1.545c-2.35 2.356-2.35 6.181 0 8.53a5.993 5.993 0 004.265 1.77c1.546 0 3.09-.588 4.266-1.77 2.35-2.349 2.35-6.174 0-8.53a5.993 5.993 0 00-2.676-1.545v-2.254A14.934 14.934 0 0040.6 40.6a14.934 14.934 0 004.304-9.003h2.254c.268.984.779 1.91 1.545 2.676a6.024 6.024 0 004.266 1.762c1.545 0 3.09-.587 4.265-1.762a6.031 6.031 0 000-8.53c-2.35-2.35-6.175-2.35-8.53 0a5.973 5.973 0 00-1.54 2.662h-2.26A14.915 14.915 0 0040.6 19.4a14.915 14.915 0 00-9.003-4.304v-2.26zM9.82 30.489c-.002.015-.001.031-.004.047-.006.031-.02.06-.027.09a2.823 2.823 0 01-.128.435c-.138.341-.346.66-.624.938a2.828 2.828 0 01-.547.42 2.835 2.835 0 01-2.528.205 2.837 2.837 0 01-.94-4.634c.246-.246.53-.43.829-.568a2.826 2.826 0 011.181-.268 2.858 2.858 0 012.628 1.774c.016.038.022.08.036.117.047.134.094.27.12.408l.004.044c.029.165.047.33.047.498 0 .165-.018.33-.047.494zm41.143-2.488a2.818 2.818 0 012.005-.83c.727 0 1.455.275 2.01.83a2.84 2.84 0 01-2.01 4.844c-.118 0-.235-.02-.354-.034-.062-.008-.125-.006-.187-.018-.066-.013-.129-.04-.194-.058a2.792 2.792 0 01-1.27-.724 2.84 2.84 0 010-4.01zM27.989 9.037a2.791 2.791 0 01-.693-1.166 2.822 2.822 0 01-.14-.84c0-.727.278-1.454.833-2.01a2.808 2.808 0 011.171-.69c.272-.084.552-.14.834-.14.316 0 .63.064.931.169.046.016.094.023.139.041l.006.003c.339.139.657.345.93.618.382.383.622.848.742 1.337.16.656.08 1.348-.232 1.958a2.788 2.788 0 01-.51.722 2.842 2.842 0 01-4.011-.002zm3.614 41.59a2.801 2.801 0 01.999 1.209c.01.022.025.042.034.065.006.012.007.026.012.038a2.833 2.833 0 01-.636 3.04 2.84 2.84 0 01-4.79-1.467 2.845 2.845 0 01.144-1.573c.005-.012.006-.026.012-.038.009-.023.024-.043.034-.066.139-.316.332-.614.59-.872a2.79 2.79 0 01.404-.332 2.789 2.789 0 011.602-.498 2.796 2.796 0 011.596.494zM38.34 21.66A11.74 11.74 0 0141.794 30c0 3.148-1.226 6.11-3.455 8.34A11.718 11.718 0 0130 41.792c-3.148 0-6.11-1.225-8.34-3.454A11.718 11.718 0 0118.207 30c0-3.148 1.227-6.11 3.455-8.34A11.718 11.718 0 0130 18.207c3.148 0 6.11 1.227 8.34 3.455z"></path> <defs> <linearGradient id="paint0_linear" x1="-25.5" x2="51.663" y1="-1.5" y2="48.655" gradientUnits="userSpaceOnUse"> <stop stop-color="#FFD888"></stop> <stop offset="1" stop-color="#E94B4F"></stop> </linearGradient> <linearGradient id="paint1_linear" x1="-25.5" x2="51.663" y1="-1.5" y2="48.655" gradientUnits="userSpaceOnUse"> <stop stop-color="#FFD888"></stop> <stop offset="1" stop-color="#E94B4F"></stop> </linearGradient> <linearGradient id="paint2_linear" x1="-25.5" x2="51.663" y1="-1.5" y2="48.655" gradientUnits="userSpaceOnUse"> <stop stop-color="#FFD888"></stop> <stop offset="1" stop-color="#E94B4F"></stop> </linearGradient> <linearGradient id="paint3_linear" x1="-25.5" x2="51.663" y1="-1.5" y2="48.655" gradientUnits="userSpaceOnUse"> <stop stop-color="#FFD888"></stop> <stop offset="1" stop-color="#E94B4F"></stop> </linearGradient> <linearGradient id="paint4_linear" x1="-25.5" x2="51.663" y1="-1.5" y2="48.655" gradientUnits="userSpaceOnUse"> <stop stop-color="#FFD888"></stop> <stop offset="1" stop-color="#E94B4F"></stop> </linearGradient> <linearGradient id="paint5_linear" x1="-25.5" x2="51.663" y1="-1.5" y2="48.655" gradientUnits="userSpaceOnUse"> <stop stop-color="#FFD888"></stop> <stop offset="1" stop-color="#E94B4F"></stop> </linearGradient> <linearGradient id="paint6_linear" x1="-25.5" x2="51.663" y1="-1.5" y2="48.655" gradientUnits="userSpaceOnUse"> <stop stop-color="#FFD888"></stop> <stop offset="1" stop-color="#E94B4F"></stop> </linearGradient> </defs> </svg> 