<?xml version="1.0" encoding="UTF-8"?> <svg xmlns="http://www.w3.org/2000/svg" width="431" height="215" fill="none" viewBox="0 0 431 215"> <g filter="url(#filter0_d)"> <path fill="#fff" d="M347.592 60l-264.183.178C70.478 60.178 60 70.74 60 83.773v15.93c0 11.221 10.478 23.594 23.409 23.594l10.907-.178v27.189c0 3.55 3.745 5.797 6.822 4.134l31.691-31.323h214.763c12.93 0 23.408-10.562 23.408-23.594v-15.93C371 70.561 360.522 60 347.592 60z"></path> </g> <g clip-path="url(#clip0)"> <path fill="#fff" d="M85 77h28v28H85z"></path> <path fill="url(#paint0_linear)" d="M99.516 98.046c-.356 0-.71-.125-.982-.396L95.5 94.5a1.38 1.38 0 010-1.958 1.39 1.39 0 011.963 0l2.053 2.17 11.113-11.084a1.389 1.389 0 011.963 0 1.38 1.38 0 010 1.959L100.497 97.65c-.271.25-.626.396-.981.396z"></path> <path fill="url(#paint1_linear)" d="M93.232 98.046c-.368 0-.737-.125-1.02-.396l-6.79-6.521a1.345 1.345 0 010-1.959 1.483 1.483 0 012.04 0l5.77 5.542 11.541-11.084a1.482 1.482 0 012.039 0 1.345 1.345 0 010 1.959L94.252 97.65c-.282.25-.65.396-1.02.396z"></path> </g> <path fill="#122B29" d="M123.928 95.208c1.232 0 2.256-.304 3.072-.896.816-.592 1.232-1.408 1.232-2.448-.064-1.264-.592-2.064-1.584-2.592-.704-.384-1.2-.576-2.048-.832l-1.28-.368c-.272-.112-.784-.272-.992-.4-.384-.272-.656-.528-.656-1.008 0-.832.752-1.424 2.288-1.424 1.232 0 2.416.352 3.552 1.04v-1.76c-1.04-.624-2.24-.928-3.584-.928-2.512 0-4.064 1.2-4.064 3.056 0 1.024.336 1.744 1.152 2.256.416.24.784.432 1.12.56.336.128.832.288 1.456.464l.224.064c.72.208 1.024.288 1.536.528.256.112.448.224.576.336.272.24.496.592.496 1.04 0 1.04-1.12 1.664-2.592 1.664a6.522 6.522 0 01-2.304-.432c-.752-.288-1.36-.624-1.808-1.024v1.904c1.104.8 2.496 1.2 4.208 1.2zm13.758-1.552c-.384 0-.656-.288-.656-.784v-2.928c0-1.92-1.456-3.008-3.632-3.008-1.136 0-2.08.224-2.864.672v1.52a4.652 4.652 0 012.48-.704c1.536 0 2.304.576 2.304 1.712v.432c-.72-.4-1.568-.608-2.512-.608-.88 0-1.632.224-2.24.688-.608.448-.912 1.088-.912 1.92 0 .816.272 1.472.832 1.936.56.464 1.264.704 2.112.704 1.216 0 2.176-.4 2.896-1.216.208.752.768 1.12 1.648 1.12.432 0 .768-.08 1.008-.256v-1.312a.906.906 0 01-.464.112zm-2.368-.88c-.496.528-1.344.944-2.24.944-1.008 0-1.696-.416-1.696-1.248 0-.768.688-1.216 1.84-1.216.736 0 1.44.192 2.096.56v.96zm8.137 2.288l3.52-7.92h-1.84l-2.416 5.68-2.448-5.68h-1.904l3.52 7.92h1.568zm4.373-4c0 1.232.416 2.224 1.248 2.992.848.768 1.872 1.152 3.088 1.152s2.176-.256 2.896-.768v-1.456a4.86 4.86 0 01-2.528.704c-1.6 0-2.752-.784-2.96-2.112h6.016v-.448c0-1.424-.496-2.72-1.664-3.552-.576-.432-1.264-.64-2.064-.64-1.2 0-2.16.4-2.912 1.184-.752.784-1.12 1.776-1.12 2.944zm1.76-.8c.112-1.024.928-1.872 2.192-1.872.64 0 1.136.192 1.504.576.368.384.544.816.56 1.296h-4.256zm12.929 2.592c0 1.536.928 2.352 2.4 2.352.784 0 1.376-.128 1.744-.384v-1.488a2.492 2.492 0 01-1.184.288c-.832 0-1.232-.368-1.232-1.264v-3.696h2.48v-1.52h-2.48v-2.288h-1.728v2.288h-1.68v1.52h1.68v4.192zM170.542 95v-7.856h-1.728V95h1.728zm-.864-9.264c.592 0 1.072-.464 1.072-1.088 0-.624-.48-1.104-1.072-1.104-.624 0-1.088.48-1.088 1.104a1.06 1.06 0 001.088 1.088zM174.882 95v-5.184c.384-.72 1.216-1.264 2.032-1.264 1.072 0 1.616.64 1.616 1.936V95h1.728v-5.136c.336-.752 1.184-1.312 2.016-1.312 1.072 0 1.6.64 1.6 1.936V95h1.728v-4.912c0-2.048-1.056-3.152-2.784-3.152-1.264 0-2.304.592-2.864 1.408-.336-.832-1.248-1.408-2.48-1.408-1.136 0-2 .416-2.592 1.232v-1.024h-1.728V95h1.728zm12.462-3.936c0 1.232.416 2.224 1.248 2.992.848.768 1.872 1.152 3.088 1.152s2.176-.256 2.896-.768v-1.456a4.86 4.86 0 01-2.528.704c-1.6 0-2.752-.784-2.96-2.112h6.016v-.448c0-1.424-.496-2.72-1.664-3.552-.576-.432-1.264-.64-2.064-.64-1.2 0-2.16.4-2.912 1.184-.752.784-1.12 1.776-1.12 2.944zm1.76-.8c.112-1.024.928-1.872 2.192-1.872.64 0 1.136.192 1.504.576.368.384.544.816.56 1.296h-4.256zm15.872 3.424c-.752 0-1.36-.256-1.856-.752s-.736-1.12-.736-1.872c0-.736.24-1.36.736-1.856s1.12-.752 1.856-.752 1.344.256 1.84.752.736 1.12.736 1.856c0 .752-.24 1.376-.736 1.872-.496.496-1.104.752-1.84.752zm0 1.52c1.248 0 2.272-.4 3.088-1.2.816-.816 1.216-1.792 1.216-2.944s-.4-2.128-1.216-2.928c-.816-.8-1.84-1.2-3.088-1.2-1.264 0-2.288.4-3.104 1.2-.816.8-1.216 1.776-1.216 2.928 0 1.168.4 2.144 1.216 2.944.816.8 1.84 1.2 3.104 1.2zm7.937-5.376c.448-.72 1.344-1.28 2.224-1.28 1.024 0 1.84.496 1.84 2.032V95h1.728v-4.8c0-2.032-1.056-3.264-2.912-3.264-1.152 0-2.112.416-2.88 1.248v-1.04h-1.728V95h1.728v-5.168zM227.042 95v-7.856h-1.728V95h1.728zm-.864-9.264c.592 0 1.072-.464 1.072-1.088 0-.624-.48-1.104-1.072-1.104-.624 0-1.088.48-1.088 1.104a1.06 1.06 0 001.088 1.088zm5.204 4.096c.448-.72 1.344-1.28 2.224-1.28 1.024 0 1.84.496 1.84 2.032V95h1.728v-4.8c0-2.032-1.056-3.264-2.912-3.264-1.152 0-2.112.416-2.88 1.248v-1.04h-1.728V95h1.728v-5.168zm8.916 3.024c0 1.536.928 2.352 2.4 2.352.784 0 1.376-.128 1.744-.384v-1.488a2.492 2.492 0 01-1.184.288c-.832 0-1.232-.368-1.232-1.264v-3.696h2.48v-1.52h-2.48v-2.288h-1.728v2.288h-1.68v1.52h1.68v4.192zm5.437-1.792c0 1.232.416 2.224 1.248 2.992.848.768 1.872 1.152 3.088 1.152s2.176-.256 2.896-.768v-1.456a4.86 4.86 0 01-2.528.704c-1.6 0-2.752-.784-2.96-2.112h6.016v-.448c0-1.424-.496-2.72-1.664-3.552-.576-.432-1.264-.64-2.065-.64-1.199 0-2.159.4-2.911 1.184-.752.784-1.12 1.776-1.12 2.944zm1.76-.8c.112-1.024.928-1.872 2.192-1.872.64 0 1.136.192 1.504.576.368.384.544.816.56 1.296h-4.256zM257.179 95v-4.816c.368-.816 1.344-1.536 2.576-1.536.176 0 .336.016.48.032v-1.728c-.048-.016-.096-.016-.16-.016-1.216 0-2.368.656-2.896 1.568v-1.36h-1.728V95h1.728zm6.359-5.168c.448-.72 1.344-1.28 2.224-1.28 1.024 0 1.84.496 1.84 2.032V95h1.728v-4.8c0-2.032-1.056-3.264-2.912-3.264-1.152 0-2.112.416-2.88 1.248v-1.04h-1.728V95h1.728v-5.168zm15.476 3.824c-.384 0-.656-.288-.656-.784v-2.928c0-1.92-1.456-3.008-3.632-3.008-1.136 0-2.08.224-2.864.672v1.52a4.652 4.652 0 012.48-.704c1.536 0 2.304.576 2.304 1.712v.432c-.72-.4-1.568-.608-2.512-.608-.88 0-1.632.224-2.24.688-.608.448-.912 1.088-.912 1.92 0 .816.272 1.472.832 1.936.56.464 1.264.704 2.112.704 1.216 0 2.176-.4 2.896-1.216.208.752.768 1.12 1.648 1.12.432 0 .768-.08 1.008-.256v-1.312a.906.906 0 01-.464.112zm-2.368-.88c-.496.528-1.344.944-2.24.944-1.008 0-1.696-.416-1.696-1.248 0-.768.688-1.216 1.84-1.216.736 0 1.44.192 2.096.56v.96zm6.507 2.432c.512 0 .944-.08 1.28-.256v-1.488c-.192.112-.416.16-.656.16-.576 0-.864-.32-.864-.96V83.8h-1.728v9.344c0 1.488.832 2.064 1.968 2.064zm10.759 0c.928 0 1.76-.208 2.512-.64v-1.472c-.656.4-1.408.592-2.24.592-.784 0-1.44-.24-1.984-.736-.528-.496-.8-1.136-.8-1.888s.272-1.376.8-1.872c.544-.496 1.2-.736 1.984-.736.704 0 1.408.176 2.112.512V87.48c-.688-.368-1.488-.544-2.368-.544-1.184 0-2.192.384-3.024 1.152-.816.768-1.232 1.76-1.232 2.96 0 1.216.416 2.208 1.232 2.992.832.784 1.84 1.168 3.008 1.168zm8.236-1.52c-.752 0-1.36-.256-1.856-.752s-.736-1.12-.736-1.872c0-.736.24-1.36.736-1.856s1.12-.752 1.856-.752 1.344.256 1.84.752.736 1.12.736 1.856c0 .752-.24 1.376-.736 1.872-.496.496-1.104.752-1.84.752zm0 1.52c1.248 0 2.272-.4 3.088-1.2.816-.816 1.216-1.792 1.216-2.944s-.4-2.128-1.216-2.928c-.816-.8-1.84-1.2-3.088-1.2-1.264 0-2.288.4-3.104 1.2-.816.8-1.216 1.776-1.216 2.928 0 1.168.4 2.144 1.216 2.944.816.8 1.84 1.2 3.104 1.2zm7.937-.208v-5.184c.384-.72 1.216-1.264 2.032-1.264 1.072 0 1.616.64 1.616 1.936V95h1.728v-5.136c.336-.752 1.184-1.312 2.016-1.312 1.072 0 1.6.64 1.6 1.936V95h1.728v-4.912c0-2.048-1.056-3.152-2.784-3.152-1.264 0-2.304.592-2.864 1.408-.336-.832-1.248-1.408-2.48-1.408-1.136 0-2 .416-2.592 1.232v-1.024h-1.728V95h1.728zm14.75 0v-5.184c.384-.72 1.216-1.264 2.032-1.264 1.072 0 1.616.64 1.616 1.936V95h1.728v-5.136c.336-.752 1.184-1.312 2.016-1.312 1.072 0 1.6.64 1.6 1.936V95h1.728v-4.912c0-2.048-1.056-3.152-2.784-3.152-1.264 0-2.304.592-2.864 1.408-.336-.832-1.248-1.408-2.48-1.408-1.136 0-2 .416-2.592 1.232v-1.024h-1.728V95h1.728zm15.822.208c2.048 0 3.424-.96 3.424-2.384 0-1.248-.896-2.08-2.688-2.48l-.912-.192c-.208-.064-.576-.16-.752-.24-.288-.144-.496-.32-.496-.624 0-.512.544-.864 1.616-.864.944 0 1.888.272 2.832.8V87.64c-.72-.464-1.696-.704-2.896-.704-2.096 0-3.328.88-3.328 2.304 0 1.36.848 2 2.64 2.448l.976.24c.24.064.576.16.752.24.288.144.48.32.48.624 0 .576-.64.928-1.728.928-1.216 0-2.288-.32-3.2-.944v1.632c.688.464 1.952.8 3.28.8z"></path> <defs> <linearGradient id="paint0_linear" x1="86.238" x2="99.289" y1="87.29" y2="103.559" gradientUnits="userSpaceOnUse"> <stop stop-color="#FFD888"></stop> <stop offset="1" stop-color="#E94B4F"></stop> </linearGradient> <linearGradient id="paint1_linear" x1="86.238" x2="99.289" y1="87.29" y2="103.559" gradientUnits="userSpaceOnUse"> <stop stop-color="#FFD888"></stop> <stop offset="1" stop-color="#E94B4F"></stop> </linearGradient> <clipPath id="clip0"> <path fill="#fff" d="M0 0h28v28H0z" transform="translate(85 77)"></path> </clipPath> <filter id="filter0_d" width="431" height="215" x="0" y="0" color-interpolation-filters="sRGB" filterUnits="userSpaceOnUse"> <feFlood flood-opacity="0" result="BackgroundImageFix"></feFlood> <feColorMatrix in="SourceAlpha" values="0 0 0 0 0 0 0 0 0 0 0 0 0 0 0 0 0 0 127 0"></feColorMatrix> <feOffset></feOffset> <feGaussianBlur stdDeviation="30"></feGaussianBlur> <feColorMatrix values="0 0 0 0 0.0807107 0 0 0 0 0.219289 0 0 0 0 0.214721 0 0 0 0.1 0"></feColorMatrix> <feBlend in2="BackgroundImageFix" result="effect1_dropShadow"></feBlend> <feBlend in="SourceGraphic" in2="effect1_dropShadow" result="shape"></feBlend> </filter> </defs> </svg> 