<?xml version="1.0" encoding="UTF-8"?> <svg xmlns="http://www.w3.org/2000/svg" width="195" height="70" viewBox="0 0 195 70" fill="none"> <g clip-path="url(#clip0)"> <path d="M10.3701 69.7597H9.32012C3.96012 69.7597 -0.379883 65.4197 -0.379883 60.0597V40.1797H20.0801V60.0497C20.0801 65.4097 15.7301 69.7597 10.3701 69.7597Z" fill="url(#paint0_linear)"></path> <path d="M34.7004 0.279785H23.9203C10.5003 0.279785 -0.389648 11.1598 -0.389648 24.5898V58.4898L1.69035 55.9598C5.37035 51.4798 10.8504 48.8898 16.6504 48.8898H34.7004C39.3204 48.8898 43.6204 47.5798 47.2904 45.3498L46.6703 44.5898C44.3603 41.7798 40.9104 40.1498 37.2704 40.1498H25.9304C17.4904 40.1498 10.6504 33.3098 10.6504 24.8698C10.6504 16.4298 17.4904 9.58979 25.9304 9.58979H32.7104C41.1503 9.58979 47.9903 16.4298 47.9903 24.8698V44.9298C54.6303 40.5898 59.0203 33.1098 59.0203 24.5798C59.0103 11.1698 48.1304 0.279785 34.7004 0.279785Z" fill="url(#paint1_linear)"></path> <path d="M20.2107 28.15C21.7019 28.15 22.9107 26.9412 22.9107 25.45C22.9107 23.9588 21.7019 22.75 20.2107 22.75C18.7196 22.75 17.5107 23.9588 17.5107 25.45C17.5107 26.9412 18.7196 28.15 20.2107 28.15Z" fill="url(#paint2_linear)"></path> <path d="M29.6199 28.15C31.1111 28.15 32.3199 26.9412 32.3199 25.45C32.3199 23.9588 31.1111 22.75 29.6199 22.75C28.1288 22.75 26.9199 23.9588 26.9199 25.45C26.9199 26.9412 28.1288 28.15 29.6199 28.15Z" fill="url(#paint3_linear)"></path> <path d="M39.0301 28.15C40.5212 28.15 41.7301 26.9412 41.7301 25.45C41.7301 23.9588 40.5212 22.75 39.0301 22.75C37.5389 22.75 36.3301 23.9588 36.3301 25.45C36.3301 26.9412 37.5389 28.15 39.0301 28.15Z" fill="url(#paint4_linear)"></path> <path d="M81.48 28.3899C82.64 29.0599 83.56 29.9799 84.22 31.1399C84.88 32.3099 85.21 33.5999 85.21 35.0399C85.21 36.4699 84.9 37.7699 84.29 38.9399C83.68 40.1099 82.83 41.0199 81.76 41.6799C80.69 42.3399 79.49 42.6699 78.17 42.6699C77.11 42.6699 76.11 42.4499 75.2 42.0099C74.28 41.5699 73.5 40.9499 72.86 40.1699V47.5999C72.86 48.0199 72.73 48.3599 72.47 48.6199C72.21 48.8799 71.87 49.0099 71.45 49.0099C71.04 49.0099 70.71 48.8799 70.44 48.6199C70.17 48.3599 70.04 48.0199 70.04 47.5999V35.0299C70.04 33.5999 70.38 32.2999 71.05 31.1299C71.72 29.9599 72.63 29.0499 73.78 28.3799C74.93 27.7099 76.21 27.3799 77.62 27.3799C79.02 27.3799 80.31 27.7199 81.48 28.3899ZM80.1 39.5099C80.84 39.0599 81.43 38.4499 81.86 37.6699C82.29 36.8899 82.51 36.0099 82.51 35.0399C82.51 34.0699 82.29 33.1899 81.86 32.3999C81.43 31.6099 80.84 30.9899 80.1 30.5399C79.36 30.0899 78.53 29.8699 77.61 29.8699C76.69 29.8699 75.86 30.0999 75.12 30.5399C74.38 30.9899 73.79 31.6099 73.37 32.3999C72.95 33.1899 72.74 34.0699 72.74 35.0399C72.74 36.0099 72.95 36.8899 73.37 37.6699C73.79 38.4499 74.38 39.0699 75.12 39.5099C75.86 39.9599 76.69 40.1799 77.61 40.1799C78.52 40.1799 79.36 39.9599 80.1 39.5099Z" fill="#444444"></path> <path d="M102.88 35.6496C102.64 35.8796 102.34 35.9896 101.97 35.9896H91.5104C91.7104 37.2796 92.2904 38.3096 93.2604 39.0996C94.2204 39.8896 95.4004 40.2796 96.8004 40.2796C97.3504 40.2796 97.9204 40.1796 98.5204 39.9796C99.1204 39.7796 99.6104 39.5296 99.9904 39.2396C100.25 39.0396 100.55 38.9396 100.9 38.9396C101.25 38.9396 101.52 39.0296 101.73 39.2096C102.06 39.4896 102.22 39.7996 102.22 40.1496C102.22 40.4796 102.07 40.7596 101.78 40.9796C101.15 41.4796 100.38 41.8796 99.4504 42.1896C98.5204 42.4996 97.6404 42.6596 96.7904 42.6596C95.2804 42.6596 93.9404 42.3296 92.7404 41.6796C91.5504 41.0296 90.6104 40.1196 89.9504 38.9696C89.2804 37.8096 88.9404 36.4996 88.9404 35.0296C88.9404 33.5596 89.2604 32.2496 89.8904 31.0796C90.5204 29.9096 91.4004 29.0096 92.5304 28.3496C93.6604 27.6996 94.9404 27.3696 96.3704 27.3696C97.7804 27.3696 99.0004 27.6796 100.03 28.3096C101.06 28.9296 101.85 29.8096 102.4 30.9296C102.95 32.0496 103.23 33.3296 103.23 34.7796C103.24 35.1396 103.12 35.4196 102.88 35.6496ZM93.1204 30.8496C92.2804 31.5796 91.7604 32.5696 91.5404 33.7996H100.71C100.55 32.5696 100.08 31.5896 99.3304 30.8496C98.5804 30.1196 97.5904 29.7496 96.3804 29.7496C95.0404 29.7496 93.9604 30.1196 93.1204 30.8496Z" fill="#444444"></path> <path d="M116.81 27.7696C117.36 28.0596 117.64 28.4296 117.64 28.8696C117.64 28.9996 117.63 29.0896 117.61 29.1496C117.45 29.7396 117.08 30.0296 116.51 30.0296C116.42 30.0296 116.28 30.0096 116.1 29.9796C115.37 29.8496 114.77 29.7896 114.31 29.7896C112.99 29.7896 111.92 30.0896 111.11 30.6996C110.3 31.3096 109.9 32.1196 109.9 33.1496V41.1896C109.9 41.6296 109.78 41.9696 109.56 42.2096C109.33 42.4496 108.99 42.5696 108.53 42.5696C108.09 42.5696 107.75 42.4596 107.51 42.2296C107.27 41.9996 107.15 41.6596 107.15 41.1996V28.8696C107.15 28.4296 107.27 28.0896 107.51 27.8496C107.75 27.6096 108.09 27.4896 108.53 27.4896C109.45 27.4896 109.91 27.9496 109.91 28.8696V29.3896C110.46 28.7496 111.14 28.2396 111.95 27.8796C112.76 27.5096 113.62 27.3296 114.54 27.3296C115.5 27.3296 116.26 27.4696 116.81 27.7696Z" fill="#444444"></path> <path d="M122.81 42.0797C121.71 41.6897 120.85 41.1896 120.22 40.5696C119.98 40.3296 119.86 40.0497 119.86 39.7197C119.86 39.2797 120.04 38.9197 120.41 38.6497C120.76 38.3897 121.08 38.2596 121.37 38.2596C121.74 38.2596 122.09 38.4196 122.42 38.7596C122.77 39.1496 123.29 39.4796 123.99 39.7596C124.69 40.0496 125.43 40.1896 126.22 40.1896C127.27 40.1896 128.08 40.0196 128.66 39.6696C129.24 39.3196 129.53 38.8496 129.53 38.2696C129.53 37.6996 129.25 37.2296 128.68 36.8496C128.11 36.4696 127.15 36.1597 125.79 35.8997C122.27 35.2197 120.5 33.7696 120.5 31.5496C120.5 30.6496 120.77 29.8896 121.3 29.2596C121.83 28.6396 122.53 28.1696 123.39 27.8596C124.25 27.5496 125.17 27.3896 126.14 27.3896C127.33 27.3896 128.4 27.5797 129.35 27.9697C130.3 28.3597 131.04 28.8896 131.59 29.5696C131.83 29.8596 131.95 30.1596 131.95 30.4496C131.95 30.7596 131.79 31.0496 131.48 31.2996C131.28 31.4496 131.02 31.5196 130.71 31.5196C130.23 31.5196 129.8 31.3496 129.42 30.9996C128.96 30.5796 128.47 30.2796 127.96 30.1096C127.45 29.9396 126.82 29.8496 126.09 29.8496C125.25 29.8496 124.55 29.9896 124.01 30.2796C123.47 30.5596 123.2 30.9596 123.2 31.4796C123.2 31.8496 123.29 32.1497 123.47 32.3997C123.65 32.6497 124 32.8796 124.52 33.0896C125.04 33.2996 125.78 33.5096 126.75 33.7096C128.75 34.1096 130.17 34.6696 131 35.3896C131.83 36.1096 132.25 37.0296 132.25 38.1696C132.25 39.0096 132.02 39.7797 131.56 40.4697C131.1 41.1597 130.43 41.6996 129.54 42.0896C128.65 42.4796 127.58 42.6796 126.33 42.6796C125.08 42.6796 123.92 42.4697 122.81 42.0797Z" fill="#444444"></path> <path d="M139.03 41.6799C137.87 41.0299 136.97 40.1199 136.33 38.9699C135.69 37.8099 135.37 36.4999 135.37 35.0299C135.37 33.5399 135.69 32.2199 136.33 31.0699C136.97 29.9099 137.87 29.0099 139.03 28.3599C140.19 27.7099 141.5 27.3799 142.97 27.3799C144.42 27.3799 145.72 27.7099 146.87 28.3599C148.02 29.0099 148.92 29.9199 149.57 31.0699C150.22 32.2299 150.55 33.5499 150.55 35.0299C150.55 36.4999 150.23 37.8099 149.59 38.9699C148.95 40.1299 148.05 41.0299 146.9 41.6799C145.75 42.3299 144.45 42.6599 142.98 42.6599C141.51 42.6599 140.19 42.3399 139.03 41.6799ZM145.49 39.5199C146.23 39.0799 146.81 38.4699 147.23 37.6899C147.65 36.9099 147.85 36.0199 147.85 35.0299C147.85 34.0399 147.64 33.1499 147.23 32.3599C146.82 31.5699 146.24 30.9599 145.49 30.5199C144.75 30.0799 143.91 29.8599 142.97 29.8599C142.03 29.8599 141.2 30.0799 140.45 30.5199C139.71 30.9599 139.12 31.5799 138.7 32.3599C138.28 33.1499 138.07 34.0399 138.07 35.0299C138.07 36.0199 138.28 36.9099 138.7 37.6899C139.12 38.4699 139.71 39.0799 140.45 39.5199C141.19 39.9599 142.03 40.1799 142.97 40.1799C143.91 40.1799 144.75 39.9599 145.49 39.5199Z" fill="#444444"></path> <path d="M165.96 28.1796C166.97 28.7296 167.76 29.5296 168.33 30.5896C168.9 31.6496 169.18 32.9196 169.18 34.3996V41.1696C169.18 41.5696 169.05 41.9096 168.78 42.1796C168.51 42.4496 168.18 42.5796 167.78 42.5796C167.37 42.5796 167.04 42.4496 166.77 42.1796C166.5 41.9096 166.37 41.5796 166.37 41.1696V34.3996C166.37 32.9096 165.97 31.7896 165.17 31.0296C164.37 30.2696 163.31 29.8896 161.99 29.8896C161.22 29.8896 160.52 30.0496 159.88 30.3596C159.25 30.6696 158.75 31.0896 158.39 31.6296C158.03 32.1596 157.85 32.7596 157.85 33.4196V41.1796C157.85 41.5796 157.72 41.9196 157.46 42.1896C157.2 42.4596 156.86 42.5896 156.44 42.5896C156.03 42.5896 155.7 42.4596 155.43 42.1896C155.16 41.9196 155.03 41.5896 155.03 41.1796V28.8996C155.03 28.4796 155.16 28.1396 155.43 27.8796C155.7 27.6196 156.03 27.4896 156.44 27.4896C156.86 27.4896 157.2 27.6196 157.46 27.8796C157.72 28.1396 157.85 28.4796 157.85 28.8996V29.1996C158.44 28.6096 159.13 28.1596 159.94 27.8396C160.75 27.5196 161.61 27.3596 162.53 27.3596C163.81 27.3496 164.95 27.6296 165.96 28.1796Z" fill="#444444"></path> <path d="M174.84 42.1497C174.57 41.8797 174.44 41.5497 174.44 41.1497V28.8997C174.44 28.4797 174.57 28.1397 174.84 27.8797C175.11 27.6197 175.44 27.4897 175.85 27.4897C176.27 27.4897 176.61 27.6197 176.87 27.8797C177.13 28.1397 177.25 28.4797 177.25 28.8997V41.1497C177.25 41.5497 177.12 41.8897 176.87 42.1497C176.61 42.4197 176.27 42.5497 175.85 42.5497C175.44 42.5497 175.1 42.4197 174.84 42.1497Z" fill="#444444"></path> <path d="M194.48 41.3998C194.48 41.7998 194.32 42.1398 193.99 42.4198C193.71 42.6398 193.42 42.7498 193.11 42.7498C192.7 42.7498 192.38 42.5798 192.12 42.2498L186.89 35.7798L185.51 36.9898V41.1998C185.51 41.5998 185.38 41.9298 185.14 42.1798C184.89 42.4298 184.57 42.5498 184.16 42.5498C183.76 42.5498 183.43 42.4298 183.18 42.1798C182.93 41.9298 182.81 41.6098 182.81 41.1998V22.3998C182.81 21.9998 182.94 21.6698 183.18 21.4198C183.43 21.1698 183.75 21.0498 184.16 21.0498C184.57 21.0498 184.89 21.1698 185.14 21.4198C185.39 21.6698 185.51 21.9898 185.51 22.3998V33.5998L192.2 27.6198C192.44 27.3798 192.72 27.2598 193.05 27.2598C193.43 27.2598 193.75 27.4098 193.99 27.6998C194.23 27.9398 194.35 28.2198 194.35 28.5498C194.35 28.9398 194.2 29.2498 193.91 29.4898L188.84 34.0098L194.18 40.5598C194.38 40.7898 194.48 41.0598 194.48 41.3998Z" fill="#444444"></path> <path d="M174.561 24.6298C174.201 24.2698 174.021 23.8398 174.021 23.3498C174.021 22.8598 174.201 22.4298 174.561 22.0698C174.921 21.7098 175.34 21.5298 175.84 21.5298C176.34 21.5298 176.76 21.7098 177.12 22.0698C177.48 22.4298 177.661 22.8598 177.661 23.3498C177.661 23.8398 177.48 24.2698 177.12 24.6298C176.76 24.9898 176.34 25.1698 175.84 25.1698C175.34 25.1698 174.921 24.9898 174.561 24.6298Z" fill="url(#paint5_linear)"></path> </g> <defs> <linearGradient id="paint0_linear" x1="17.8823" y1="67.3384" x2="3.07162" y2="37.717" gradientUnits="userSpaceOnUse"> <stop offset="0.1186" stop-color="#FE6F61"></stop> <stop offset="0.8522" stop-color="#E8414D"></stop> </linearGradient> <linearGradient id="paint1_linear" x1="0.72745" y1="50.7707" x2="60.8347" y2="-4.29771" gradientUnits="userSpaceOnUse"> <stop offset="0.1186" stop-color="#FE6F61"></stop> <stop offset="0.8522" stop-color="#E8414D"></stop> </linearGradient> <linearGradient id="paint2_linear" x1="-2.99356" y1="46.7091" x2="57.1139" y2="-8.35941" gradientUnits="userSpaceOnUse"> <stop offset="0.1186" stop-color="#FE6F61"></stop> <stop offset="0.8522" stop-color="#E8414D"></stop> </linearGradient> <linearGradient id="paint3_linear" x1="1.30041" y1="51.3968" x2="61.4078" y2="-3.67161" gradientUnits="userSpaceOnUse"> <stop offset="0.1186" stop-color="#FE6F61"></stop> <stop offset="0.8522" stop-color="#E8414D"></stop> </linearGradient> <linearGradient id="paint4_linear" x1="5.59537" y1="56.0846" x2="65.7028" y2="1.01619" gradientUnits="userSpaceOnUse"> <stop offset="0.1186" stop-color="#FE6F61"></stop> <stop offset="0.8522" stop-color="#E8414D"></stop> </linearGradient> <linearGradient id="paint5_linear" x1="174.028" y1="23.3501" x2="177.661" y2="23.3501" gradientUnits="userSpaceOnUse"> <stop offset="0.1186" stop-color="#FE6F61"></stop> <stop offset="0.8522" stop-color="#E8414D"></stop> </linearGradient> <clipPath id="clip0"> <rect width="195" height="70" fill="white"></rect> </clipPath> </defs> </svg> 