<?xml version="1.0" encoding="UTF-8"?> <svg xmlns="http://www.w3.org/2000/svg" width="60" height="60" fill="none" viewBox="0 0 60 60"> <path fill="#fff" d="M0 0h60v60H0z"></path> <path fill="url(#paint0_linear)" d="M40.016 10.927C40.016 5.404 35.522.911 30 .911c-5.523 0-10.016 4.493-10.016 10.016v7.325h-1.317c-4.228 0-7.667 3.44-7.667 7.668v25.512c0 4.228 3.44 7.667 7.668 7.667h22.665c4.228 0 7.667-3.44 7.667-7.667V25.92c0-4.228-3.44-7.668-7.667-7.668h-1.317v-7.325zm-15.739 0a5.729 5.729 0 015.722-5.722 5.728 5.728 0 015.722 5.722v7.325H24.277v-7.325zM41.332 21.32c2.537 0 4.6 2.064 4.6 4.6v3.988H18.974a1.533 1.533 0 100 3.067h26.958v18.458c0 2.537-2.063 4.6-4.6 4.6H18.667a4.605 4.605 0 01-4.6-4.6v-3.988h27.265a1.533 1.533 0 100-3.067H14.066V25.92c0-2.537 2.064-4.6 4.6-4.6h22.666z"></path> <path fill="url(#paint1_linear)" d="M18.374 39.066l.862.33-.568.828c-.313.455-.2 1.085.251 1.402l.05.037a1.01 1.01 0 001.4-.224l.594-.798.604.795a1.02 1.02 0 001.419.198c.447-.33.546-.947.226-1.4l-.552-.784.878-.369a1.01 1.01 0 00.557-1.298l-.02-.05a1.012 1.012 0 00-1.278-.598l-.82.283v-.898a1.016 1.016 0 00-2.03 0v.902l-.88-.294c-.526-.176-1.085.096-1.285.643a1.02 1.02 0 00.592 1.295z"></path> <path fill="url(#paint2_linear)" d="M27.432 39.066l.862.33-.569.828a1.019 1.019 0 00.253 1.402l.05.037a1.016 1.016 0 001.399-.224l.594-.798.604.795c.336.442.969.53 1.418.198.447-.33.547-.946.227-1.4l-.553-.784.88-.369a1.01 1.01 0 00.556-1.298l-.018-.05a1.01 1.01 0 00-1.28-.598l-.82.283v-.898a1.016 1.016 0 00-2.03 0v.902l-.88-.294c-.523-.175-1.085.095-1.285.643-.189.517.077 1.099.592 1.295z"></path> <path fill="url(#paint3_linear)" d="M36.49 39.066l.862.33-.568.828c-.313.455-.2 1.085.251 1.402l.05.037a1.01 1.01 0 001.398-.224l.595-.798.604.795c.335.44.967.533 1.42.198a1.01 1.01 0 00.224-1.4l-.552-.784.88-.37a1.01 1.01 0 00.556-1.297l-.019-.05a1.01 1.01 0 00-1.28-.598l-.82.282v-.898a1.016 1.016 0 00-2.03 0v.902l-.88-.293c-.525-.177-1.085.096-1.284.642a1.02 1.02 0 00.592 1.296z"></path> <defs> <linearGradient id="paint0_linear" x1="-11" x2="54.411" y1="-3" y2="22.312" gradientUnits="userSpaceOnUse"> <stop stop-color="#FFD888"></stop> <stop offset="1" stop-color="#E94B4F"></stop> </linearGradient> <linearGradient id="paint1_linear" x1="-11" x2="54.411" y1="-3" y2="22.312" gradientUnits="userSpaceOnUse"> <stop stop-color="#FFD888"></stop> <stop offset="1" stop-color="#E94B4F"></stop> </linearGradient> <linearGradient id="paint2_linear" x1="-11" x2="54.411" y1="-3" y2="22.312" gradientUnits="userSpaceOnUse"> <stop stop-color="#FFD888"></stop> <stop offset="1" stop-color="#E94B4F"></stop> </linearGradient> <linearGradient id="paint3_linear" x1="-11" x2="54.411" y1="-3" y2="22.312" gradientUnits="userSpaceOnUse"> <stop stop-color="#FFD888"></stop> <stop offset="1" stop-color="#E94B4F"></stop> </linearGradient> </defs> </svg> 