<?xml version="1.0" encoding="UTF-8"?> <svg xmlns="http://www.w3.org/2000/svg" width="195" height="70" viewBox="0 0 195 70" fill="none"> <path d="M10.76 69.4799H9.71001C4.35001 69.4799 0.0100098 65.1399 0.0100098 59.7799V39.8999H20.47V59.7699C20.47 65.1299 16.12 69.4799 10.76 69.4799Z" fill="white"></path> <path d="M35.09 0H24.31C10.89 0 0 10.88 0 24.31V58.21L2.08 55.68C5.76 51.2 11.24 48.61 17.04 48.61H35.09C39.71 48.61 44.01 47.3 47.68 45.07L47.06 44.31C44.75 41.5 41.3 39.87 37.66 39.87H26.32C17.88 39.87 11.04 33.03 11.04 24.59C11.04 16.15 17.88 9.31 26.32 9.31H33.1C41.54 9.31 48.38 16.15 48.38 24.59V44.65C55.02 40.31 59.41 32.83 59.41 24.3C59.4 10.89 48.52 0 35.09 0Z" fill="white"></path> <path d="M20.5999 27.87C22.0911 27.87 23.2999 26.6611 23.2999 25.17C23.2999 23.6788 22.0911 22.47 20.5999 22.47C19.1087 22.47 17.8999 23.6788 17.8999 25.17C17.8999 26.6611 19.1087 27.87 20.5999 27.87Z" fill="white"></path> <path d="M30.0101 27.87C31.5012 27.87 32.7101 26.6611 32.7101 25.17C32.7101 23.6788 31.5012 22.47 30.0101 22.47C28.5189 22.47 27.3101 23.6788 27.3101 25.17C27.3101 26.6611 28.5189 27.87 30.0101 27.87Z" fill="white"></path> <path d="M39.42 27.87C40.9111 27.87 42.12 26.6611 42.12 25.17C42.12 23.6788 40.9111 22.47 39.42 22.47C37.9288 22.47 36.72 23.6788 36.72 25.17C36.72 26.6611 37.9288 27.87 39.42 27.87Z" fill="white"></path> <path d="M81.8699 28.1101C83.0299 28.7801 83.9499 29.7001 84.6099 30.8601C85.2699 32.0301 85.5999 33.3201 85.5999 34.7601C85.5999 36.1901 85.2899 37.4901 84.6799 38.6601C84.0699 39.8301 83.2199 40.7401 82.1499 41.4001C81.0799 42.0601 79.8799 42.3901 78.5599 42.3901C77.4999 42.3901 76.4999 42.1701 75.5899 41.7301C74.6699 41.2901 73.8899 40.6701 73.2499 39.8901V47.3201C73.2499 47.7401 73.1199 48.0801 72.8599 48.3401C72.5999 48.6001 72.2599 48.7301 71.8399 48.7301C71.4299 48.7301 71.0999 48.6001 70.8299 48.3401C70.5599 48.0801 70.4299 47.7401 70.4299 47.3201V34.7501C70.4299 33.3201 70.7699 32.0201 71.4399 30.8501C72.1099 29.6801 73.0199 28.7701 74.1699 28.1001C75.3199 27.4301 76.5999 27.1001 78.0099 27.1001C79.4099 27.1001 80.6999 27.4401 81.8699 28.1101ZM80.4899 39.2301C81.2299 38.7801 81.8199 38.1701 82.2499 37.3901C82.6799 36.6101 82.8999 35.7301 82.8999 34.7601C82.8999 33.7901 82.6799 32.9101 82.2499 32.1201C81.8199 31.3301 81.2299 30.7101 80.4899 30.2601C79.7499 29.8101 78.9199 29.5901 77.9999 29.5901C77.0799 29.5901 76.2499 29.8201 75.5099 30.2601C74.7699 30.7101 74.1799 31.3301 73.7599 32.1201C73.3399 32.9101 73.1299 33.7901 73.1299 34.7601C73.1299 35.7301 73.3399 36.6101 73.7599 37.3901C74.1799 38.1701 74.7699 38.7901 75.5099 39.2301C76.2499 39.6801 77.0799 39.9001 77.9999 39.9001C78.9099 39.9001 79.7499 39.6801 80.4899 39.2301Z" fill="white"></path> <path d="M103.27 35.3701C103.03 35.6001 102.73 35.7101 102.36 35.7101H91.8998C92.0998 37.0001 92.6798 38.0301 93.6498 38.8201C94.6098 39.6101 95.7898 40.0001 97.1898 40.0001C97.7398 40.0001 98.3098 39.9001 98.9098 39.7001C99.5098 39.5001 99.9998 39.2501 100.38 38.9601C100.64 38.7601 100.94 38.6601 101.29 38.6601C101.64 38.6601 101.91 38.7501 102.12 38.9301C102.45 39.2101 102.61 39.5201 102.61 39.8701C102.61 40.2001 102.46 40.4801 102.17 40.7001C101.54 41.2001 100.77 41.6001 99.8398 41.9101C98.9098 42.2201 98.0298 42.3801 97.1798 42.3801C95.6698 42.3801 94.3298 42.0501 93.1298 41.4001C91.9398 40.7501 90.9998 39.8401 90.3398 38.6901C89.6698 37.5301 89.3298 36.2201 89.3298 34.7501C89.3298 33.2801 89.6498 31.9701 90.2798 30.8001C90.9098 29.6301 91.7898 28.7301 92.9198 28.0701C94.0498 27.4201 95.3298 27.0901 96.7598 27.0901C98.1698 27.0901 99.3898 27.4001 100.42 28.0301C101.45 28.6501 102.24 29.5301 102.79 30.6501C103.34 31.7701 103.62 33.0501 103.62 34.5001C103.63 34.8601 103.51 35.1401 103.27 35.3701ZM93.5098 30.5701C92.6698 31.3001 92.1498 32.2901 91.9298 33.5201H101.1C100.94 32.2901 100.47 31.3101 99.7198 30.5701C98.9698 29.8401 97.9798 29.4701 96.7698 29.4701C95.4298 29.4701 94.3498 29.8401 93.5098 30.5701Z" fill="white"></path> <path d="M117.2 27.49C117.75 27.78 118.03 28.15 118.03 28.59C118.03 28.72 118.02 28.81 118 28.87C117.84 29.46 117.47 29.75 116.9 29.75C116.81 29.75 116.67 29.73 116.49 29.7C115.76 29.57 115.16 29.51 114.7 29.51C113.38 29.51 112.31 29.81 111.5 30.42C110.69 31.03 110.29 31.84 110.29 32.87V40.91C110.29 41.35 110.17 41.69 109.95 41.93C109.72 42.17 109.38 42.29 108.92 42.29C108.48 42.29 108.14 42.18 107.9 41.95C107.66 41.72 107.54 41.38 107.54 40.92V28.59C107.54 28.15 107.66 27.81 107.9 27.57C108.14 27.33 108.48 27.21 108.92 27.21C109.84 27.21 110.3 27.67 110.3 28.59V29.11C110.85 28.47 111.53 27.96 112.34 27.6C113.15 27.23 114.01 27.05 114.93 27.05C115.89 27.05 116.65 27.19 117.2 27.49Z" fill="white"></path> <path d="M123.2 41.8001C122.1 41.4101 121.24 40.9101 120.61 40.2901C120.37 40.0501 120.25 39.7701 120.25 39.4401C120.25 39.0001 120.43 38.6401 120.8 38.3701C121.15 38.1101 121.47 37.9801 121.76 37.9801C122.13 37.9801 122.48 38.1401 122.81 38.4801C123.16 38.8701 123.68 39.2001 124.38 39.4801C125.08 39.7701 125.82 39.9101 126.61 39.9101C127.66 39.9101 128.47 39.7401 129.05 39.3901C129.63 39.0401 129.92 38.5701 129.92 37.9901C129.92 37.4201 129.64 36.9501 129.07 36.5701C128.5 36.1901 127.54 35.8801 126.18 35.6201C122.66 34.9401 120.89 33.4901 120.89 31.2701C120.89 30.3701 121.16 29.6101 121.69 28.9801C122.22 28.3601 122.92 27.8901 123.78 27.5801C124.64 27.2701 125.56 27.1101 126.53 27.1101C127.72 27.1101 128.79 27.3001 129.74 27.6901C130.69 28.0801 131.43 28.6101 131.98 29.2901C132.22 29.5801 132.34 29.8801 132.34 30.1701C132.34 30.4801 132.18 30.7701 131.87 31.0201C131.67 31.1701 131.41 31.2401 131.1 31.2401C130.62 31.2401 130.19 31.0701 129.81 30.7201C129.35 30.3001 128.86 30.0001 128.35 29.8301C127.84 29.6601 127.21 29.5701 126.48 29.5701C125.64 29.5701 124.94 29.7101 124.4 30.0001C123.86 30.2801 123.59 30.6801 123.59 31.2001C123.59 31.5701 123.68 31.8701 123.86 32.1201C124.04 32.3701 124.39 32.6001 124.91 32.8101C125.43 33.0201 126.17 33.2301 127.14 33.4301C129.14 33.8301 130.56 34.3901 131.39 35.1101C132.22 35.8301 132.64 36.7501 132.64 37.8901C132.64 38.7301 132.41 39.5001 131.95 40.1901C131.49 40.8801 130.82 41.4201 129.93 41.8101C129.04 42.2001 127.97 42.4001 126.72 42.4001C125.47 42.4001 124.31 42.1901 123.2 41.8001Z" fill="white"></path> <path d="M139.42 41.4001C138.26 40.7501 137.36 39.8401 136.72 38.6901C136.08 37.5301 135.76 36.2201 135.76 34.7501C135.76 33.2601 136.08 31.9401 136.72 30.7901C137.36 29.6301 138.26 28.7301 139.42 28.0801C140.58 27.4301 141.89 27.1001 143.36 27.1001C144.81 27.1001 146.11 27.4301 147.26 28.0801C148.41 28.7301 149.31 29.6401 149.96 30.7901C150.61 31.9501 150.94 33.2701 150.94 34.7501C150.94 36.2201 150.62 37.5301 149.98 38.6901C149.34 39.8501 148.44 40.7501 147.29 41.4001C146.14 42.0501 144.84 42.3801 143.37 42.3801C141.9 42.3801 140.58 42.0601 139.42 41.4001ZM145.88 39.2401C146.62 38.8001 147.2 38.1901 147.62 37.4101C148.04 36.6301 148.24 35.7401 148.24 34.7501C148.24 33.7601 148.03 32.8701 147.62 32.0801C147.21 31.2901 146.63 30.6801 145.88 30.2401C145.14 29.8001 144.3 29.5801 143.36 29.5801C142.42 29.5801 141.59 29.8001 140.84 30.2401C140.1 30.6801 139.51 31.3001 139.09 32.0801C138.67 32.8701 138.46 33.7601 138.46 34.7501C138.46 35.7401 138.67 36.6301 139.09 37.4101C139.51 38.1901 140.1 38.8001 140.84 39.2401C141.58 39.6801 142.42 39.9001 143.36 39.9001C144.3 39.9001 145.14 39.6801 145.88 39.2401Z" fill="white"></path> <path d="M166.35 27.9001C167.36 28.4501 168.15 29.2501 168.72 30.3101C169.29 31.3701 169.57 32.6401 169.57 34.1201V40.8901C169.57 41.2901 169.44 41.6301 169.17 41.9001C168.9 42.1701 168.57 42.3001 168.17 42.3001C167.76 42.3001 167.43 42.1701 167.16 41.9001C166.89 41.6301 166.76 41.3001 166.76 40.8901V34.1201C166.76 32.6301 166.36 31.5101 165.56 30.7501C164.76 29.9901 163.7 29.6101 162.38 29.6101C161.61 29.6101 160.91 29.7701 160.27 30.0801C159.64 30.3901 159.14 30.8101 158.78 31.3501C158.42 31.8801 158.24 32.4801 158.24 33.1401V40.9001C158.24 41.3001 158.11 41.6401 157.85 41.9101C157.59 42.1801 157.25 42.3101 156.83 42.3101C156.42 42.3101 156.09 42.1801 155.82 41.9101C155.55 41.6401 155.42 41.3101 155.42 40.9001V28.6201C155.42 28.2001 155.55 27.8601 155.82 27.6001C156.09 27.3401 156.42 27.2101 156.83 27.2101C157.25 27.2101 157.59 27.3401 157.85 27.6001C158.11 27.8601 158.24 28.2001 158.24 28.6201V28.9201C158.83 28.3301 159.52 27.8801 160.33 27.5601C161.14 27.2401 162 27.0801 162.92 27.0801C164.2 27.0701 165.34 27.3501 166.35 27.9001Z" fill="white"></path> <path d="M175.23 41.87C174.96 41.6 174.83 41.27 174.83 40.87V28.62C174.83 28.2 174.96 27.86 175.23 27.6C175.5 27.34 175.83 27.21 176.24 27.21C176.66 27.21 177 27.34 177.26 27.6C177.52 27.86 177.64 28.2 177.64 28.62V40.87C177.64 41.27 177.51 41.61 177.26 41.87C177 42.14 176.66 42.27 176.24 42.27C175.83 42.27 175.49 42.14 175.23 41.87Z" fill="white"></path> <path d="M194.87 41.12C194.87 41.52 194.71 41.86 194.38 42.14C194.1 42.36 193.81 42.47 193.5 42.47C193.09 42.47 192.77 42.3 192.51 41.97L187.28 35.5L185.9 36.71V40.92C185.9 41.32 185.77 41.65 185.53 41.9C185.28 42.15 184.96 42.27 184.55 42.27C184.15 42.27 183.82 42.15 183.57 41.9C183.32 41.65 183.2 41.33 183.2 40.92V22.12C183.2 21.72 183.33 21.39 183.57 21.14C183.82 20.89 184.14 20.77 184.55 20.77C184.96 20.77 185.28 20.89 185.53 21.14C185.78 21.39 185.9 21.71 185.9 22.12V33.32L192.59 27.34C192.83 27.1 193.11 26.98 193.44 26.98C193.82 26.98 194.14 27.13 194.38 27.42C194.62 27.66 194.74 27.94 194.74 28.27C194.74 28.66 194.59 28.97 194.3 29.21L189.23 33.73L194.57 40.28C194.77 40.51 194.87 40.78 194.87 41.12Z" fill="white"></path> <path d="M174.95 24.35C174.59 23.99 174.41 23.56 174.41 23.07C174.41 22.58 174.59 22.15 174.95 21.79C175.31 21.43 175.73 21.25 176.23 21.25C176.73 21.25 177.15 21.43 177.51 21.79C177.87 22.15 178.05 22.58 178.05 23.07C178.05 23.56 177.87 23.99 177.51 24.35C177.15 24.71 176.73 24.89 176.23 24.89C175.73 24.89 175.31 24.71 174.95 24.35Z" fill="white"></path> </svg> 