<?xml version="1.0" encoding="UTF-8"?> <svg xmlns="http://www.w3.org/2000/svg" width="60" height="60" fill="none" viewBox="0 0 60 60"> <path fill="#fff" d="M0 0h60v60H0z"></path> <path fill="url(#paint0_linear)" d="M9.531 27.467l14.476 5.494 4.195 10.727c.012.033.03.062.045.094.012.025.023.051.037.076.04.073.085.142.136.205l.032.035c.046.054.097.105.15.15.01.01.017.019.028.027.013.01.027.018.04.027.039.03.079.057.12.082.026.015.052.032.078.045.043.023.087.041.132.06.026.01.052.022.078.031.055.018.111.032.17.043.016.004.032.01.05.012.071.012.144.02.218.02h.014a1.405 1.405 0 00.343-.046c.08-.02.159-.045.234-.079l.03-.012a1.397 1.397 0 00.291-.188c.074-.06.144-.125.204-.199l.003-.002 5.729-7.04 16.887 4.034a1.427 1.427 0 001.752-1.272l2.994-37.255v-.002a1.43 1.43 0 00-.036-.421 1.444 1.444 0 00-.093-.284c-.005-.01-.008-.023-.013-.034a1.449 1.449 0 00-.183-.277c-.018-.023-.039-.042-.059-.064-.028-.03-.053-.063-.084-.091-.039-.035-.081-.061-.122-.092-.014-.01-.024-.024-.039-.033-.007-.005-.014-.007-.02-.01a1.408 1.408 0 00-.303-.15c-.022-.007-.043-.01-.065-.017a1.426 1.426 0 00-.271-.052c-.028-.003-.054-.007-.081-.008-.11-.004-.22.002-.33.024-.014.003-.029.01-.044.013a1.439 1.439 0 00-.284.1c-.013.006-.028.007-.041.014L9.39 24.864a1.425 1.425 0 00.14 2.603zm22.304 6.487c-.03.045-.057.093-.083.142-.018.034-.038.066-.053.1-.002.007-.007.014-.01.021l-2.123 5.132-3.058-7.818 20.788-18.796-15.442 21.187c-.007.01-.011.021-.019.032zm20.46 3.95l-16.877-4.031L54.75 7.347l-2.455 30.557zM47.654 8.567L24.036 29.924l-10.485-3.98L47.654 8.567z"></path> <path stroke="url(#paint1_linear)" stroke-linecap="round" stroke-width="2" d="M4 37.863L11.464 33m.036 21.863l8.395-10.355M34.5 57.5l4.279-11.082M50.5 54.863l1.048-8"></path> <defs> <linearGradient id="paint0_linear" x1="-1" x2="46.997" y1="1" y2="42.34" gradientUnits="userSpaceOnUse"> <stop stop-color="#FFD888"></stop> <stop offset="1" stop-color="#E94B4F"></stop> </linearGradient> <linearGradient id="paint1_linear" x1="-10.5" x2="12.594" y1="18" y2="68.264" gradientUnits="userSpaceOnUse"> <stop stop-color="#FFD888"></stop> <stop offset="1" stop-color="#E94B4F"></stop> </linearGradient> </defs> </svg> 