<?xml version="1.0" encoding="UTF-8"?> <svg xmlns="http://www.w3.org/2000/svg" width="407" height="312" fill="none" viewBox="0 0 407 312"> <path fill="#EBECEC" d="M195.486 158.418l-.001-.5.001.5zm202.439-96.262a.5.5 0 00-.596-.38l-4.393.973a.5.5 0 10.216.976l3.905-.865.865 3.905a.5.5 0 00.977-.216l-.974-4.393zM13.8 256.67l.462.192v-.001-.002l.005-.01.018-.041.072-.167c.065-.149.164-.37.297-.661.268-.582.675-1.44 1.233-2.539l-.891-.453a73.837 73.837 0 00-1.25 2.574 41.75 41.75 0 00-.305.678l-.076.175-.02.046-.004.012a.013.013 0 00-.002.003v.001l.461.193zm5.844-10.004a142.593 142.593 0 014.158-6.543l-.829-.559a143.684 143.684 0 00-4.188 6.589l.859.513zm8.667-12.885a164.396 164.396 0 014.776-6.075l-.771-.637a165.011 165.011 0 00-4.806 6.113l.8.599zm9.869-11.968a172.878 172.878 0 015.316-5.615l-.71-.704a174.833 174.833 0 00-5.348 5.648l.742.671zm10.884-10.995a175.581 175.581 0 015.807-5.137l-.646-.763a178.004 178.004 0 00-5.84 5.165l.68.735zm11.834-10.017a180.196 180.196 0 016.231-4.615l-.577-.816a180.215 180.215 0 00-6.267 4.64l.613.791zm12.654-8.959a185.013 185.013 0 016.599-4.069l-.507-.862a185.112 185.112 0 00-6.635 4.091l.543.84zm13.362-7.861a190.48 190.48 0 016.917-3.513l-.434-.901a192.157 192.157 0 00-6.954 3.532l.472.882zm13.977-6.749a200.294 200.294 0 017.194-2.959l-.362-.932a199.715 199.715 0 00-7.23 2.974l.398.917zm14.455-5.625c2.401-.831 4.853-1.63 7.358-2.394l-.292-.956c-2.516.768-4.98 1.57-7.393 2.405l.327.945zm14.816-4.525a225.012 225.012 0 017.558-1.872l-.224-.975c-2.578.592-5.109 1.22-7.591 1.881l.257.966zm15.135-3.478c2.495-.485 5.034-.937 7.616-1.353l-.16-.987c-2.592.418-5.141.871-7.647 1.359l.191.981zm15.317-2.47c2.531-.328 5.102-.621 7.714-.879l-.099-.995c-2.621.259-5.202.553-7.743.882l.128.992zm15.416-1.528c2.56-.178 5.157-.324 7.791-.434l-.041-.999c-2.644.111-5.25.256-7.82.436l.07.997zm15.516-.654c1.305-.02 2.618-.031 3.941-.034l-.002-1a287.3 287.3 0 00-3.955.035l.016.999zm3.941-.034c1.315-.003 2.622-.014 3.923-.033l-.015-1c-1.296.019-2.6.03-3.91.033l.002 1zm11.646-.246c2.62-.105 5.211-.244 7.773-.415l-.066-.998c-2.554.171-5.136.309-7.747.414l.04.999zm15.471-1.03c2.605-.243 5.178-.52 7.721-.828l-.12-.993c-2.534.307-5.098.583-7.694.825l.093.996zm15.415-1.868a276.51 276.51 0 007.619-1.249l-.176-.985c-2.497.446-5.027.862-7.591 1.245l.148.989zm15.25-2.726c2.562-.534 5.087-1.1 7.576-1.696l-.233-.973a260.117 260.117 0 01-7.548 1.69l.205.979zm15.07-3.609a254.73 254.73 0 007.445-2.139l-.291-.956a259.024 259.024 0 01-7.415 2.13l.261.965zm14.85-4.511a255.897 255.897 0 007.31-2.592l-.349-.938a250.784 250.784 0 01-7.28 2.582l.319.948zm14.521-5.403a247.263 247.263 0 007.114-3.031l-.406-.914a245.32 245.32 0 01-7.086 3.019l.378.926zm14.169-6.301a243.857 243.857 0 006.939-3.487l-.463-.886a245.824 245.824 0 01-6.91 3.472l.434.901zm13.758-7.188c2.289-1.29 4.52-2.596 6.695-3.914l-.519-.855a241.815 241.815 0 01-6.667 3.898l.491.871zm13.26-8.038a242.679 242.679 0 006.431-4.332l-.572-.821a239.864 239.864 0 01-6.404 4.315l.545.838zm12.721-8.87a240.732 240.732 0 006.143-4.741l-.624-.781a238.698 238.698 0 01-6.117 4.72l.598.802zm12.127-9.68a232.31 232.31 0 005.813-5.127l-.674-.739a232.097 232.097 0 01-5.788 5.106l.649.76zm11.429-10.428a217.31 217.31 0 005.481-5.546l-.723-.69a220.21 220.21 0 01-5.456 5.52l.698.716zm10.705-11.231c1.91-2.16 3.586-4.151 5.032-5.932l-.776-.63a185.337 185.337 0 01-5.005 5.9l.749.662zm9.797-12.112a89.019 89.019 0 002.045-2.932l.102-.157a3.467 3.467 0 00.033-.051l.002-.003.001-.001-.422-.27-.421-.268h-.001l-.001.003a1.39 1.39 0 01-.03.047l-.099.15c-.088.135-.221.335-.4.598a88.669 88.669 0 01-1.618 2.297l.809.587zm-200.19 92.741l-.002-1 .002 1zm202.928-96.37a1 1 0 00-1.193-.76l-8.787 1.946a1 1 0 00.433 1.953l7.81-1.73 1.731 7.81a1 1 0 101.952-.432l-1.946-8.787zM13.8 256.67l.923.384.001-.001a.12.12 0 01.004-.009l.016-.04.071-.163a42.1 42.1 0 01.293-.653c.265-.576.67-1.428 1.225-2.52l-1.783-.906a74.197 74.197 0 00-1.259 2.591 42.417 42.417 0 00-.386.866l-.02.047-.005.013-.002.004v.002l.922.385zm6.273-9.748a141.819 141.819 0 014.144-6.52l-1.659-1.117a143.459 143.459 0 00-4.202 6.612l1.717 1.025zm8.638-12.841a163.198 163.198 0 014.762-6.057l-1.543-1.273a165.374 165.374 0 00-4.82 6.131l1.601 1.199zm9.84-11.932a171.404 171.404 0 015.3-5.599l-1.42-1.407a174.257 174.257 0 00-5.363 5.664l1.483 1.342zm10.853-10.964a175.094 175.094 0 015.79-5.122l-1.292-1.527a178.491 178.491 0 00-5.856 5.18l1.358 1.469zm11.8-9.989a179.483 179.483 0 016.214-4.602l-1.155-1.633a183.554 183.554 0 00-6.284 4.654l1.225 1.581zm12.619-8.934a182.928 182.928 0 016.581-4.058l-1.014-1.724a184.412 184.412 0 00-6.652 4.102l1.085 1.68zm13.327-7.84a191.352 191.352 0 016.899-3.504l-.87-1.801a192.986 192.986 0 00-6.97 3.541l.94 1.764zm13.94-6.731c2.336-1.015 4.727-2 7.176-2.952l-.724-1.864c-2.474.962-4.89 1.957-7.249 2.982l.797 1.834zm14.42-5.612a211.306 211.306 0 017.34-2.388l-.584-1.913c-2.522.77-4.992 1.575-7.41 2.411l.654 1.89zm14.781-4.513a223.39 223.39 0 017.541-1.869l-.447-1.949a224.428 224.428 0 00-7.609 1.885l.515 1.933zm15.102-3.471a239.29 239.29 0 017.599-1.35l-.318-1.975c-2.598.419-5.152.874-7.663 1.362l.382 1.963zm15.285-2.466c2.526-.326 5.092-.619 7.699-.876l-.197-1.991c-2.626.26-5.212.555-7.758.884l.256 1.983zm15.387-1.524c2.555-.178 5.147-.323 7.777-.433l-.083-1.998c-2.649.11-5.26.256-7.834.436l.14 1.995zm15.488-.653c1.303-.02 2.615-.031 3.935-.034l-.004-2c-1.329.003-2.65.015-3.961.035l.03 1.999zm3.935-.034c1.317-.003 2.627-.014 3.93-.033l-.03-2c-1.295.019-2.596.03-3.904.033l.004 2zm11.665-.246c2.625-.106 5.22-.245 7.787-.416l-.133-1.995a302.78 302.78 0 01-7.735.413l.081 1.998zm15.497-1.032c2.61-.244 5.188-.521 7.735-.829l-.24-1.986c-2.529.306-5.089.581-7.681.823l.186 1.992zm15.443-1.872c2.578-.385 5.122-.803 7.633-1.251l-.352-1.969c-2.492.445-5.018.86-7.577 1.242l.296 1.978zm15.278-2.73a268.024 268.024 0 007.591-1.7l-.466-1.945a266.7 266.7 0 01-7.534 1.687l.409 1.958zm15.099-3.616c2.526-.685 5.012-1.4 7.459-2.143l-.581-1.914a252.619 252.619 0 01-7.401 2.126l.523 1.931zm14.879-4.521a250.845 250.845 0 007.324-2.597l-.697-1.874a250.88 250.88 0 01-7.266 2.576l.639 1.895zm14.55-5.413a247.036 247.036 0 007.128-3.037l-.812-1.828a245.477 245.477 0 01-7.071 3.013l.755 1.852zm14.198-6.314a246.182 246.182 0 006.953-3.494l-.926-1.773a243.567 243.567 0 01-6.897 3.466l.87 1.801zm13.786-7.203a246.306 246.306 0 006.708-3.921l-1.037-1.711a242.288 242.288 0 01-6.653 3.89l.982 1.742zm13.287-8.054a243.661 243.661 0 006.444-4.341l-1.144-1.641a241.305 241.305 0 01-6.391 4.306l1.091 1.676zm12.747-8.889a241.752 241.752 0 006.156-4.75l-1.248-1.563a235.449 235.449 0 01-6.104 4.71l1.196 1.603zm12.153-9.699a233.674 233.674 0 005.825-5.138l-1.348-1.478a232.648 232.648 0 01-5.775 5.095l1.298 1.521zm11.454-10.451a220.267 220.267 0 005.493-5.559l-1.447-1.38a217.22 217.22 0 01-5.444 5.508l1.398 1.43zm10.73-11.258a186.544 186.544 0 005.046-5.948l-1.553-1.26a182.784 182.784 0 01-4.992 5.883l1.499 1.325zm9.826-12.149a90.903 90.903 0 001.646-2.335 58.594 58.594 0 00.544-.819l.008-.011.002-.003v-.001h.001l-.844-.538-.843-.538-.001.002-.005.008-.024.036-.096.149c-.087.132-.219.33-.396.591-.355.522-.89 1.293-1.61 2.284l1.618 1.175z"></path> </svg> 