<?xml version="1.0" encoding="UTF-8"?> <svg xmlns="http://www.w3.org/2000/svg" width="439" height="215" fill="none" viewBox="0 0 439 215"> <g filter="url(#filter0_d)"> <path fill="#fff" d="M83.51 60H355.49C368.476 60 379 70.558 379 83.587v15.925c0 11.218-10.524 23.587-23.511 23.587l-14.77.028v27.181c0 3.55-3.762 5.796-6.852 4.134l-31.83-31.315-218.526-.028C70.524 123.099 60 112.541 60 99.512V83.587C60 70.558 70.524 60 83.51 60z"></path> </g> <g clip-path="url(#clip0)"> <path fill="#fff" d="M85 76h28v28H85z"></path> <path fill="url(#paint0_linear)" d="M99.516 97.046c-.355 0-.71-.125-.982-.396L95.5 93.5a1.38 1.38 0 010-1.958 1.39 1.39 0 011.963 0l2.053 2.17 11.113-11.084a1.39 1.39 0 011.964 0 1.38 1.38 0 010 1.959L100.498 96.65a1.47 1.47 0 01-.982.396z"></path> <path fill="url(#paint1_linear)" d="M93.233 97.046c-.37 0-.738-.125-1.02-.396l-6.79-6.521a1.345 1.345 0 010-1.959 1.483 1.483 0 012.04 0l5.77 5.542 11.54-11.084a1.482 1.482 0 012.039 0 1.345 1.345 0 010 1.959L94.252 96.65c-.282.25-.65.396-1.02.396z"></path> </g> <path fill="#122B29" d="M125.928 94.208c1.232 0 2.256-.304 3.072-.896.816-.592 1.232-1.408 1.232-2.448-.064-1.264-.592-2.064-1.584-2.592-.704-.384-1.2-.576-2.048-.832l-1.28-.368c-.272-.112-.784-.272-.992-.4-.384-.272-.656-.528-.656-1.008 0-.832.752-1.424 2.288-1.424 1.232 0 2.416.352 3.552 1.04v-1.76c-1.04-.624-2.24-.928-3.584-.928-2.512 0-4.064 1.2-4.064 3.056 0 1.024.336 1.744 1.152 2.256.416.24.784.432 1.12.56.336.128.832.288 1.456.464l.224.064c.72.208 1.024.288 1.536.528.256.112.448.224.576.336.272.24.496.592.496 1.04 0 1.04-1.12 1.664-2.592 1.664a6.522 6.522 0 01-2.304-.432c-.752-.288-1.36-.624-1.808-1.024v1.904c1.104.8 2.496 1.2 4.208 1.2zm8.11-5.376c.448-.72 1.344-1.28 2.224-1.28.496 0 .928.144 1.296.448.368.304.544.832.544 1.584V94h1.728v-4.8c0-2.032-1.056-3.264-2.912-3.264-1.152 0-2.112.416-2.88 1.248V82.8h-1.728V94h1.728v-5.168zm15.476 3.824c-.384 0-.656-.288-.656-.784v-2.928c0-1.92-1.456-3.008-3.632-3.008-1.136 0-2.08.224-2.864.672v1.52a4.652 4.652 0 012.48-.704c1.536 0 2.304.576 2.304 1.712v.432c-.72-.4-1.568-.608-2.512-.608-.88 0-1.632.224-2.24.688-.608.448-.912 1.088-.912 1.92 0 .816.272 1.472.832 1.936.56.464 1.264.704 2.112.704 1.216 0 2.176-.4 2.896-1.216.208.752.768 1.12 1.648 1.12.432 0 .768-.08 1.008-.256v-1.312a.906.906 0 01-.464.112zm-2.368-.88c-.496.528-1.344.944-2.24.944-1.008 0-1.696-.416-1.696-1.248 0-.768.688-1.216 1.84-1.216.736 0 1.44.192 2.096.56v.96zM153.413 94v-4.816c.368-.816 1.344-1.536 2.576-1.536.176 0 .336.016.48.032v-1.728c-.048-.016-.096-.016-.16-.016-1.216 0-2.368.656-2.896 1.568v-1.36h-1.728V94h1.728zm4.072-3.936c0 1.232.416 2.224 1.248 2.992.848.768 1.872 1.152 3.088 1.152s2.176-.256 2.896-.768v-1.456a4.86 4.86 0 01-2.528.704c-1.6 0-2.752-.784-2.96-2.112h6.016v-.448c0-1.424-.496-2.72-1.664-3.552-.576-.432-1.264-.64-2.065-.64-1.199 0-2.159.4-2.911 1.184-.752.784-1.12 1.776-1.12 2.944zm1.76-.8c.112-1.024.928-1.872 2.192-1.872.64 0 1.136.192 1.504.576.368.384.544.816.56 1.296h-4.256zM173.229 94v-7.856h-1.728V94h1.728zm-.864-9.264c.592 0 1.072-.464 1.072-1.088 0-.624-.48-1.104-1.072-1.104-.624 0-1.088.48-1.088 1.104a1.06 1.06 0 001.088 1.088zm5.204 4.096c.448-.72 1.344-1.28 2.224-1.28 1.024 0 1.84.496 1.84 2.032V94h1.728v-4.8c0-2.032-1.056-3.264-2.912-3.264-1.152 0-2.112.416-2.88 1.248v-1.04h-1.728V94h1.728v-5.168zm10.437-1.168h2.576v-1.52h-2.576v-.72c0-.848.4-1.28 1.216-1.28.4 0 .864.096 1.36.288v-1.456c-.544-.224-1.152-.336-1.84-.336-1.6 0-2.464.992-2.464 2.48v1.024h-1.472v1.52h1.472V94h1.728v-6.336zm7.752 5.024c-.752 0-1.36-.256-1.856-.752s-.736-1.12-.736-1.872c0-.736.24-1.36.736-1.856s1.12-.752 1.856-.752 1.344.256 1.84.752.736 1.12.736 1.856c0 .752-.24 1.376-.736 1.872-.496.496-1.104.752-1.84.752zm0 1.52c1.248 0 2.272-.4 3.088-1.2.816-.816 1.216-1.792 1.216-2.944s-.4-2.128-1.216-2.928c-.816-.8-1.84-1.2-3.088-1.2-1.264 0-2.288.4-3.104 1.2-.816.8-1.216 1.776-1.216 2.928 0 1.168.4 2.144 1.216 2.944.816.8 1.84 1.2 3.104 1.2zm7.936-.208v-4.816c.368-.816 1.344-1.536 2.576-1.536.176 0 .336.016.48.032v-1.728c-.048-.016-.096-.016-.16-.016-1.216 0-2.368.656-2.896 1.568v-1.36h-1.728V94h1.728zm6.36 0v-5.184c.384-.72 1.216-1.264 2.032-1.264 1.072 0 1.616.64 1.616 1.936V94h1.728v-5.136c.336-.752 1.184-1.312 2.016-1.312 1.072 0 1.6.64 1.6 1.936V94h1.728v-4.912c0-2.048-1.056-3.152-2.784-3.152-1.264 0-2.304.592-2.864 1.408-.336-.832-1.248-1.408-2.48-1.408-1.136 0-2 .416-2.592 1.232v-1.024h-1.728V94h1.728zm20.398-1.344c-.384 0-.656-.288-.656-.784v-2.928c0-1.92-1.456-3.008-3.632-3.008-1.136 0-2.08.224-2.864.672v1.52a4.652 4.652 0 012.48-.704c1.536 0 2.304.576 2.304 1.712v.432c-.72-.4-1.568-.608-2.512-.608-.88 0-1.632.224-2.24.688-.608.448-.912 1.088-.912 1.92 0 .816.272 1.472.832 1.936.56.464 1.264.704 2.112.704 1.216 0 2.176-.4 2.896-1.216.208.752.768 1.12 1.648 1.12.432 0 .768-.08 1.008-.256v-1.312a.906.906 0 01-.464.112zm-2.368-.88c-.496.528-1.344.944-2.24.944-1.008 0-1.696-.416-1.696-1.248 0-.768.688-1.216 1.84-1.216.736 0 1.44.192 2.096.56v.96zm5.198.08c0 1.536.928 2.352 2.4 2.352.784 0 1.376-.128 1.744-.384v-1.488a2.492 2.492 0 01-1.184.288c-.832 0-1.232-.368-1.232-1.264v-3.696h2.48v-1.52h-2.48v-2.288h-1.728v2.288h-1.68v1.52h1.68v4.192zM241.307 94v-7.856h-1.728V94h1.728zm-.864-9.264c.592 0 1.072-.464 1.072-1.088 0-.624-.48-1.104-1.072-1.104-.624 0-1.088.48-1.088 1.104a1.06 1.06 0 001.088 1.088zm7.237 7.952c-.752 0-1.36-.256-1.856-.752s-.736-1.12-.736-1.872c0-.736.24-1.36.736-1.856s1.12-.752 1.856-.752 1.344.256 1.84.752.736 1.12.736 1.856c0 .752-.24 1.376-.736 1.872-.496.496-1.104.752-1.84.752zm0 1.52c1.248 0 2.272-.4 3.087-1.2.817-.816 1.217-1.792 1.217-2.944s-.4-2.128-1.217-2.928c-.815-.8-1.839-1.2-3.087-1.2-1.264 0-2.288.4-3.104 1.2-.816.8-1.216 1.776-1.216 2.928 0 1.168.4 2.144 1.216 2.944.816.8 1.84 1.2 3.104 1.2zm7.936-5.376c.448-.72 1.344-1.28 2.224-1.28 1.024 0 1.84.496 1.84 2.032V94h1.728v-4.8c0-2.032-1.056-3.264-2.912-3.264-1.152 0-2.112.416-2.88 1.248v-1.04h-1.728V94h1.728v-5.168zm15.057 5.376c2.048 0 3.424-.96 3.424-2.384 0-1.248-.896-2.08-2.688-2.48l-.912-.192c-.208-.064-.576-.16-.752-.24-.288-.144-.496-.32-.496-.624 0-.512.544-.864 1.616-.864.944 0 1.888.272 2.832.8V86.64c-.72-.464-1.696-.704-2.896-.704-2.096 0-3.328.88-3.328 2.304 0 1.36.848 2 2.64 2.448l.976.24c.24.064.576.16.752.24.288.144.48.32.48.624 0 .576-.64.928-1.728.928-1.216 0-2.288-.32-3.2-.944v1.632c.688.464 1.952.8 3.28.8zm4.827-4.144c0 1.232.416 2.224 1.248 2.992.848.768 1.872 1.152 3.088 1.152s2.176-.256 2.896-.768v-1.456a4.86 4.86 0 01-2.528.704c-1.6 0-2.752-.784-2.96-2.112h6.016v-.448c0-1.424-.496-2.72-1.664-3.552-.576-.432-1.264-.64-2.064-.64-1.2 0-2.16.4-2.912 1.184-.752.784-1.12 1.776-1.12 2.944zm1.76-.8c.112-1.024.928-1.872 2.192-1.872.64 0 1.136.192 1.504.576.368.384.544.816.56 1.296h-4.256zm15.332 3.392c-.384 0-.656-.288-.656-.784v-2.928c0-1.92-1.456-3.008-3.632-3.008-1.136 0-2.08.224-2.864.672v1.52a4.652 4.652 0 012.48-.704c1.536 0 2.304.576 2.304 1.712v.432c-.72-.4-1.568-.608-2.512-.608-.88 0-1.632.224-2.24.688-.608.448-.912 1.088-.912 1.92 0 .816.272 1.472.832 1.936.56.464 1.264.704 2.112.704 1.216 0 2.176-.4 2.896-1.216.208.752.768 1.12 1.648 1.12.432 0 .768-.08 1.008-.256v-1.312a.906.906 0 01-.464.112zm-2.368-.88c-.496.528-1.344.944-2.24.944-1.008 0-1.696-.416-1.696-1.248 0-.768.688-1.216 1.84-1.216.736 0 1.44.192 2.096.56v.96zM296.491 94v-5.184c.384-.72 1.216-1.264 2.032-1.264 1.072 0 1.616.64 1.616 1.936V94h1.728v-5.136c.336-.752 1.184-1.312 2.016-1.312 1.072 0 1.6.64 1.6 1.936V94h1.728v-4.912c0-2.048-1.056-3.152-2.784-3.152-1.264 0-2.304.592-2.864 1.408-.336-.832-1.248-1.408-2.48-1.408-1.136 0-2 .416-2.592 1.232v-1.024h-1.728V94h1.728zm14.99.208c.512 0 .944-.08 1.28-.256v-1.488c-.192.112-.416.16-.656.16-.576 0-.864-.32-.864-.96V82.8h-1.728v9.344c0 1.488.832 2.064 1.968 2.064zm2.363-4.144c0 1.232.416 2.224 1.248 2.992.848.768 1.872 1.152 3.088 1.152s2.176-.256 2.896-.768v-1.456a4.86 4.86 0 01-2.528.704c-1.6 0-2.752-.784-2.96-2.112h6.016v-.448c0-1.424-.496-2.72-1.664-3.552-.576-.432-1.264-.64-2.064-.64-1.2 0-2.16.4-2.912 1.184-.752.784-1.12 1.776-1.12 2.944zm1.76-.8c.112-1.024.928-1.872 2.192-1.872.64 0 1.136.192 1.504.576.368.384.544.816.56 1.296h-4.256zm10.756 4.944c2.048 0 3.424-.96 3.424-2.384 0-1.248-.896-2.08-2.688-2.48l-.912-.192c-.208-.064-.576-.16-.752-.24-.288-.144-.496-.32-.496-.624 0-.512.544-.864 1.616-.864.944 0 1.888.272 2.832.8V86.64c-.72-.464-1.696-.704-2.896-.704-2.096 0-3.328.88-3.328 2.304 0 1.36.848 2 2.64 2.448l.976.24c.24.064.576.16.752.24.288.144.48.32.48.624 0 .576-.64.928-1.728.928-1.216 0-2.288-.32-3.2-.944v1.632c.688.464 1.952.8 3.28.8zm8.188 0c2.048 0 3.424-.96 3.424-2.384 0-1.248-.896-2.08-2.688-2.48l-.912-.192c-.208-.064-.576-.16-.752-.24-.288-.144-.496-.32-.496-.624 0-.512.544-.864 1.616-.864.944 0 1.888.272 2.832.8V86.64c-.72-.464-1.696-.704-2.896-.704-2.096 0-3.328.88-3.328 2.304 0 1.36.848 2 2.64 2.448l.976.24c.24.064.576.16.752.24.288.144.48.32.48.624 0 .576-.64.928-1.728.928-1.216 0-2.288-.32-3.2-.944v1.632c.688.464 1.952.8 3.28.8zm7.355 0c.512 0 .944-.08 1.28-.256v-1.488c-.192.112-.416.16-.656.16-.576 0-.864-.32-.864-.96V82.8h-1.728v9.344c0 1.488.832 2.064 1.968 2.064zm3.723 3.072c1.296 0 2.288-.816 2.992-2.432l3.76-8.704h-1.872l-2.288 5.536-2.368-5.536h-1.92l3.44 7.568c-.592 1.408-1.136 2.048-2.032 2.048-.4 0-.784-.08-1.136-.256v1.52c.304.176.768.256 1.424.256z"></path> <defs> <linearGradient id="paint0_linear" x1="86.238" x2="99.289" y1="86.29" y2="102.559" gradientUnits="userSpaceOnUse"> <stop stop-color="#FFD888"></stop> <stop offset="1" stop-color="#E94B4F"></stop> </linearGradient> <linearGradient id="paint1_linear" x1="86.238" x2="99.289" y1="86.29" y2="102.559" gradientUnits="userSpaceOnUse"> <stop stop-color="#FFD888"></stop> <stop offset="1" stop-color="#E94B4F"></stop> </linearGradient> <clipPath id="clip0"> <path fill="#fff" d="M0 0h28v28H0z" transform="translate(85 76)"></path> </clipPath> <filter id="filter0_d" width="439" height="215" x="0" y="0" color-interpolation-filters="sRGB" filterUnits="userSpaceOnUse"> <feFlood flood-opacity="0" result="BackgroundImageFix"></feFlood> <feColorMatrix in="SourceAlpha" values="0 0 0 0 0 0 0 0 0 0 0 0 0 0 0 0 0 0 127 0"></feColorMatrix> <feOffset></feOffset> <feGaussianBlur stdDeviation="30"></feGaussianBlur> <feColorMatrix values="0 0 0 0 0.0807107 0 0 0 0 0.219289 0 0 0 0 0.214721 0 0 0 0.1 0"></feColorMatrix> <feBlend in2="BackgroundImageFix" result="effect1_dropShadow"></feBlend> <feBlend in="SourceGraphic" in2="effect1_dropShadow" result="shape"></feBlend> </filter> </defs> </svg> 