<?xml version="1.0" encoding="UTF-8"?> <svg xmlns="http://www.w3.org/2000/svg" width="392" height="328" viewBox="0 0 392 328" fill="none"> <path d="M166.936 160.428L166.713 159.98L166.936 160.428ZM384.846 185.151C385.114 185.22 385.387 185.06 385.456 184.792L386.587 180.437C386.656 180.17 386.496 179.897 386.229 179.827C385.961 179.758 385.689 179.918 385.619 180.185L384.614 184.057L380.742 183.052C380.475 182.982 380.202 183.143 380.133 183.41C380.063 183.677 380.224 183.95 380.491 184.02L384.846 185.151ZM4.90782 143.62C4.40835 143.643 4.40835 143.643 4.40836 143.644C4.40836 143.644 4.40836 143.644 4.40836 143.644C4.40837 143.644 4.40838 143.644 4.40838 143.644C4.4084 143.644 4.40842 143.645 4.40844 143.645C4.40849 143.646 4.40856 143.648 4.40864 143.649C4.40882 143.653 4.40907 143.658 4.4094 143.664C4.41008 143.677 4.4111 143.695 4.41254 143.72C4.41542 143.768 4.41998 143.839 4.42679 143.931C4.44042 144.115 4.46308 144.385 4.49938 144.733C4.57197 145.428 4.69918 146.434 4.918 147.683L5.903 147.511C5.68853 146.286 5.56439 145.304 5.49397 144.629C5.45877 144.292 5.43699 144.032 5.42407 143.857C5.41761 143.77 5.41336 143.704 5.41076 143.66C5.40946 143.638 5.40856 143.622 5.40801 143.611C5.40773 143.606 5.40754 143.602 5.40742 143.6C5.40736 143.599 5.40732 143.598 5.4073 143.598C5.40729 143.597 5.40728 143.597 5.40728 143.597C5.40728 143.597 5.40728 143.597 5.40728 143.597C5.40728 143.597 5.40728 143.597 5.40728 143.597C5.40729 143.597 5.40729 143.597 4.90782 143.62ZM6.89923 155.505C7.67151 157.835 8.68121 160.375 10.0005 162.994L10.8936 162.544C9.59881 159.974 8.60722 157.48 7.84846 155.19L6.89923 155.505ZM14.2016 169.935C15.7104 172.031 17.4508 174.107 19.4581 176.097L20.1622 175.387C18.1966 173.438 16.4918 171.405 15.0132 169.351L14.2016 169.935ZM25.6545 181.29C27.759 182.776 30.0705 184.16 32.609 185.408L33.05 184.51C30.559 183.286 28.2928 181.928 26.2311 180.473L25.6545 181.29ZM40.136 188.45C42.5671 189.241 45.1619 189.917 47.9314 190.459L48.1233 189.478C45.3923 188.943 42.8368 188.277 40.4455 187.499L40.136 188.45ZM55.9066 191.586C58.4637 191.818 61.1466 191.945 63.9616 191.958L63.966 190.958C61.1785 190.946 58.5243 190.819 55.997 190.59L55.9066 191.586ZM72.0128 191.694C74.5828 191.519 77.2499 191.256 80.0178 190.897L79.8893 189.906C77.1408 190.262 74.4939 190.523 71.945 190.696L72.0128 191.694ZM87.9664 189.652C90.5224 189.185 93.1564 188.642 95.8706 188.019L95.647 187.044C92.9467 187.664 90.3274 188.204 87.7866 188.668L87.9664 189.652ZM103.749 186.044C106.23 185.372 108.773 184.637 111.379 183.836L111.085 182.88C108.49 183.678 105.958 184.41 103.488 185.079L103.749 186.044ZM119.015 181.36C121.522 180.506 124.083 179.595 126.701 178.624L126.353 177.686C123.744 178.654 121.191 179.563 118.692 180.413L119.015 181.36ZM134.079 175.785C136.527 174.811 139.02 173.786 141.561 172.71L141.171 171.789C138.637 172.863 136.15 173.884 133.709 174.856L134.079 175.785ZM148.895 169.518C151.293 168.447 153.73 167.332 156.208 166.171L155.784 165.265C153.311 166.424 150.88 167.536 148.488 168.605L148.895 169.518ZM163.452 162.705C164.678 162.106 165.914 161.496 167.159 160.875L166.713 159.98C165.47 160.6 164.237 161.208 163.013 161.806L163.452 162.705ZM167.159 160.875C168.389 160.262 169.614 159.66 170.833 159.069L170.396 158.169C169.174 158.762 167.947 159.366 166.713 159.98L167.159 160.875ZM178.074 155.651C180.537 154.522 182.976 153.437 185.389 152.397L184.993 151.479C182.573 152.522 180.127 153.61 177.657 154.742L178.074 155.651ZM192.765 149.323C195.289 148.308 197.785 147.341 200.252 146.422L199.903 145.485C197.427 146.407 194.924 147.377 192.392 148.395L192.765 149.323ZM207.733 143.75C210.322 142.866 212.88 142.034 215.405 141.254L215.11 140.299C212.575 141.082 210.008 141.916 207.41 142.804L207.733 143.75ZM223.027 139.027C225.658 138.303 228.252 137.635 230.81 137.022L230.577 136.05C228.008 136.666 225.403 137.336 222.762 138.063L223.027 139.027ZM238.633 135.292C241.277 134.757 243.88 134.281 246.443 133.861L246.281 132.874C243.706 133.296 241.09 133.774 238.435 134.312L238.633 135.292ZM254.394 132.72C257.099 132.388 259.758 132.12 262.369 131.912L262.289 130.915C259.664 131.124 256.992 131.394 254.272 131.728L254.394 132.72ZM270.333 131.456C273.039 131.362 275.691 131.335 278.29 131.368L278.303 130.369C275.688 130.335 273.02 130.362 270.299 130.456L270.333 131.456ZM286.287 131.672C289.008 131.844 291.667 132.085 294.265 132.388L294.38 131.395C291.766 131.09 289.089 130.847 286.35 130.674L286.287 131.672ZM302.179 133.531C304.861 133.995 307.471 134.526 310.01 135.116L310.236 134.142C307.679 133.548 305.05 133.013 302.349 132.546L302.179 133.531ZM317.733 137.153C320.344 137.925 322.872 138.76 325.318 139.647L325.659 138.707C323.195 137.813 320.648 136.972 318.016 136.194L317.733 137.153ZM332.734 142.6C335.236 143.687 337.64 144.826 339.947 146.005L340.402 145.115C338.077 143.927 335.654 142.778 333.133 141.683L332.734 142.6ZM346.92 149.85C349.293 151.258 351.547 152.7 353.681 154.158L354.245 153.333C352.094 151.863 349.822 150.409 347.43 148.99L346.92 149.85ZM360.135 158.876C362.328 160.59 364.365 162.3 366.249 163.979L366.914 163.232C365.015 161.54 362.962 159.816 360.75 158.088L360.135 158.876ZM372.043 169.495C374.106 171.595 375.902 173.582 377.439 175.386L378.2 174.737C376.649 172.916 374.837 170.913 372.756 168.794L372.043 169.495ZM382.379 181.682C383.111 182.706 383.653 183.519 384.011 184.074C384.191 184.351 384.324 184.564 384.412 184.707C384.456 184.778 384.489 184.832 384.51 184.868C384.521 184.886 384.529 184.899 384.534 184.908C384.536 184.912 384.538 184.916 384.539 184.918C384.54 184.919 384.54 184.919 384.541 184.92C384.541 184.92 384.541 184.92 384.541 184.92C384.541 184.92 384.541 184.92 384.541 184.92C384.541 184.92 384.541 184.92 384.541 184.92C384.541 184.92 384.541 184.92 384.972 184.667C385.403 184.413 385.403 184.413 385.403 184.413C385.403 184.413 385.403 184.413 385.403 184.413C385.403 184.413 385.403 184.413 385.403 184.413C385.403 184.413 385.402 184.412 385.402 184.412C385.402 184.411 385.401 184.41 385.4 184.409C385.399 184.406 385.396 184.402 385.393 184.397C385.387 184.387 385.379 184.372 385.367 184.353C385.344 184.314 385.309 184.257 385.263 184.183C385.172 184.034 385.035 183.815 384.851 183.531C384.485 182.964 383.934 182.138 383.192 181.1L382.379 181.682ZM166.936 160.428L166.49 159.533L166.936 160.428ZM384.721 185.635C385.255 185.773 385.801 185.453 385.94 184.918L388.202 176.207C388.341 175.672 388.02 175.127 387.486 174.988C386.951 174.849 386.405 175.17 386.266 175.704L384.255 183.447L376.512 181.437C375.978 181.298 375.432 181.619 375.293 182.153C375.154 182.688 375.475 183.234 376.01 183.372L384.721 185.635ZM4.90782 143.62C3.90888 143.666 3.90889 143.667 3.90889 143.667C3.9089 143.667 3.9089 143.667 3.90891 143.667C3.90892 143.667 3.90892 143.667 3.90894 143.668C3.90896 143.668 3.90898 143.669 3.90901 143.669C3.90908 143.671 3.90916 143.672 3.90926 143.674C3.90946 143.678 3.90973 143.684 3.9101 143.691C3.91083 143.705 3.91192 143.724 3.91343 143.749C3.91645 143.8 3.92116 143.873 3.92815 143.968C3.94214 144.157 3.96523 144.432 4.00208 144.785C4.07576 145.491 4.2045 146.508 4.4255 147.769L6.3955 147.424C6.18321 146.213 6.0606 145.241 5.99127 144.577C5.95661 144.245 5.93528 143.99 5.92271 143.82C5.91643 143.735 5.91234 143.672 5.90987 143.63C5.90863 143.61 5.90781 143.594 5.90731 143.585C5.90706 143.58 5.9069 143.577 5.90681 143.575C5.90677 143.574 5.90674 143.574 5.90673 143.574C5.90673 143.574 5.90673 143.574 5.90673 143.574C5.90673 143.574 5.90674 143.574 5.90674 143.574C5.90674 143.574 5.90675 143.574 5.90675 143.574C5.90675 143.574 5.90676 143.574 4.90782 143.62ZM6.42462 155.662C7.20366 158.013 8.22241 160.575 9.55395 163.219L11.3402 162.319C10.0576 159.773 9.07507 157.302 8.32307 155.033L6.42462 155.662ZM13.7957 170.227C15.3196 172.344 17.0779 174.441 19.106 176.452L20.5143 175.032C18.5695 173.104 16.8825 171.092 15.419 169.059L13.7957 170.227ZM25.3662 181.699C27.4921 183.199 29.8263 184.597 32.3885 185.856L33.2705 184.061C30.8032 182.849 28.5597 181.505 26.5194 180.065L25.3662 181.699ZM39.9813 188.925C42.4322 189.723 45.0466 190.404 47.8354 190.95L48.2193 188.987C45.5075 188.457 42.9717 187.795 40.6002 187.023L39.9813 188.925ZM55.8614 192.084C58.4334 192.317 61.1307 192.445 63.9594 192.458L63.9681 190.458C61.1944 190.446 58.5546 190.32 56.0422 190.092L55.8614 192.084ZM72.0467 192.193C74.6272 192.017 77.3045 191.753 80.082 191.393L79.8251 189.41C77.0862 189.764 74.4494 190.025 71.9111 190.197L72.0467 192.193ZM88.0562 190.144C90.6199 189.675 93.2612 189.131 95.9824 188.506L95.5351 186.557C92.8419 187.175 90.2299 187.713 87.6967 188.176L88.0562 190.144ZM103.88 186.527C106.367 185.853 108.915 185.116 111.526 184.313L110.938 182.402C108.348 183.198 105.821 183.929 103.357 184.597L103.88 186.527ZM119.176 181.833C121.687 180.978 124.253 180.065 126.875 179.092L126.179 177.217C123.574 178.184 121.025 179.091 118.531 179.94L119.176 181.833ZM134.264 176.249C136.715 175.274 139.212 174.248 141.756 173.171L140.976 171.329C138.445 172.401 135.961 173.421 133.524 174.391L134.264 176.249ZM149.099 169.974C151.5 168.902 153.94 167.786 156.42 166.624L155.572 164.813C153.102 165.97 150.673 167.081 148.284 168.148L149.099 169.974ZM163.672 163.154C164.899 162.554 166.136 161.944 167.382 161.323L166.49 159.533C165.248 160.152 164.016 160.76 162.794 161.357L163.672 163.154ZM167.382 161.323C168.611 160.71 169.834 160.109 171.051 159.519L170.178 157.719C168.955 158.313 167.725 158.917 166.49 159.533L167.382 161.323ZM178.282 156.106C180.742 154.978 183.177 153.895 185.587 152.856L184.796 151.02C182.371 152.064 179.922 153.154 177.449 154.288L178.282 156.106ZM192.952 149.787C195.472 148.773 197.963 147.808 200.427 146.89L199.729 145.016C197.249 145.94 194.741 146.911 192.205 147.932L192.952 149.787ZM207.894 144.224C210.479 143.34 213.032 142.511 215.553 141.732L214.963 139.821C212.423 140.605 209.851 141.442 207.248 142.331L207.894 144.224ZM223.16 139.509C225.785 138.787 228.374 138.12 230.927 137.509L230.461 135.564C227.886 136.181 225.276 136.852 222.629 137.581L223.16 139.509ZM238.733 135.782C241.37 135.248 243.967 134.773 246.524 134.354L246.2 132.38C243.619 132.803 240.997 133.283 238.336 133.822L238.733 135.782ZM254.455 133.216C257.153 132.885 259.804 132.618 262.408 132.41L262.25 130.416C259.617 130.626 256.938 130.897 254.211 131.231L254.455 133.216ZM270.35 131.955C273.048 131.862 275.692 131.835 278.283 131.868L278.309 129.869C275.686 129.835 273.01 129.862 270.281 129.957L270.35 131.955ZM286.255 132.171C288.968 132.343 291.618 132.583 294.207 132.884L294.438 130.898C291.815 130.592 289.13 130.349 286.382 130.175L286.255 132.171ZM302.094 134.024C304.766 134.486 307.367 135.015 309.897 135.603L310.35 133.655C307.783 133.059 305.145 132.522 302.434 132.053L302.094 134.024ZM317.591 137.632C320.193 138.402 322.711 139.233 325.148 140.117L325.83 138.237C323.356 137.34 320.799 136.496 318.158 135.715L317.591 137.632ZM332.535 143.059C335.027 144.142 337.422 145.276 339.72 146.451L340.63 144.67C338.295 143.477 335.863 142.324 333.332 141.224L332.535 143.059ZM346.665 150.28C349.029 151.682 351.273 153.119 353.399 154.571L354.527 152.92C352.367 151.444 350.087 149.985 347.685 148.56L346.665 150.28ZM359.827 159.27C362.012 160.977 364.04 162.681 365.916 164.352L367.247 162.859C365.34 161.16 363.278 159.429 361.058 157.694L359.827 159.27ZM371.686 169.846C373.741 171.937 375.528 173.914 377.059 175.71L378.581 174.413C377.022 172.583 375.202 170.571 373.113 168.444L371.686 169.846ZM381.972 181.972C382.699 182.99 383.237 183.796 383.591 184.345C383.769 184.619 383.9 184.829 383.986 184.969C384.029 185.039 384.061 185.092 384.082 185.126C384.092 185.143 384.099 185.156 384.104 185.164C384.106 185.168 384.108 185.17 384.109 185.172C384.11 185.173 384.11 185.173 384.11 185.174C384.11 185.174 384.11 185.174 384.11 185.174C384.11 185.174 384.11 185.174 384.11 185.174C384.11 185.174 384.11 185.173 384.11 185.173C384.11 185.173 384.11 185.173 384.972 184.667C385.834 184.16 385.834 184.16 385.834 184.16C385.834 184.16 385.834 184.16 385.834 184.16C385.834 184.16 385.834 184.159 385.834 184.159C385.834 184.159 385.833 184.158 385.833 184.158C385.832 184.157 385.832 184.156 385.831 184.154C385.829 184.151 385.826 184.147 385.823 184.142C385.817 184.131 385.808 184.115 385.795 184.095C385.771 184.055 385.736 183.997 385.689 183.921C385.596 183.769 385.457 183.546 385.271 183.26C384.901 182.686 384.346 181.854 383.599 180.81L381.972 181.972Z" fill="#EBECEC"></path> </svg> 