<?xml version="1.0" encoding="UTF-8"?> <svg xmlns="http://www.w3.org/2000/svg" width="208" height="270" viewBox="0 0 208 270" fill="none"> <path d="M123.555 116.929L123.067 117.039L123.555 116.929ZM205.844 220.287C206.073 220.132 206.134 219.821 205.979 219.593L203.463 215.862C203.309 215.633 202.998 215.572 202.769 215.727C202.54 215.881 202.48 216.192 202.634 216.421L204.871 219.737L201.554 221.973C201.325 222.128 201.265 222.439 201.419 222.668C201.574 222.897 201.885 222.957 202.113 222.803L205.844 220.287ZM1 49.0001C1.1101 49.4878 1.11008 49.4879 1.11007 49.4879C1.11007 49.4879 1.11006 49.4879 1.11006 49.4879C1.11007 49.4879 1.1101 49.4878 1.11015 49.4878C1.11025 49.4878 1.11044 49.4878 1.11071 49.4877C1.11124 49.4876 1.11211 49.4874 1.1133 49.4871C1.1157 49.4866 1.11941 49.4858 1.12445 49.4846C1.13451 49.4824 1.14983 49.479 1.17034 49.4745C1.21137 49.4655 1.27315 49.4522 1.35514 49.4348C1.51911 49.4001 1.76388 49.3494 2.08503 49.2861C2.72733 49.1594 3.67506 48.9822 4.89273 48.7809L4.72963 47.7943C3.5012 47.9974 2.54333 48.1764 1.89157 48.3049C1.56569 48.3692 1.31631 48.4208 1.14789 48.4565C1.06368 48.4743 0.999706 48.4882 0.956523 48.4977C0.934931 48.5024 0.918537 48.506 0.90741 48.5085C0.901847 48.5097 0.8976 48.5107 0.894679 48.5113C0.893218 48.5116 0.892089 48.5119 0.891292 48.5121C0.890894 48.5122 0.890578 48.5122 0.890346 48.5123C0.89023 48.5123 0.890135 48.5123 0.890061 48.5124C0.890024 48.5124 0.889983 48.5124 0.889965 48.5124C0.88993 48.5124 0.8899 48.5124 1 49.0001ZM12.657 47.7389C14.9913 47.4918 17.6186 47.2697 20.4818 47.1154L20.4279 46.1169C17.5462 46.2722 14.9017 46.4957 12.5517 46.7445L12.657 47.7389ZM28.3032 46.8948C30.8095 46.8891 33.4284 46.9463 36.133 47.0865L36.1848 46.0878C33.4609 45.9467 30.8239 45.8891 28.3009 45.8948L28.3032 46.8948ZM43.9522 47.7168C46.4888 47.9966 49.0734 48.3573 51.6869 48.8133L51.8588 47.8281C49.2233 47.3684 46.6179 47.0047 44.0619 46.7228L43.9522 47.7168ZM59.3518 50.4204C61.8511 51.0366 64.3596 51.7495 66.8612 52.5709L67.1732 51.6208C64.6463 50.7911 62.1135 50.0713 59.5911 49.4495L59.3518 50.4204ZM74.1805 55.3093C76.5576 56.3142 78.914 57.4301 81.2355 58.6674L81.7058 57.785C79.3567 56.5329 76.9732 55.4042 74.5698 54.3882L74.1805 55.3093ZM87.9348 62.657C90.0771 64.0772 92.1749 65.6181 94.2161 67.2887L94.8495 66.5149C92.7816 64.8224 90.6567 63.2617 88.4874 61.8235L87.9348 62.657ZM100.002 72.5424C101.797 74.3497 103.533 76.2788 105.199 78.3371L105.976 77.708C104.289 75.6231 102.531 73.6688 100.711 71.8376L100.002 72.5424ZM109.794 84.6298C111.188 86.7499 112.516 88.985 113.769 91.341L114.652 90.8713C113.384 88.4883 112.041 86.2265 110.629 84.0803L109.794 84.6298ZM117.131 98.3862C118.124 100.716 119.051 103.148 119.906 105.686L120.854 105.367C119.991 102.805 119.055 100.348 118.051 97.9941L117.131 98.3862ZM122.131 113.175C122.46 114.439 122.772 115.727 123.067 117.039L124.043 116.82C123.745 115.497 123.431 114.198 123.099 112.923L122.131 113.175ZM123.067 117.039C123.355 118.319 123.652 119.584 123.956 120.833L124.927 120.597C124.625 119.353 124.33 118.094 124.043 116.82L123.067 117.039ZM125.908 128.273C126.619 130.794 127.362 133.248 128.136 135.636L129.087 135.328C128.318 132.952 127.578 130.511 126.87 128.001L125.908 128.273ZM130.657 142.909C131.569 145.372 132.513 147.759 133.486 150.071L134.408 149.683C133.441 147.384 132.502 145.011 131.595 142.562L130.657 142.909ZM136.638 157.099C137.771 159.474 138.935 161.762 140.124 163.965L141.004 163.491C139.823 161.301 138.667 159.029 137.541 156.669L136.638 157.099ZM143.952 170.637C145.324 172.887 146.722 175.037 148.138 177.093L148.962 176.526C147.556 174.485 146.168 172.35 144.806 170.116L143.952 170.637ZM152.707 183.326C154.333 185.411 155.974 187.382 157.622 189.245L158.371 188.583C156.737 186.735 155.109 184.779 153.495 182.711L152.707 183.326ZM162.92 194.863C164.806 196.736 166.688 198.477 168.552 200.094L169.207 199.339C167.36 197.736 165.495 196.011 163.625 194.153L162.92 194.863ZM174.563 204.953C176.731 206.581 178.85 208.045 180.899 209.36L181.439 208.518C179.411 207.216 177.311 205.766 175.164 204.154L174.563 204.953ZM187.534 213.268C190.056 214.623 192.399 215.736 194.503 216.645L194.9 215.727C192.82 214.829 190.503 213.728 188.007 212.387L187.534 213.268ZM201.74 219.357C202.92 219.726 203.848 219.977 204.484 220.136C204.801 220.215 205.046 220.271 205.212 220.308C205.295 220.327 205.358 220.34 205.401 220.349C205.423 220.354 205.439 220.357 205.451 220.359C205.456 220.36 205.461 220.361 205.464 220.362C205.466 220.362 205.467 220.362 205.468 220.363C205.468 220.363 205.468 220.363 205.469 220.363C205.469 220.363 205.469 220.363 205.469 220.363C205.469 220.363 205.469 220.363 205.469 220.363C205.469 220.363 205.469 220.363 205.565 219.872C205.66 219.381 205.66 219.381 205.66 219.381C205.66 219.381 205.66 219.381 205.66 219.381C205.66 219.381 205.66 219.381 205.66 219.381C205.66 219.381 205.66 219.381 205.66 219.381C205.66 219.381 205.659 219.381 205.658 219.381C205.656 219.38 205.652 219.38 205.648 219.379C205.639 219.377 205.624 219.374 205.605 219.37C205.566 219.362 205.507 219.349 205.428 219.332C205.27 219.297 205.035 219.243 204.726 219.166C204.109 219.011 203.199 218.766 202.039 218.402L201.74 219.357ZM123.555 116.929L122.58 117.149L123.555 116.929ZM206.124 220.701C206.582 220.392 206.703 219.771 206.394 219.313L201.362 211.851C201.053 211.393 200.432 211.272 199.974 211.581C199.516 211.89 199.395 212.511 199.704 212.969L204.177 219.602L197.544 224.075C197.086 224.384 196.965 225.005 197.274 225.463C197.583 225.921 198.204 226.042 198.662 225.733L206.124 220.701ZM1 49.0001C1.2202 49.9756 1.22016 49.9756 1.22012 49.9756C1.22011 49.9756 1.22008 49.9756 1.22007 49.9756C1.22004 49.9756 1.22004 49.9756 1.22006 49.9756C1.22009 49.9756 1.22021 49.9756 1.22041 49.9755C1.22081 49.9754 1.22155 49.9753 1.22261 49.975C1.22474 49.9746 1.2282 49.9738 1.23296 49.9727C1.24249 49.9706 1.25728 49.9673 1.27725 49.963C1.3172 49.9542 1.37789 49.9411 1.45876 49.9239C1.6205 49.8897 1.86298 49.8395 2.18176 49.7766C2.81934 49.6509 3.76199 49.4746 4.97427 49.2742L4.64808 47.301C3.41426 47.505 2.45133 47.6849 1.79484 47.8144C1.46659 47.8791 1.21492 47.9312 1.04427 47.9674C0.958945 47.9854 0.893874 47.9995 0.849612 48.0092C0.82748 48.0141 0.810551 48.0178 0.798893 48.0204C0.793064 48.0217 0.788552 48.0227 0.785367 48.0234C0.783775 48.0238 0.782514 48.0241 0.781586 48.0243C0.781121 48.0244 0.780741 48.0245 0.780443 48.0245C0.780294 48.0246 0.780166 48.0246 0.780059 48.0246C0.780005 48.0246 0.779941 48.0246 0.779914 48.0246C0.779854 48.0247 0.7798 48.0247 1 49.0001ZM12.7097 48.2362C15.0361 47.9899 17.6548 47.7685 20.5087 47.6147L20.401 45.6176C17.51 45.7734 14.8569 45.9976 12.4991 46.2473L12.7097 48.2362ZM28.3044 47.3948C30.8022 47.3891 33.4121 47.4461 36.1072 47.5858L36.2107 45.5885C33.4772 45.4468 30.8312 45.389 28.2998 45.3948L28.3044 47.3948ZM43.8974 48.2138C46.4242 48.4925 48.9984 48.8518 51.601 49.3058L51.9447 47.3356C49.2983 46.8739 46.6825 46.5088 44.1167 46.2258L43.8974 48.2138ZM59.2321 50.9059C61.7199 51.5192 64.2162 52.2287 66.7052 53.0459L67.3292 51.1458C64.7896 50.3119 62.2447 49.5887 59.7108 48.964L59.2321 50.9059ZM73.9858 55.7698C76.3498 56.7692 78.6926 57.8787 81.0003 59.1087L81.941 57.3437C79.578 56.0843 77.181 54.9492 74.7645 53.9277L73.9858 55.7698ZM87.6585 63.0737C89.7872 64.485 91.8716 66.0159 93.8994 67.6757L95.1661 66.128C93.0849 64.4245 90.9465 62.854 88.7637 61.4068L87.6585 63.0737ZM99.6472 72.8948C101.431 74.6902 103.155 76.6066 104.81 78.6516L106.365 77.3935C104.667 75.2952 102.897 73.3284 101.066 71.4852L99.6472 72.8948ZM109.376 84.9046C110.762 87.0116 112.082 89.2334 113.328 91.5758L115.094 90.6365C113.819 88.2399 112.467 85.9648 111.047 83.8055L109.376 84.9046ZM116.672 98.5823C117.659 100.9 118.581 103.319 119.432 105.846L121.327 105.208C120.461 102.633 119.52 100.164 118.511 97.7981L116.672 98.5823ZM121.647 113.3C121.975 114.56 122.286 115.842 122.58 117.149L124.531 116.71C124.232 115.382 123.916 114.078 123.583 112.797L121.647 113.3ZM122.58 117.149C122.868 118.432 123.165 119.699 123.47 120.951L125.413 120.478C125.111 119.238 124.817 117.982 124.531 116.71L122.58 117.149ZM125.426 128.408C126.139 130.936 126.885 133.396 127.66 135.79L129.563 135.174C128.795 132.804 128.057 130.369 127.351 127.866L125.426 128.408ZM130.188 143.082C131.103 145.552 132.049 147.946 133.026 150.265L134.869 149.489C133.904 147.197 132.968 144.831 132.064 142.388L130.188 143.082ZM136.187 157.315C137.323 159.697 138.491 161.992 139.684 164.203L141.444 163.253C140.267 161.071 139.114 158.806 137.992 156.453L136.187 157.315ZM143.526 170.897C144.902 173.155 146.305 175.313 147.726 177.377L149.373 176.242C147.973 174.209 146.59 172.082 145.233 169.856L143.526 170.897ZM152.313 183.633C153.945 185.726 155.593 187.705 157.247 189.576L158.746 188.252C157.118 186.411 155.497 184.464 153.89 182.403L152.313 183.633ZM162.568 195.217C164.462 197.099 166.352 198.848 168.224 200.472L169.535 198.962C167.696 197.366 165.839 195.648 163.977 193.798L162.568 195.217ZM174.263 205.353C176.44 206.988 178.57 208.459 180.629 209.781L181.709 208.098C179.691 206.802 177.601 205.359 175.464 203.754L174.263 205.353ZM187.297 213.708C189.833 215.071 192.188 216.19 194.305 217.104L195.098 215.268C193.031 214.375 190.727 213.281 188.244 211.947L187.297 213.708ZM201.59 219.834C202.781 220.206 203.718 220.46 204.362 220.621C204.685 220.701 204.933 220.759 205.104 220.796C205.189 220.815 205.254 220.829 205.3 220.839C205.322 220.843 205.34 220.847 205.352 220.849C205.358 220.851 205.363 220.852 205.367 220.852C205.369 220.853 205.37 220.853 205.371 220.853C205.372 220.853 205.372 220.853 205.373 220.853C205.373 220.854 205.373 220.854 205.373 220.854C205.374 220.854 205.374 220.854 205.374 220.854C205.374 220.854 205.374 220.854 205.565 219.872C205.756 218.89 205.756 218.89 205.756 218.89C205.756 218.89 205.756 218.891 205.756 218.891C205.756 218.891 205.756 218.891 205.756 218.891C205.756 218.891 205.756 218.891 205.756 218.891C205.756 218.891 205.756 218.89 205.755 218.89C205.753 218.89 205.751 218.889 205.746 218.889C205.738 218.887 205.725 218.884 205.706 218.88C205.669 218.873 205.612 218.861 205.536 218.844C205.383 218.81 205.152 218.757 204.847 218.68C204.239 218.528 203.339 218.286 202.188 217.925L201.59 219.834Z" fill="#EBECEC"></path> </svg> 