<?xml version="1.0" encoding="UTF-8"?> <svg xmlns="http://www.w3.org/2000/svg" width="60" height="60" fill="none" viewBox="0 0 60 60"> <g clip-path="url(#clip0)"> <path fill="#fff" d="M0 0h60v60H0z"></path> <path fill="url(#paint0_linear)" d="M41.234 27C44.964 27 48 24.344 48 21.08c0-.596-.553-1.08-1.234-1.08-.681 0-1.234.484-1.234 1.08 0 2.073-1.928 3.76-4.298 3.76-.681 0-1.234.484-1.234 1.08 0 .596.552 1.08 1.234 1.08z"></path> <path fill="url(#paint1_linear)" d="M17.843 30.22a9.224 9.224 0 003.717.779l.01.001H41.43l.01-.001a9.288 9.288 0 003.716-.778 9.43 9.43 0 001.627-.914c.506-.354.982-.76 1.415-1.208a9.897 9.897 0 002.05-3.148c.245-.6.433-1.225.558-1.86a10.284 10.284 0 000-3.986 10.022 10.022 0 00-1.44-3.542 9.755 9.755 0 00-2.583-2.674 9.3 9.3 0 00-3.425-1.491c-.098-.021-.2-.03-.298-.047C41.307 6.388 36.686 3 31.5 3c-5.186 0-9.808 3.388-11.56 8.352-.098.017-.2.025-.297.047a9.326 9.326 0 00-3.425 1.491c-.507.355-.983.76-1.415 1.209a9.935 9.935 0 00-2.05 3.146A10.118 10.118 0 0012 21.1a10.132 10.132 0 00.752 3.853 9.957 9.957 0 002.05 3.146 9.545 9.545 0 003.042 2.122zm-2.466-6.41a7.113 7.113 0 01-.529-2.712 7.087 7.087 0 011.148-3.893 6.845 6.845 0 011.819-1.883 6.518 6.518 0 016.37-.64c.399.174.783.39 1.141.64a6.845 6.845 0 011.819 1.883 7.126 7.126 0 011.148 3.894c0 .812.637 1.47 1.424 1.47.787 0 1.424-.658 1.424-1.47a10.136 10.136 0 00-.752-3.853 9.914 9.914 0 00-2.05-3.147 9.73 9.73 0 00-1.414-1.209 9.535 9.535 0 00-1.144-.673c.13-.211.267-.419.416-.615a7.157 7.157 0 011.47-1.452c.224-.164.457-.314.694-.447.553-.31.757-1.025.457-1.595-.301-.57-.993-.78-1.546-.47a9.119 9.119 0 00-1.962 1.48 9.924 9.924 0 00-1.668 2.196c-.02.035-.036.072-.055.108-.03-.006-.059-.017-.088-.023-.148-.032-.298-.047-.447-.07C24.63 8.085 27.884 5.94 31.5 5.94c3.615 0 6.87 2.145 8.448 5.39-.149.023-.3.038-.447.07a9.357 9.357 0 00-3.426 1.492c-.651.454-.82 1.368-.38 2.04a1.397 1.397 0 001.978.392 6.516 6.516 0 015.111-1.045 6.565 6.565 0 012.402 1.046 6.849 6.849 0 011.818 1.883 7.068 7.068 0 011.149 3.892 7.137 7.137 0 01-.528 2.71 7.032 7.032 0 01-1.443 2.215 6.674 6.674 0 01-2.138 1.492 6.49 6.49 0 01-2.615.546H21.571a6.535 6.535 0 01-3.756-1.187 6.888 6.888 0 01-1.818-1.881 7.16 7.16 0 01-.62-1.186z"></path> <path fill="url(#paint2_linear)" d="M21.766 27c.681 0 1.234-.484 1.234-1.08 0-.596-.553-1.08-1.234-1.08-2.37 0-4.298-1.687-4.298-3.76 0-.596-.553-1.08-1.234-1.08-.681 0-1.234.484-1.234 1.08 0 3.264 3.036 5.92 6.766 5.92z"></path> <path fill="url(#paint3_linear)" d="M44.789 47.488c.017-.033.03-.067.044-.102.013-.03.026-.061.036-.093.01-.034.015-.068.022-.102.007-.034.014-.067.017-.101.004-.035.003-.07.003-.104 0-.034.001-.068-.003-.102-.003-.035-.01-.07-.017-.104-.007-.033-.012-.066-.022-.098-.01-.034-.024-.067-.037-.1a1.068 1.068 0 00-.042-.095c-.016-.03-.036-.059-.055-.088-.02-.031-.04-.062-.064-.091-.007-.009-.011-.019-.019-.027-.018-.021-.04-.037-.06-.056-.017-.017-.03-.037-.05-.053l-7.888-6.83a1.079 1.079 0 00-1.783.815v2.534h-10.05c-.595 0-1.077.483-1.077 1.078v1.254l-5.165-4.472 5.165-4.474v1.253c0 .595.482 1.077 1.077 1.077h5.164a1.078 1.078 0 000-2.155H25.9v-2.534a1.077 1.077 0 00-1.784-.814l-7.888 6.834a1.08 1.08 0 000 1.63l7.89 6.829a1.078 1.078 0 001.783-.815v-2.534h10.05c.595 0 1.078-.483 1.078-1.078v-1.254l5.165 4.471-5.165 4.475v-1.253c0-.595-.483-1.078-1.078-1.078h-5.165a1.078 1.078 0 000 2.156h4.087v2.534a1.077 1.077 0 001.784.815l7.889-6.834c.023-.02.042-.045.063-.067.015-.016.032-.026.046-.042.006-.008.01-.017.016-.024a.939.939 0 00.07-.1c.017-.027.034-.053.049-.08z"></path> <path fill="url(#paint4_linear)" d="M27.298 49.13h-.09a1.078 1.078 0 000 2.156h.09a1.078 1.078 0 000-2.155z"></path> <path fill="url(#paint5_linear)" d="M33.464 36.253a1.078 1.078 0 000 2.156h.098a1.078 1.078 0 000-2.156h-.098z"></path> <path fill="url(#paint6_linear)" d="M7.904 25.694A4.321 4.321 0 004.3 23.735c-2.371 0-4.3 1.93-4.3 4.3s1.93 4.298 4.3 4.298h3.716a3.324 3.324 0 003.323-3.319c0-1.87-1.576-3.385-3.435-3.32zm.112 4.484H4.3a2.146 2.146 0 01-2.145-2.142c0-1.183.962-2.145 2.145-2.145.884 0 1.688.554 2 1.379.207.548.815.829 1.367.634.105-.037.223-.056.349-.056.643 0 1.167.524 1.167 1.167 0 .64-.524 1.163-1.167 1.163z"></path> <path fill="url(#paint7_linear)" d="M54.655 28.376a5.37 5.37 0 00-4.584 2.605 4.054 4.054 0 00-4.384 4.036 4.051 4.051 0 004.049 4.045h4.92A5.348 5.348 0 0060 33.722a5.35 5.35 0 00-5.345-5.346zm0 8.53h-4.92a1.894 1.894 0 01-1.893-1.89c0-1.044.85-1.894 1.894-1.894.207 0 .402.032.578.094a1.076 1.076 0 001.366-.634 3.196 3.196 0 012.975-2.052c1.76 0 3.19 1.431 3.19 3.19a3.19 3.19 0 01-3.19 3.186z"></path> </g> <defs> <linearGradient id="paint0_linear" x1="-16" x2="45.204" y1="0" y2="53.833" gradientUnits="userSpaceOnUse"> <stop stop-color="#FFD888"></stop> <stop offset="1" stop-color="#E94B4F"></stop> </linearGradient> <linearGradient id="paint1_linear" x1="-16" x2="45.204" y1="0" y2="53.833" gradientUnits="userSpaceOnUse"> <stop stop-color="#FFD888"></stop> <stop offset="1" stop-color="#E94B4F"></stop> </linearGradient> <linearGradient id="paint2_linear" x1="-16" x2="45.204" y1="0" y2="53.833" gradientUnits="userSpaceOnUse"> <stop stop-color="#FFD888"></stop> <stop offset="1" stop-color="#E94B4F"></stop> </linearGradient> <linearGradient id="paint3_linear" x1="-16" x2="45.204" y1="0" y2="53.833" gradientUnits="userSpaceOnUse"> <stop stop-color="#FFD888"></stop> <stop offset="1" stop-color="#E94B4F"></stop> </linearGradient> <linearGradient id="paint4_linear" x1="-16" x2="45.204" y1="0" y2="53.833" gradientUnits="userSpaceOnUse"> <stop stop-color="#FFD888"></stop> <stop offset="1" stop-color="#E94B4F"></stop> </linearGradient> <linearGradient id="paint5_linear" x1="-16" x2="45.204" y1="0" y2="53.833" gradientUnits="userSpaceOnUse"> <stop stop-color="#FFD888"></stop> <stop offset="1" stop-color="#E94B4F"></stop> </linearGradient> <linearGradient id="paint6_linear" x1="-16" x2="45.204" y1="0" y2="53.833" gradientUnits="userSpaceOnUse"> <stop stop-color="#FFD888"></stop> <stop offset="1" stop-color="#E94B4F"></stop> </linearGradient> <linearGradient id="paint7_linear" x1="-16" x2="45.204" y1="0" y2="53.833" gradientUnits="userSpaceOnUse"> <stop stop-color="#FFD888"></stop> <stop offset="1" stop-color="#E94B4F"></stop> </linearGradient> <clipPath id="clip0"> <path fill="#fff" d="M0 0h60v60H0z"></path> </clipPath> </defs> </svg> 