<?xml version="1.0" encoding="UTF-8"?> <svg xmlns="http://www.w3.org/2000/svg" width="367" height="239" viewBox="0 0 367 239" fill="none"> <path d="M209.965 120.019L209.737 120.464L209.965 120.019ZM6.15816 226.977C5.91569 227.109 5.61198 227.02 5.47984 226.777L3.32618 222.826C3.19401 222.584 3.28344 222.28 3.52591 222.148C3.76838 222.016 4.07206 222.105 4.20422 222.348L6.11858 225.86L9.63074 223.945C9.87318 223.813 10.1769 223.903 10.309 224.145C10.4412 224.388 10.3518 224.691 10.1093 224.823L6.15816 226.977ZM366 12C366.5 12.0162 366.5 12.0162 366.5 12.0163C366.5 12.0163 366.5 12.0163 366.5 12.0164C366.5 12.0164 366.5 12.0165 366.5 12.0166C366.5 12.0168 366.5 12.0171 366.5 12.0175C366.5 12.0183 366.5 12.0194 366.5 12.0209C366.499 12.0238 366.499 12.0282 366.499 12.0338C366.499 12.0452 366.498 12.062 366.497 12.0841C366.496 12.1285 366.493 12.1943 366.49 12.281C366.482 12.4545 366.471 12.7117 366.453 13.0478C366.419 13.7201 366.361 14.7085 366.269 15.9757L365.272 15.9031C365.363 14.6434 365.421 13.6621 365.455 12.9964C365.472 12.6636 365.483 12.4097 365.49 12.2394C365.494 12.1542 365.496 12.0899 365.498 12.0471C365.499 12.0257 365.499 12.0097 365.5 11.9991C365.5 11.9938 365.5 11.9899 365.5 11.9873C365.5 11.9861 365.5 11.9851 365.5 11.9845C365.5 11.9842 365.5 11.984 365.5 11.9839C365.5 11.9838 365.5 11.9838 365.5 11.9838C365.5 11.9838 365.5 11.9838 365.5 11.9838C365.5 11.9838 365.5 11.9838 366 12ZM365.513 24.0536C365.246 26.4263 364.909 29.0886 364.484 31.9838L363.495 31.8387C363.918 28.9553 364.254 26.3042 364.519 23.9418L365.513 24.0536ZM363.173 39.9865C362.717 42.5076 362.199 45.1391 361.611 47.8547L360.634 47.6432C361.219 44.9394 361.735 42.319 362.189 39.8084L363.173 39.9865ZM359.767 55.6933C359.118 58.2429 358.407 60.8401 357.627 63.4661L356.669 63.1817C357.444 60.5689 358.152 57.9843 358.798 55.4466L359.767 55.6933ZM355.172 71.1475C354.307 73.6646 353.376 76.1914 352.375 78.7119L351.445 78.3426C352.441 75.8376 353.366 73.3256 354.226 70.8224L355.172 71.1475ZM349.204 86.1288C348.085 88.5647 346.894 90.9799 345.626 93.3593L344.743 92.889C346.002 90.5279 347.184 88.1305 348.296 85.7113L349.204 86.1288ZM341.6 100.354C340.178 102.64 338.676 104.876 337.088 107.048L336.281 106.458C337.853 104.308 339.342 102.092 340.751 99.8256L341.6 100.354ZM332.053 113.363C330.284 115.395 328.425 117.347 326.47 119.204L325.781 118.479C327.712 116.645 329.55 114.716 331.299 112.706L332.053 113.363ZM320.329 124.462C318.203 126.096 315.979 127.622 313.653 129.027L313.137 128.171C315.43 126.786 317.623 125.281 319.72 123.669L320.329 124.462ZM306.498 132.798C304.082 133.896 301.569 134.87 298.956 135.706L298.651 134.754C301.227 133.929 303.703 132.97 306.085 131.887L306.498 132.798ZM291.139 137.728C288.567 138.242 285.909 138.632 283.161 138.887L283.069 137.891C285.782 137.639 288.406 137.255 290.943 136.748L291.139 137.728ZM275.111 139.242C272.497 139.235 269.808 139.113 267.043 138.87L267.131 137.873C269.868 138.115 272.528 138.235 275.114 138.242L275.111 139.242ZM258.974 137.843C256.417 137.421 253.8 136.901 251.122 136.277L251.349 135.303C254.007 135.922 256.602 136.438 259.136 136.857L258.974 137.843ZM243.37 134.229C240.832 133.482 238.242 132.646 235.599 131.717L235.93 130.774C238.558 131.697 241.131 132.527 243.652 133.27L243.37 134.229ZM228.166 128.917C225.727 127.937 223.246 126.882 220.721 125.749L221.13 124.837C223.643 125.965 226.113 127.014 228.539 127.989L228.166 128.917ZM213.457 122.332C212.227 121.728 210.987 121.105 209.737 120.464L210.193 119.574C211.438 120.213 212.673 120.833 213.898 121.435L213.457 122.332ZM209.737 120.464C208.52 119.841 207.31 119.234 206.107 118.645L206.547 117.747C207.756 118.339 208.971 118.948 210.193 119.574L209.737 120.464ZM198.961 115.309C196.501 114.218 194.069 113.198 191.664 112.248L192.031 111.318C194.449 112.273 196.894 113.298 199.366 114.395L198.961 115.309ZM184.314 109.53C181.755 108.649 179.228 107.848 176.733 107.124L177.012 106.163C179.523 106.892 182.065 107.699 184.639 108.585L184.314 109.53ZM169.179 105.14C166.55 104.524 163.957 103.995 161.402 103.548L161.574 102.563C164.149 103.013 166.76 103.546 169.407 104.167L169.179 105.14ZM153.594 102.427C150.953 102.131 148.352 101.925 145.793 101.805L145.84 100.806C148.421 100.927 151.043 101.135 153.705 101.433L153.594 102.427ZM137.88 101.705C135.208 101.765 132.582 101.919 130.003 102.163L129.909 101.167C132.512 100.921 135.161 100.765 137.857 100.705L137.88 101.705ZM122.209 103.19C119.596 103.634 117.033 104.17 114.52 104.793L114.28 103.823C116.816 103.194 119.404 102.652 122.041 102.205L122.209 103.19ZM106.937 106.979C104.419 107.808 101.955 108.725 99.5439 109.722L99.1618 108.798C101.595 107.791 104.083 106.866 106.624 106.029L106.937 106.979ZM92.3762 112.992C90.0151 114.172 87.7086 115.429 85.4557 116.756L84.9484 115.894C87.2203 114.556 89.5469 113.288 91.9291 112.097L92.3762 112.992ZM78.8002 120.974C76.6189 122.457 74.4925 124.004 72.4201 125.607L71.8084 124.815C73.8963 123.201 76.0392 121.642 78.238 120.147L78.8002 120.974ZM66.3176 130.614C64.3235 132.346 62.3844 134.128 60.4996 135.951L59.8045 135.232C61.7015 133.397 63.6537 131.604 65.6617 129.859L66.3176 130.614ZM54.9619 141.58C53.152 143.512 51.3977 145.477 49.6981 147.467L48.9377 146.818C50.6467 144.817 52.4113 142.84 54.2321 140.896L54.9619 141.58ZM44.7004 153.582C43.0633 155.674 41.4834 157.782 39.9599 159.896L39.1485 159.312C40.6795 157.187 42.2673 155.068 43.913 152.966L44.7004 153.582ZM35.4668 166.387C33.9874 168.61 32.5692 170.83 31.211 173.035L30.3596 172.511C31.7236 170.296 33.1481 168.066 34.6343 165.833L35.4668 166.387ZM27.1823 179.827C25.8429 182.172 24.573 184.486 23.3711 186.754L22.4875 186.286C23.6941 184.009 24.9691 181.686 26.3139 179.331L27.1823 179.827ZM19.7702 193.809C18.5518 196.289 17.4218 198.688 16.378 200.984L15.4677 200.57C16.5154 198.265 17.6497 195.858 18.8727 193.368L19.7702 193.809ZM13.2082 208.244C12.0904 210.913 11.1166 213.364 10.2821 215.548L9.34801 215.191C10.186 212.998 11.1637 210.537 12.2858 207.857L13.2082 208.244ZM7.57957 223.023C7.18079 224.199 6.88509 225.115 6.68929 225.736C6.59141 226.046 6.51849 226.283 6.47015 226.441C6.44599 226.521 6.42797 226.581 6.41603 226.62C6.41008 226.64 6.40563 226.655 6.40272 226.665C6.40125 226.67 6.40015 226.674 6.39947 226.676C6.39912 226.677 6.39885 226.678 6.39868 226.679C6.39861 226.679 6.39854 226.679 6.39851 226.679C6.39851 226.679 6.39851 226.679 6.39848 226.679C6.39848 226.679 6.39848 226.679 6.39848 226.679C6.39848 226.679 6.39848 226.679 5.91885 226.538C5.43922 226.397 5.43922 226.397 5.43923 226.397C5.43923 226.397 5.43923 226.397 5.43926 226.397C5.43926 226.397 5.43929 226.397 5.43933 226.396C5.4394 226.396 5.43947 226.396 5.43957 226.396C5.43978 226.395 5.44011 226.394 5.4405 226.392C5.44132 226.39 5.44251 226.386 5.44409 226.38C5.44721 226.37 5.45189 226.354 5.45808 226.333C5.47044 226.292 5.48893 226.231 5.51357 226.15C5.56283 225.988 5.63671 225.749 5.73561 225.435C5.93342 224.808 6.23131 223.886 6.63248 222.702L7.57957 223.023ZM209.965 120.019L209.509 120.909L209.965 120.019ZM6.39744 227.416C5.9125 227.68 5.30514 227.502 5.0408 227.017L0.733502 219.114C0.469196 218.629 0.64802 218.022 1.13296 217.758C1.6179 217.493 2.22526 217.672 2.4896 218.157L6.31831 225.181L13.3426 221.353C13.8275 221.088 14.4349 221.267 14.6992 221.752C14.9635 222.237 14.7847 222.844 14.2998 223.109L6.39744 227.416ZM366 12C366.999 12.0324 366.999 12.0325 366.999 12.0325C366.999 12.0325 366.999 12.0326 366.999 12.0326C366.999 12.0327 366.999 12.0328 366.999 12.033C366.999 12.0332 366.999 12.0336 366.999 12.034C366.999 12.0349 366.999 12.0361 366.999 12.0377C366.999 12.0408 366.999 12.0453 366.999 12.0512C366.998 12.0629 366.998 12.0801 366.997 12.1026C366.995 12.1477 366.993 12.2143 366.989 12.3019C366.982 12.4769 366.97 12.7357 366.953 13.0735C366.918 13.7492 366.86 14.7411 366.768 16.0119L364.773 15.8668C364.864 14.6108 364.921 13.6331 364.955 12.9707C364.972 12.6396 364.984 12.3873 364.991 12.2185C364.994 12.1342 364.997 12.0707 364.998 12.0286C364.999 12.0076 365 11.992 365 11.9818C365 11.9767 365 11.9729 365 11.9706C365 11.9694 365 11.9685 365.001 11.968C365.001 11.9678 365.001 11.9676 365.001 11.9675C365.001 11.9675 365.001 11.9675 365.001 11.9675C365.001 11.9675 365.001 11.9675 365.001 11.9675C365.001 11.9675 365.001 11.9676 366 12ZM366.01 24.1096C365.742 26.4874 365.404 29.1553 364.979 32.0564L363 31.7661C363.422 28.8887 363.757 26.2431 364.023 23.8858L366.01 24.1096ZM363.665 40.0756C363.208 42.6019 362.689 45.239 362.1 47.9605L360.145 47.5374C360.729 44.8395 361.244 42.2247 361.697 39.7193L363.665 40.0756ZM360.252 55.8167C359.601 58.3722 358.888 60.9757 358.107 63.6083L356.189 63.0395C356.963 60.4333 357.669 57.855 358.313 55.3232L360.252 55.8167ZM355.645 71.31C354.777 73.8341 353.844 76.3682 352.839 78.8965L350.981 78.158C351.973 75.6608 352.896 73.1562 353.754 70.6599L355.645 71.31ZM349.659 86.3375C348.536 88.7818 347.34 91.2058 346.067 93.5945L344.302 92.6538C345.555 90.302 346.734 87.9133 347.841 85.5025L349.659 86.3375ZM342.025 100.618C340.597 102.914 339.087 105.161 337.491 107.343L335.877 106.162C337.442 104.023 338.923 101.818 340.326 99.5616L342.025 100.618ZM332.43 113.691C330.652 115.735 328.781 117.698 326.814 119.566L325.437 118.116C327.356 116.294 329.182 114.376 330.922 112.378L332.43 113.691ZM320.634 124.858C318.494 126.503 316.254 128.04 313.912 129.455L312.878 127.742C315.155 126.368 317.332 124.874 319.415 123.273L320.634 124.858ZM306.705 133.253C304.271 134.359 301.74 135.34 299.108 136.183L298.498 134.278C301.056 133.459 303.514 132.506 305.878 131.432L306.705 133.253ZM291.237 138.218C288.648 138.736 285.972 139.128 283.207 139.385L283.022 137.393C285.719 137.143 288.326 136.761 290.845 136.257L291.237 138.218ZM275.11 139.742C272.481 139.735 269.778 139.612 267 139.368L267.175 137.375C269.898 137.615 272.544 137.735 275.115 137.742L275.11 139.742ZM258.892 138.337C256.324 137.913 253.697 137.39 251.009 136.764L251.463 134.816C254.11 135.433 256.695 135.947 259.218 136.363L258.892 138.337ZM243.229 134.709C240.682 133.959 238.084 133.12 235.433 132.189L236.096 130.302C238.715 131.222 241.281 132.05 243.794 132.79L243.229 134.709ZM227.98 129.381C225.534 128.399 223.047 127.341 220.516 126.206L221.335 124.381C223.842 125.506 226.305 126.553 228.725 127.525L227.98 129.381ZM213.236 122.781C212.004 122.175 210.761 121.551 209.509 120.909L210.421 119.129C211.664 119.766 212.896 120.385 214.119 120.986L213.236 122.781ZM209.509 120.909C208.295 120.287 207.088 119.682 205.887 119.094L206.766 117.297C207.978 117.891 209.197 118.502 210.421 119.129L209.509 120.909ZM198.758 115.766C196.305 114.678 193.879 113.661 191.48 112.714L192.215 110.853C194.639 111.811 197.091 112.838 199.569 113.938L198.758 115.766ZM184.151 110.003C181.599 109.125 179.08 108.326 176.594 107.604L177.151 105.683C179.67 106.414 182.22 107.223 184.802 108.112L184.151 110.003ZM169.065 105.627C166.445 105.013 163.862 104.485 161.316 104.041L161.66 102.071C164.244 102.522 166.865 103.057 169.521 103.68L169.065 105.627ZM153.538 102.924C150.907 102.629 148.318 102.424 145.769 102.304L145.863 100.306C148.455 100.428 151.088 100.637 153.761 100.936L153.538 102.924ZM137.891 102.205C135.231 102.264 132.617 102.418 130.05 102.661L129.862 100.67C132.477 100.422 135.138 100.266 137.846 100.205L137.891 102.205ZM122.292 103.683C119.692 104.125 117.141 104.659 114.64 105.279L114.159 103.337C116.708 102.706 119.307 102.161 121.958 101.712L122.292 103.683ZM107.093 107.454C104.588 108.279 102.135 109.192 99.7349 110.184L98.9708 108.336C101.416 107.325 103.914 106.395 106.467 105.554L107.093 107.454ZM92.5998 113.439C90.2492 114.614 87.9527 115.866 85.7094 117.187L84.6947 115.463C86.9762 114.12 89.3128 112.846 91.7055 111.65L92.5998 113.439ZM79.0814 121.388C76.9088 122.865 74.7905 124.406 72.7259 126.002L71.5025 124.42C73.5982 122.799 75.7494 121.235 77.9569 119.734L79.0814 121.388ZM66.6455 130.991C64.6584 132.718 62.7259 134.493 60.8472 136.31L59.4569 134.872C61.3601 133.032 63.3187 131.232 65.3338 129.481L66.6455 130.991ZM55.3268 141.922C53.5223 143.848 51.7731 145.808 50.0783 147.792L48.5575 146.493C50.2713 144.487 52.0409 142.504 53.8672 140.554L55.3268 141.922ZM45.0941 153.89C43.4613 155.976 41.8854 158.079 40.3656 160.188L38.7429 159.019C40.2775 156.889 41.8693 154.765 43.5192 152.657L45.0941 153.89ZM35.8831 166.664C34.4071 168.882 32.992 171.097 31.6367 173.297L29.9338 172.248C31.3008 170.029 32.7285 167.795 34.218 165.556L35.8831 166.664ZM27.6165 180.075C26.2798 182.416 25.0124 184.725 23.8129 186.988L22.0457 186.052C23.2546 183.77 24.5322 181.443 25.8798 179.083L27.6165 180.075ZM20.219 194.03C19.0029 196.505 17.875 198.899 16.8332 201.191L15.0125 200.363C16.0621 198.054 17.1986 195.642 18.4239 193.148L20.219 194.03ZM13.6694 208.437C12.5538 211.101 11.5819 213.547 10.7492 215.726L8.88097 215.012C9.72073 212.815 10.7004 210.349 11.8246 207.664L13.6694 208.437ZM8.05314 223.183C7.65551 224.356 7.36093 225.269 7.16612 225.886C7.06875 226.195 6.9963 226.43 6.94844 226.587C6.92451 226.666 6.90671 226.725 6.89501 226.764C6.88916 226.783 6.88484 226.798 6.88204 226.807C6.8806 226.812 6.87957 226.816 6.87895 226.818C6.87861 226.819 6.87837 226.82 6.87824 226.82C6.8782 226.82 6.87813 226.82 6.87813 226.821C6.8781 226.821 6.8781 226.821 6.8781 226.821L6.8781 226.821C6.87813 226.821 6.87813 226.82 5.91885 226.538C4.95957 226.256 4.95957 226.256 4.9596 226.256C4.9596 226.255 4.9596 226.255 4.95963 226.255C4.95964 226.255 4.95967 226.255 4.95971 226.255C4.95981 226.255 4.95991 226.254 4.96001 226.254C4.96025 226.253 4.9606 226.252 4.96104 226.251C4.9619 226.248 4.96313 226.243 4.96477 226.238C4.96803 226.227 4.97279 226.211 4.97908 226.19C4.9917 226.148 5.0104 226.086 5.03525 226.004C5.08499 225.841 5.15937 225.6 5.25878 225.285C5.45761 224.654 5.75659 223.729 6.15891 222.541L8.05314 223.183Z" fill="#EBECEC"></path> </svg> 